<svg width="347" height="209" viewBox="0 0 347 209" fill="none" xmlns="http://www.w3.org/2000/svg">
<path d="M6.17089 145.464L113.514 207.432C115.211 208.413 117.129 208.946 119.089 208.982C121.048 209.018 122.985 208.556 124.717 207.639L340.829 82.8863C344.237 80.9221 346.991 76.5182 347 73.0202C347.009 69.5223 344.237 65.1632 340.829 63.199L233.881 1.47304C231.971 0.504655 229.86 0 227.719 0C225.578 0 223.467 0.504655 221.557 1.47304L6.17089 125.822C2.7626 127.795 9.16466e-05 132.19 9.16466e-05 135.643C9.16466e-05 139.096 2.7626 143.5 6.17089 145.464Z" fill="#37474F"/>
<path d="M113.514 207.432L6.1708 145.464C2.76251 143.5 0 139.105 0 135.643C0 132.181 2.76251 127.795 6.1708 125.822L119.353 60.4633V208.966C117.304 208.99 115.287 208.46 113.514 207.432Z" fill="#263238"/>
<path d="M116.07 196.391C117.756 197.241 119.618 197.683 121.505 197.683C123.393 197.683 125.255 197.241 126.941 196.391L340.856 72.8857C345.457 70.1949 345.457 65.8807 340.856 63.2259L233.889 1.47304C231.98 0.504655 229.869 0 227.728 0C225.586 0 223.475 0.504655 221.566 1.47304L6.1797 125.822C2.78935 127.786 2.78935 130.988 6.1797 132.943L116.07 196.391Z" fill="#455A64"/>
<path d="M126.456 183.951C128.271 184.875 130.277 185.357 132.313 185.357C134.349 185.357 136.356 184.875 138.17 183.951L322.227 77.6753C325.465 75.8097 325.465 72.7781 322.227 70.9125L221.619 12.828C219.804 11.9084 217.798 11.4292 215.763 11.4292C213.728 11.4292 211.721 11.9084 209.906 12.828L25.8311 119.095C22.6112 120.961 22.6112 124.001 25.8311 125.867L126.456 183.951Z" fill="#37474F"/>
<path d="M216.113 11.4468C218.033 11.4544 219.923 11.9284 221.62 12.828L322.227 70.9125C325.465 72.7781 325.465 75.8096 322.227 77.6752L302.297 89.1648L216.113 34.1298V11.4468Z" fill="#263238"/>
<path d="M209.834 17.2227C211.649 16.303 213.656 15.8238 215.691 15.8238C217.726 15.8238 219.732 16.303 221.548 17.2227L322.173 75.3071C322.747 75.6311 323.265 76.0461 323.707 76.5359C323.282 76.9901 322.789 77.3746 322.245 77.675L138.17 183.951C136.356 184.875 134.349 185.356 132.313 185.356C130.278 185.356 128.271 184.875 126.456 183.951L25.8312 125.866C25.2596 125.546 24.7445 125.134 24.3064 124.647C24.727 124.19 25.2174 123.802 25.7594 123.499L209.834 17.2227Z" fill="#FAFAFA"/>
<path d="M285.453 43.7448L267.623 33.4482C266.555 32.8293 266.501 31.8696 267.497 31.2956C268.081 31.0114 268.725 30.869 269.375 30.8799C270.024 30.8908 270.663 31.0547 271.237 31.3584L289.041 41.6281C290.108 42.247 290.162 43.2067 289.158 43.7897C288.579 44.0701 287.943 44.212 287.3 44.2043C286.657 44.1965 286.025 44.0392 285.453 43.7448Z" fill="#263238"/>
<path d="M254.842 26.0933C254.623 26.0193 254.433 25.8788 254.299 25.6913C254.165 25.5039 254.092 25.2791 254.092 25.0484C254.092 24.8178 254.165 24.5929 254.299 24.4055C254.433 24.2181 254.623 24.0775 254.842 24.0035C255.399 23.7249 256.013 23.5798 256.635 23.5798C257.258 23.5798 257.872 23.7249 258.429 24.0035C258.648 24.0775 258.837 24.2181 258.972 24.4055C259.106 24.5929 259.179 24.8178 259.179 25.0484C259.179 25.2791 259.106 25.5039 258.972 25.6913C258.837 25.8788 258.648 26.0193 258.429 26.0933C257.872 26.372 257.258 26.517 256.635 26.517C256.013 26.517 255.399 26.372 254.842 26.0933Z" fill="#263238"/>
<path d="M247.612 21.8957C247.394 21.8217 247.204 21.6811 247.07 21.4937C246.935 21.3062 246.863 21.0814 246.863 20.8508C246.863 20.6201 246.935 20.3953 247.07 20.2079C247.204 20.0204 247.394 19.8798 247.612 19.8058C248.169 19.5272 248.784 19.3822 249.406 19.3822C250.029 19.3822 250.643 19.5272 251.2 19.8058C251.419 19.8798 251.608 20.0204 251.743 20.2079C251.877 20.3953 251.949 20.6201 251.949 20.8508C251.949 21.0814 251.877 21.3062 251.743 21.4937C251.608 21.6811 251.419 21.8217 251.2 21.8957C250.643 22.1743 250.029 22.3194 249.406 22.3194C248.784 22.3194 248.169 22.1743 247.612 21.8957Z" fill="#263238"/>
<path d="M305.445 55.3059C305.227 55.2319 305.037 55.0913 304.903 54.9038C304.768 54.7164 304.696 54.4916 304.696 54.2609C304.696 54.0303 304.768 53.8055 304.903 53.618C305.037 53.4306 305.227 53.29 305.445 53.216C306.002 52.9374 306.617 52.7923 307.239 52.7923C307.862 52.7923 308.476 52.9374 309.033 53.216C309.252 53.29 309.441 53.4306 309.576 53.618C309.71 53.8055 309.782 54.0303 309.782 54.2609C309.782 54.4916 309.71 54.7164 309.576 54.9038C309.441 55.0913 309.252 55.2319 309.033 55.3059C308.476 55.5845 307.862 55.7295 307.239 55.7295C306.617 55.7295 306.002 55.5845 305.445 55.3059Z" fill="#263238"/>
<path d="M298.216 51.1263C297.998 51.0523 297.808 50.9117 297.674 50.7243C297.539 50.5369 297.467 50.312 297.467 50.0814C297.467 49.8507 297.539 49.6259 297.674 49.4385C297.808 49.251 297.998 49.1104 298.216 49.0365C298.773 48.7578 299.387 48.6128 300.01 48.6128C300.633 48.6128 301.247 48.7578 301.804 49.0365C302.022 49.1104 302.212 49.251 302.347 49.4385C302.481 49.6259 302.553 49.8507 302.553 50.0814C302.553 50.312 302.481 50.5369 302.347 50.7243C302.212 50.9117 302.022 51.0523 301.804 51.1263C301.247 51.4049 300.633 51.55 300.01 51.55C299.387 51.55 298.773 51.4049 298.216 51.1263Z" fill="#263238"/>
<path d="M121.963 154.272V154.639C121.979 154.978 122.076 155.309 122.244 155.603C122.412 155.898 122.648 156.148 122.932 156.335L143.875 168.425C144.179 168.575 144.513 168.653 144.852 168.653C145.191 168.653 145.526 168.575 145.83 168.425L180.514 148.424C180.796 148.237 181.031 147.986 181.199 147.691C181.368 147.397 181.465 147.067 181.482 146.729V146.343C181.466 146.004 181.37 145.674 181.201 145.379C181.033 145.085 180.797 144.834 180.514 144.648L159.571 132.557C159.267 132.407 158.932 132.329 158.593 132.329C158.254 132.329 157.919 132.407 157.615 132.557L122.932 152.577C122.648 152.763 122.412 153.013 122.244 153.308C122.076 153.603 121.979 153.933 121.963 154.272Z" fill="#2E8B8B"/>
<path d="M121.963 154.272V154.639C121.979 154.978 122.076 155.309 122.244 155.603C122.412 155.898 122.648 156.148 122.932 156.335L143.875 168.425C144.179 168.575 144.513 168.653 144.852 168.653C145.191 168.653 145.526 168.575 145.83 168.425L180.514 148.424C180.796 148.237 181.031 147.986 181.199 147.691C181.368 147.397 181.465 147.067 181.482 146.729V146.343C181.466 146.004 181.37 145.674 181.201 145.379C181.033 145.085 180.797 144.834 180.514 144.648L159.571 132.557C159.267 132.407 158.932 132.329 158.593 132.329C158.254 132.329 157.919 132.407 157.615 132.557L122.932 152.577C122.648 152.763 122.412 153.013 122.244 153.308C122.076 153.603 121.979 153.933 121.963 154.272Z" fill="#2E8B8B"/>
<path opacity="0.3" d="M180.514 144.648L159.571 132.557C159.267 132.407 158.932 132.329 158.593 132.329C158.254 132.329 157.919 132.407 157.615 132.557L144.861 139.93V168.631C145.201 168.636 145.537 168.556 145.839 168.398L180.514 148.424C180.796 148.237 181.031 147.986 181.199 147.691C181.368 147.397 181.465 147.067 181.482 146.729V146.343C181.466 146.004 181.37 145.674 181.201 145.379C181.033 145.085 180.797 144.834 180.514 144.648Z" fill="white"/>
<path opacity="0.15" d="M180.514 144.648L159.571 132.557C159.267 132.407 158.932 132.329 158.593 132.329C158.254 132.329 157.919 132.407 157.615 132.557L144.861 139.93V168.631C145.201 168.636 145.537 168.556 145.839 168.398L180.514 148.424C180.796 148.237 181.031 147.986 181.199 147.691C181.368 147.397 181.465 147.067 181.482 146.729V146.343C181.466 146.004 181.37 145.674 181.201 145.379C181.033 145.085 180.797 144.834 180.514 144.648Z" fill="black"/>
<path opacity="0.3" d="M144.852 139.93L122.932 152.576C122.648 152.763 122.412 153.013 122.244 153.308C122.076 153.603 121.979 153.933 121.963 154.272V154.639C121.979 154.978 122.076 155.309 122.244 155.603C122.412 155.898 122.648 156.148 122.932 156.335L143.875 168.425C144.176 168.584 144.512 168.664 144.852 168.658V139.93Z" fill="white"/>
<path opacity="0.2" d="M144.852 139.93L122.932 152.576C122.648 152.763 122.412 153.013 122.244 153.308C122.076 153.603 121.979 153.933 121.963 154.272V154.639C121.979 154.978 122.076 155.309 122.244 155.603C122.412 155.898 122.648 156.148 122.932 156.335L143.875 168.425C144.176 168.584 144.512 168.664 144.852 168.658V139.93Z" fill="black"/>
<path d="M140.52 163.86L122.932 153.742C122.815 153.7 122.715 153.623 122.644 153.522C122.573 153.421 122.535 153.301 122.535 153.177C122.535 153.054 122.573 152.933 122.644 152.832C122.715 152.731 122.815 152.654 122.932 152.612L157.606 132.593C157.91 132.443 158.245 132.365 158.584 132.365C158.923 132.365 159.258 132.443 159.562 132.593L180.514 144.648C180.63 144.69 180.73 144.766 180.801 144.868C180.872 144.969 180.91 145.089 180.91 145.213C180.91 145.336 180.872 145.457 180.801 145.558C180.73 145.659 180.63 145.736 180.514 145.778L174.756 149.096L172.746 150.262L145.839 165.797C145.536 165.952 145.201 166.033 144.861 166.033C144.521 166.033 144.186 165.952 143.884 165.797L142.179 164.81L140.52 163.86Z" fill="#2E8B8B"/>
<path opacity="0.3" d="M140.52 163.86L122.932 153.742C122.815 153.7 122.715 153.623 122.644 153.522C122.573 153.421 122.535 153.301 122.535 153.177C122.535 153.054 122.573 152.933 122.644 152.832C122.715 152.731 122.815 152.654 122.932 152.612L157.606 132.593C157.91 132.443 158.245 132.365 158.584 132.365C158.923 132.365 159.258 132.443 159.562 132.593L180.514 144.648C180.63 144.69 180.73 144.766 180.801 144.868C180.872 144.969 180.91 145.089 180.91 145.213C180.91 145.336 180.872 145.457 180.801 145.558C180.73 145.659 180.63 145.736 180.514 145.778L174.756 149.096L172.746 150.262L145.839 165.797C145.536 165.952 145.201 166.033 144.861 166.033C144.521 166.033 144.186 165.952 143.884 165.797L142.179 164.81L140.52 163.86Z" fill="white"/>
<path opacity="0.15" d="M156.485 146.989L180.514 144.648L156.71 145.993L159.571 132.539C159.24 132.375 158.873 132.298 158.503 132.315L154.019 150.478L122.546 153.079C122.546 153.208 122.584 153.333 122.654 153.442C122.724 153.55 122.823 153.635 122.941 153.689L148.359 152.218L144.861 166.012L149.346 152.155L153.687 151.904C154.217 151.874 154.721 151.662 155.113 151.303C155.48 150.97 155.734 150.531 155.84 150.047L156.485 146.989Z" fill="black"/>
<path opacity="0.3" d="M130.044 152.478L154.01 150.496L154.907 147.07L155.382 145.159L158.548 132.333C158.236 132.34 157.93 132.416 157.651 132.558L140.314 142.567L122.932 152.577C122.829 152.626 122.74 152.699 122.672 152.789C122.603 152.88 122.557 152.985 122.537 153.097L127.344 152.702L130.044 152.478Z" fill="white"/>
<path d="M154.62 129.696C155.848 129.073 157.207 128.748 158.584 128.748C159.962 128.748 161.32 129.073 162.549 129.696C164.737 130.961 164.737 133.006 162.549 134.27C161.32 134.894 159.962 135.218 158.584 135.218C157.207 135.218 155.848 134.894 154.62 134.27C152.431 133.006 152.431 130.961 154.62 129.696Z" fill="#F28F8F"/>
<path d="M155.813 132.736C155.755 132.731 155.7 132.713 155.651 132.683C155.634 132.669 155.621 132.651 155.613 132.63C155.605 132.61 155.603 132.588 155.606 132.566L155.938 131.131C155.938 131.131 155.938 131.05 155.938 130.997C155.959 130.941 156.001 130.896 156.055 130.871L156.862 130.405C156.914 130.375 156.973 130.359 157.032 130.36C157.095 130.358 157.157 130.374 157.212 130.405L161.463 132.853C161.485 132.86 161.505 132.873 161.519 132.892C161.533 132.911 161.54 132.933 161.54 132.956C161.54 132.979 161.533 133.002 161.519 133.021C161.505 133.039 161.485 133.053 161.463 133.059L160.566 133.562C160.507 133.576 160.446 133.576 160.387 133.562C160.328 133.577 160.266 133.577 160.207 133.562L157.337 131.902L157.149 132.692C157.149 132.737 157.104 132.763 157.05 132.79C156.989 132.809 156.923 132.809 156.862 132.79L155.813 132.736Z" fill="#FAFAFA"/>
<path d="M194.865 138.988L171.312 125.391C170.773 125.077 170.773 124.575 171.312 124.27L256.806 74.9395C257.106 74.7888 257.438 74.7103 257.774 74.7103C258.111 74.7103 258.442 74.7888 258.743 74.9395L282.305 88.5458C282.843 88.8507 282.843 89.353 282.305 89.6669L196.811 138.997C196.509 139.151 196.175 139.23 195.837 139.229C195.498 139.227 195.165 139.145 194.865 138.988Z" fill="#2E8B8B"/>
<path d="M190.38 123.624C190.306 123.666 190.223 123.688 190.138 123.687H189.949L185.052 123.131L187.949 124.808C187.971 124.817 187.989 124.832 188.002 124.851C188.014 124.87 188.021 124.892 188.021 124.915C188.021 124.938 188.014 124.961 188.002 124.98C187.989 124.999 187.971 125.014 187.949 125.023L187.375 125.355C187.314 125.374 187.248 125.374 187.187 125.355C187.126 125.374 187.06 125.374 186.999 125.355L182.451 122.736C182.397 122.736 182.371 122.664 182.371 122.619C182.373 122.596 182.382 122.574 182.396 122.555C182.411 122.536 182.43 122.521 182.451 122.512L182.945 122.225C183.018 122.183 183.102 122.161 183.187 122.162H183.384L188.281 122.718L185.375 121.041C185.354 121.032 185.336 121.017 185.323 120.998C185.31 120.979 185.303 120.956 185.303 120.933C185.303 120.91 185.31 120.888 185.323 120.868C185.336 120.849 185.354 120.834 185.375 120.825L185.949 120.494C186.008 120.464 186.072 120.449 186.138 120.449C186.203 120.447 186.268 120.462 186.326 120.494L190.873 123.122C190.902 123.122 190.929 123.133 190.949 123.153C190.97 123.173 190.981 123.201 190.981 123.229C190.981 123.258 190.97 123.285 190.949 123.305C190.929 123.325 190.902 123.337 190.873 123.337L190.38 123.624Z" fill="#FAFAFA"/>
<path d="M190.066 121.678C189.834 121.549 189.625 121.383 189.447 121.185C189.307 121.033 189.217 120.842 189.187 120.638C189.173 120.442 189.223 120.246 189.331 120.082C189.474 119.872 189.668 119.702 189.896 119.588C190.162 119.436 190.449 119.324 190.748 119.256C191.057 119.191 191.373 119.161 191.69 119.167C191.992 119.178 192.293 119.22 192.587 119.292C192.869 119.366 193.141 119.478 193.394 119.624L193.708 119.803C193.729 119.812 193.747 119.827 193.76 119.846C193.773 119.866 193.779 119.888 193.779 119.911C193.779 119.934 193.773 119.957 193.76 119.976C193.747 119.995 193.729 120.01 193.708 120.019L191.358 121.382C191.469 121.444 191.591 121.486 191.717 121.508C191.845 121.521 191.974 121.521 192.102 121.508C192.232 121.489 192.361 121.462 192.488 121.427C192.607 121.389 192.721 121.338 192.829 121.274C192.947 121.213 193.056 121.134 193.152 121.041C193.208 120.984 193.249 120.913 193.268 120.835C193.277 120.793 193.296 120.753 193.322 120.718C193.352 120.682 193.389 120.652 193.43 120.629L193.995 120.306C194.053 120.276 194.118 120.261 194.183 120.261C194.249 120.254 194.315 120.27 194.371 120.306C194.444 120.353 194.496 120.427 194.515 120.512C194.551 120.626 194.551 120.748 194.515 120.862C194.466 121.026 194.38 121.176 194.264 121.301C194.097 121.489 193.9 121.647 193.681 121.768C193.412 121.915 193.126 122.027 192.829 122.1C192.519 122.166 192.203 122.196 191.887 122.189C191.583 122.171 191.283 122.12 190.99 122.037C190.669 121.955 190.359 121.834 190.066 121.678ZM190.739 120.073C190.63 120.132 190.533 120.211 190.452 120.306C190.401 120.373 190.369 120.454 190.362 120.539C190.361 120.613 190.383 120.685 190.425 120.745C190.461 120.814 190.513 120.872 190.577 120.916L192.165 120.019C192.078 119.979 191.988 119.946 191.896 119.92C191.785 119.888 191.671 119.87 191.555 119.866C191.425 119.868 191.296 119.883 191.169 119.911C191.02 119.949 190.876 120.003 190.739 120.073Z" fill="#FAFAFA"/>
<path d="M198.112 117.444L196.739 115.911C196.713 115.883 196.694 115.849 196.685 115.812C196.685 115.812 196.685 115.74 196.766 115.704L197.295 115.391C197.357 115.36 197.424 115.345 197.493 115.346C197.558 115.346 197.623 115.361 197.681 115.391L199.869 117.875C199.894 117.907 199.913 117.944 199.923 117.983C199.923 117.983 199.923 118.054 199.843 118.099L199.304 118.404C199.245 118.44 199.176 118.456 199.107 118.449H198.919L196.363 117.758L197.555 119.238C197.58 119.27 197.599 119.307 197.609 119.346C197.609 119.346 197.609 119.418 197.529 119.454L196.999 119.768C196.94 119.803 196.871 119.818 196.802 119.812C196.74 119.822 196.676 119.822 196.614 119.812L192.308 118.557C192.308 118.557 192.308 118.557 192.255 118.557C192.226 118.557 192.199 118.545 192.179 118.525C192.158 118.505 192.147 118.478 192.147 118.449C192.147 118.42 192.158 118.393 192.179 118.373C192.199 118.353 192.226 118.341 192.255 118.341L192.784 118.027C192.843 117.992 192.912 117.977 192.981 117.983H193.152L195.797 118.772L194.461 117.22C194.454 117.205 194.451 117.188 194.451 117.171C194.451 117.154 194.454 117.137 194.461 117.122C194.46 117.098 194.466 117.075 194.479 117.056C194.492 117.036 194.511 117.022 194.533 117.014L195.071 116.7C195.133 116.685 195.197 116.685 195.259 116.7C195.319 116.69 195.379 116.69 195.439 116.7L198.112 117.444Z" fill="#FAFAFA"/>
<path d="M201.296 115.175C201.063 115.044 200.853 114.874 200.677 114.673C200.535 114.522 200.444 114.331 200.417 114.126C200.391 113.933 200.439 113.738 200.551 113.579C200.698 113.37 200.892 113.198 201.116 113.076C201.397 112.922 201.699 112.81 202.013 112.745C202.308 112.686 202.609 112.656 202.91 112.655C203.213 112.666 203.514 112.711 203.807 112.789C204.091 112.856 204.363 112.965 204.614 113.112L204.928 113.292C204.982 113.328 205.009 113.363 205.009 113.399C205.009 113.444 205.009 113.48 204.928 113.516L202.578 114.87C202.685 114.935 202.804 114.977 202.928 114.996C203.056 115.009 203.185 115.009 203.314 114.996C203.448 114.986 203.581 114.959 203.708 114.915C203.829 114.881 203.943 114.83 204.049 114.763C204.169 114.704 204.279 114.625 204.372 114.529C204.425 114.473 204.465 114.406 204.489 114.332C204.495 114.288 204.51 114.245 204.533 114.207C204.564 114.169 204.604 114.141 204.65 114.126L205.215 113.794C205.274 113.765 205.338 113.75 205.403 113.75C205.469 113.75 205.533 113.765 205.592 113.794C205.661 113.849 205.711 113.925 205.735 114.009C205.771 114.123 205.771 114.245 205.735 114.359C205.677 114.519 205.592 114.667 205.484 114.799C205.314 114.983 205.114 115.137 204.892 115.256C204.626 115.409 204.339 115.52 204.04 115.588C203.746 115.655 203.445 115.685 203.143 115.678C202.821 115.667 202.502 115.616 202.192 115.525C201.879 115.449 201.578 115.331 201.296 115.175ZM201.968 113.57C201.855 113.624 201.757 113.704 201.681 113.803C201.625 113.868 201.593 113.95 201.592 114.036C201.587 114.109 201.606 114.181 201.645 114.242C201.689 114.302 201.741 114.357 201.798 114.404L203.394 113.507C203.305 113.466 203.212 113.433 203.116 113.408C203.008 113.379 202.897 113.364 202.784 113.363C202.654 113.357 202.524 113.372 202.399 113.408C202.245 113.443 202.099 113.507 201.968 113.597V113.57Z" fill="#FAFAFA"/>
<path d="M204.955 111.382C204.934 111.234 204.97 111.083 205.054 110.96C205.151 110.813 205.284 110.693 205.439 110.61C205.715 110.447 206.02 110.337 206.336 110.287C206.634 110.245 206.936 110.245 207.233 110.287C207.216 110.199 207.216 110.107 207.233 110.018C207.249 109.92 207.282 109.826 207.332 109.74C207.384 109.647 207.451 109.562 207.529 109.489C207.615 109.411 207.708 109.342 207.807 109.283C208.054 109.137 208.324 109.034 208.606 108.978C208.865 108.927 209.131 108.912 209.395 108.933C209.655 108.958 209.911 109.015 210.157 109.103C210.396 109.191 210.627 109.299 210.848 109.426L212.749 110.521C212.77 110.531 212.788 110.547 212.8 110.567C212.812 110.587 212.818 110.609 212.818 110.633C212.818 110.656 212.812 110.679 212.8 110.698C212.788 110.718 212.77 110.734 212.749 110.745L212.211 111.05C212.153 111.079 212.088 111.095 212.023 111.095C211.954 111.096 211.887 111.08 211.826 111.05L209.969 109.973C209.711 109.814 209.419 109.719 209.117 109.695C208.871 109.695 208.63 109.76 208.417 109.884C208.339 109.917 208.27 109.97 208.218 110.038C208.167 110.105 208.133 110.185 208.121 110.269C208.121 110.413 208.247 110.583 208.543 110.763L210.435 111.857C210.464 111.857 210.491 111.868 210.511 111.888C210.532 111.909 210.543 111.936 210.543 111.965C210.543 111.993 210.532 112.021 210.511 112.041C210.491 112.061 210.464 112.072 210.435 112.072L209.897 112.386C209.839 112.418 209.774 112.433 209.709 112.431C209.643 112.431 209.579 112.416 209.52 112.386L207.664 111.31C207.409 111.144 207.115 111.048 206.812 111.032C206.565 111.022 206.321 111.087 206.112 111.22C206.031 111.253 205.96 111.307 205.906 111.376C205.853 111.445 205.818 111.528 205.807 111.615C205.807 111.767 205.951 111.938 206.274 112.117L208.13 113.184C208.15 113.197 208.167 113.214 208.18 113.234C208.192 113.254 208.2 113.277 208.202 113.301C208.2 113.324 208.192 113.345 208.18 113.364C208.167 113.383 208.15 113.398 208.13 113.409L207.592 113.714C207.534 113.743 207.469 113.758 207.404 113.758C207.338 113.758 207.274 113.743 207.215 113.714L203.933 111.821C203.904 111.821 203.877 111.81 203.857 111.79C203.836 111.769 203.825 111.742 203.825 111.713C203.825 111.685 203.836 111.658 203.857 111.637C203.877 111.617 203.904 111.606 203.933 111.606L204.471 111.292C204.528 111.26 204.593 111.245 204.659 111.247C204.725 111.247 204.789 111.262 204.847 111.292L204.955 111.382Z" fill="#FAFAFA"/>
<path d="M211.063 108.493C210.983 108.421 210.919 108.332 210.875 108.233C210.838 108.119 210.838 107.997 210.875 107.883C210.908 107.733 210.979 107.594 211.081 107.48C211.232 107.307 211.415 107.164 211.619 107.058C211.855 106.925 212.105 106.817 212.364 106.735C212.616 106.666 212.874 106.624 213.135 106.61C213.398 106.6 213.661 106.63 213.915 106.699C214.179 106.763 214.432 106.863 214.669 106.995L216.741 108.188C216.761 108.201 216.778 108.218 216.79 108.238C216.803 108.258 216.81 108.281 216.812 108.305C216.811 108.328 216.804 108.35 216.791 108.369C216.779 108.387 216.761 108.403 216.741 108.412L216.202 108.717C216.146 108.751 216.08 108.767 216.014 108.762C215.948 108.769 215.882 108.753 215.826 108.717L215.593 108.583C215.626 108.737 215.597 108.898 215.512 109.031C215.371 109.243 215.176 109.413 214.947 109.525C214.753 109.64 214.545 109.73 214.328 109.794C214.123 109.852 213.913 109.885 213.7 109.892C213.499 109.893 213.297 109.875 213.099 109.838C212.914 109.796 212.735 109.726 212.57 109.632C212.247 109.444 212.113 109.229 212.157 108.995C212.246 108.688 212.439 108.421 212.704 108.242L213.655 107.471C213.476 107.359 213.263 107.315 213.054 107.345C212.846 107.371 212.645 107.438 212.462 107.542C212.376 107.589 212.299 107.653 212.238 107.731C212.208 107.789 212.19 107.853 212.184 107.919C212.189 107.958 212.189 107.997 212.184 108.036C212.157 108.067 212.123 108.091 212.086 108.107L211.431 108.493C211.378 108.508 211.322 108.508 211.269 108.493C211.239 108.514 211.203 108.526 211.166 108.526C211.129 108.526 211.093 108.514 211.063 108.493ZM214.22 108.96C214.355 108.884 214.476 108.787 214.579 108.673C214.652 108.593 214.699 108.493 214.714 108.385C214.721 108.297 214.699 108.209 214.651 108.134C214.594 108.048 214.517 107.977 214.427 107.928L214.355 107.883L213.566 108.538C213.445 108.615 213.351 108.728 213.296 108.861C213.296 108.942 213.296 109.022 213.422 109.085C213.541 109.128 213.671 109.128 213.79 109.085C213.939 109.065 214.084 109.023 214.22 108.96Z" fill="#FAFAFA"/>
<path d="M213.601 104.412C213.66 104.383 213.724 104.368 213.79 104.368C213.855 104.368 213.92 104.383 213.978 104.412L214.525 104.726C214.547 104.735 214.566 104.75 214.58 104.769C214.594 104.788 214.603 104.81 214.606 104.834C214.606 104.878 214.606 104.914 214.525 104.95L213.924 105.3C213.866 105.33 213.801 105.345 213.736 105.345C213.667 105.346 213.6 105.33 213.539 105.3L212.991 104.977C212.97 104.968 212.952 104.953 212.939 104.934C212.926 104.915 212.92 104.893 212.92 104.869C212.92 104.846 212.926 104.824 212.939 104.805C212.952 104.786 212.97 104.771 212.991 104.762L213.601 104.412ZM218.561 107.103C218.615 107.103 218.642 107.175 218.642 107.219C218.642 107.264 218.642 107.291 218.561 107.327L218.023 107.632C217.965 107.663 217.9 107.678 217.835 107.677C217.769 107.682 217.703 107.666 217.646 107.632L214.364 105.74C214.343 105.73 214.326 105.715 214.313 105.696C214.3 105.677 214.293 105.655 214.292 105.632C214.291 105.609 214.297 105.585 214.31 105.566C214.323 105.547 214.342 105.532 214.364 105.524L214.902 105.21C214.96 105.181 215.025 105.165 215.09 105.165C215.156 105.163 215.221 105.179 215.279 105.21L218.561 107.103Z" fill="#FAFAFA"/>
<path d="M220.445 106.035C220.466 106.044 220.484 106.059 220.497 106.078C220.51 106.097 220.516 106.12 220.516 106.143C220.516 106.166 220.51 106.188 220.497 106.208C220.484 106.227 220.466 106.242 220.445 106.251L219.916 106.564C219.857 106.594 219.793 106.61 219.727 106.609C219.659 106.61 219.591 106.595 219.53 106.564L214.911 103.874C214.891 103.861 214.874 103.844 214.861 103.824C214.849 103.804 214.841 103.781 214.839 103.757C214.841 103.735 214.849 103.713 214.861 103.694C214.874 103.675 214.891 103.66 214.911 103.649L215.449 103.345C215.51 103.326 215.576 103.326 215.637 103.345C215.702 103.325 215.77 103.325 215.835 103.345L220.445 106.035Z" fill="#FAFAFA"/>
<path d="M192.524 127.409L262.286 87.1377C262.707 86.8924 263.179 86.7492 263.665 86.7196C264.151 86.69 264.637 86.7748 265.085 86.9673C265.775 87.3619 265.641 88.0884 264.789 88.5817L195.026 128.862C194.604 129.107 194.13 129.25 193.643 129.28C193.155 129.309 192.668 129.225 192.219 129.033C191.528 128.629 191.672 127.912 192.524 127.409Z" fill="#FAFAFA"/>
<path d="M197.421 130.244L267.183 89.9719C267.603 89.7258 268.075 89.5814 268.561 89.5502C269.047 89.5191 269.533 89.6021 269.982 89.7925C270.681 90.1961 270.538 90.9137 269.686 91.4159L199.923 131.688C199.502 131.934 199.028 132.078 198.541 132.109C198.053 132.14 197.566 132.057 197.116 131.867C196.434 131.463 196.569 130.737 197.421 130.244Z" fill="#FAFAFA"/>
</svg>
