<svg width="32" height="32" viewBox="0 0 32 32" fill="none" xmlns="http://www.w3.org/2000/svg">
<path d="M26.5865 20.2813C26.7419 19.8974 26.5567 19.4601 26.1727 19.3047C25.7888 19.1493 25.3515 19.3346 25.1961 19.7185L26.5865 20.2813ZM5.41347 11.7185C5.25805 12.1025 5.44331 12.5397 5.82726 12.6951C6.21121 12.8505 6.64845 12.6653 6.80387 12.2813L5.41347 11.7185ZM26.6666 15.9999H27.4166C27.4166 9.69467 22.3052 4.58325 16 4.58325V5.33325V6.08325C21.4768 6.08325 25.9166 10.5231 25.9166 15.9999H26.6666ZM5.33331 15.9999H4.58331C4.58331 22.3052 9.69473 27.4166 16 27.4166V26.6666V25.9166C10.5232 25.9166 6.08331 21.4767 6.08331 15.9999H5.33331ZM16 26.6666V27.4166C20.7924 27.4166 24.8934 24.4639 26.5865 20.2813L25.8913 19.9999L25.1961 19.7185C23.7244 23.3541 20.1605 25.9166 16 25.9166V26.6666ZM16 5.33325V4.58325C11.2075 4.58325 7.10653 7.53592 5.41347 11.7185L6.10867 11.9999L6.80387 12.2813C8.27554 8.6457 11.8394 6.08325 16 6.08325V5.33325Z" fill="#2E8B8B"/>
<path d="M18.6666 13.3333C18.6666 11.8606 17.4727 10.6667 16 10.6667C14.5272 10.6667 13.3333 11.8606 13.3333 13.3333C13.3333 14.8061 14.5272 16 16 16" stroke="#2E8B8B" stroke-width="1.5" stroke-linecap="round"/>
<path d="M16 15.9999C17.4727 15.9999 18.6666 17.1938 18.6666 18.6666C18.6666 20.1393 17.4727 21.3333 16 21.3333C14.5272 21.3333 13.3333 20.1393 13.3333 18.6666" stroke="#2E8B8B" stroke-width="1.5" stroke-linecap="round"/>
<path d="M16 8.66675V10.6667" stroke="#2E8B8B" stroke-width="1.5" stroke-linecap="round" stroke-linejoin="round"/>
<path d="M16 21.3333V23.3333" stroke="#2E8B8B" stroke-width="1.5" stroke-linecap="round" stroke-linejoin="round"/>
<path d="M24 14.6667L25.5611 15.4472C26.2387 15.786 27.0495 15.7129 27.6555 15.2584L29.3333 14" stroke="#2E8B8B" stroke-width="1.5" stroke-linecap="round" stroke-linejoin="round"/>
<path d="M2.66669 17.3333L4.22778 16.5528C4.90535 16.214 5.71617 16.2871 6.32221 16.7416L8.00002 18" stroke="#2E8B8B" stroke-width="1.5" stroke-linecap="round" stroke-linejoin="round"/>
</svg>
