<svg width="362" height="225" viewBox="0 0 362 225" fill="none" xmlns="http://www.w3.org/2000/svg">
<path d="M296.919 179.177C295.877 179.205 294.845 178.961 293.926 178.469L258.45 157.943C257.841 157.638 257.328 157.169 256.97 156.589C256.612 156.008 256.423 155.34 256.423 154.658C256.423 153.977 256.612 153.308 256.97 152.728C257.328 152.148 257.841 151.679 258.45 151.374L317.23 117.458C318.152 116.963 319.182 116.705 320.228 116.705C321.274 116.705 322.304 116.963 323.226 117.458L358.701 137.938C359.311 138.244 359.823 138.713 360.181 139.293C360.539 139.873 360.729 140.541 360.729 141.223C360.729 141.905 360.539 142.573 360.181 143.153C359.823 143.733 359.311 144.202 358.701 144.508L299.922 178.469C298.999 178.961 297.965 179.205 296.919 179.177Z" fill="#E0E0E0"/>
<path d="M222.365 224.082C217.891 224.097 213.43 223.589 209.073 222.567C204.993 221.632 201.05 220.177 197.341 218.238L197.26 218.193C196.543 217.79 195.629 217.243 194.446 216.508C193.262 215.773 192.205 215.083 191.04 214.321C189.874 213.559 188.763 212.815 187.741 212.107C186.719 211.399 185.85 210.79 185.241 210.315C182.39 208.17 180.056 205.413 178.411 202.248C176.784 199.053 176.279 195.404 176.977 191.887C177.829 188.116 179.687 184.646 182.355 181.848C185.115 178.756 188.987 175.915 194.186 173.163C199.437 170.316 204.997 168.081 210.758 166.503C215.666 165.163 220.721 164.437 225.807 164.343H226.255C230.662 164.319 235.051 164.889 239.305 166.037C243.308 167.144 247.177 168.689 250.841 170.644C252.245 171.427 253.76 172.35 255.385 173.414C257.034 174.49 258.415 175.458 259.598 176.372C261.581 177.729 263.172 179.584 264.214 181.75C265.023 183.537 265.299 185.519 265.011 187.459H265.406H265.657C267.265 187.437 268.838 187.937 270.138 188.884C270.972 189.461 271.625 190.262 272.023 191.195C272.421 192.127 272.548 193.153 272.388 194.154C272.139 195.706 271.773 197.237 271.294 198.734C270.572 200.87 269.466 202.857 268.032 204.596C266.28 206.73 264.286 208.652 262.089 210.324C254.68 215.85 246.27 219.889 237.325 222.218C232.534 223.398 227.622 224.021 222.688 224.073L222.365 224.082ZM219.219 193.706C219.381 193.823 219.56 193.948 219.766 194.074C221.159 195.032 222.759 195.646 224.436 195.866C224.723 195.866 225 195.911 225.26 195.911C225.913 195.918 226.562 195.812 227.178 195.597C227.035 195.49 226.874 195.382 226.694 195.266C225.282 194.293 223.667 193.652 221.971 193.392C221.698 193.357 221.422 193.339 221.146 193.339C220.488 193.348 219.835 193.472 219.219 193.706Z" fill="#E0E0E0"/>
<path d="M117.202 207.742L1.82173 141.272C-0.607243 139.874 -0.607243 137.597 1.82173 136.19L235.98 1.05502C237.345 0.361473 238.854 0 240.386 0C241.917 0 243.426 0.361473 244.791 1.05502L360.172 67.5157C362.609 68.9139 362.609 71.1995 360.172 72.5977L126.013 207.742C124.647 208.431 123.138 208.79 121.608 208.79C120.078 208.79 118.569 208.431 117.202 207.742Z" fill="#E0E0E0"/>
</svg>
