<svg width="6" height="5" viewBox="0 0 6 5" fill="none" xmlns="http://www.w3.org/2000/svg">
<mask id="mask0_0_10035" style="mask-type:luminance" maskUnits="userSpaceOnUse" x="0" y="0" width="6" height="5">
<rect y="0.00391367" width="5.99712" height="4.49784" transform="rotate(-0.0371605 0 0.00391367)" fill="white"/>
</mask>
<g mask="url(#mask0_0_10035)">
<path fill-rule="evenodd" clip-rule="evenodd" d="M0 0.00391367L5.99711 2.41073e-05L6.00003 4.49786L0.00291717 4.50175L0 0.00391367Z" fill="#E31D1C"/>
<path d="M5.99982 4.12318L6.00006 4.49779L0.00294867 4.50168L0.00270571 4.12707L5.99982 4.12318ZM5.99958 3.74856L0.00246275 3.75245L0.00221978 3.37784L5.99933 3.37395L5.99958 3.74856ZM5.99909 2.99824L0.0019761 3.00213L0.00173314 2.62751L5.99885 2.62362L5.99909 2.99824ZM5.9986 2.24901L0.00149018 2.2529L0.00124721 1.87829L5.99836 1.8744L5.9986 2.24901ZM5.99812 1.49978L0.00100425 1.50367L0.000760572 1.12796L5.99788 1.12407L5.99812 1.49978ZM5.99763 0.749458L0.000517608 0.753347L0.000274644 0.378733L5.99739 0.374844L5.99763 0.749458Z" fill="#F7FCFF"/>
<rect y="0.00391367" width="3.37338" height="2.62374" transform="rotate(-0.0371605 0 0.00391367)" fill="#2E42A5"/>
<path d="M2.92824 0.414642L3.12489 0.414515L2.97009 0.570613L3.02957 0.816655L2.83833 0.678359L2.67911 0.789418L2.74942 0.789372L2.59572 0.945469L2.64859 1.16405L2.76065 1.16398L2.83742 0.96289L2.92873 1.16387L3.12537 1.16374L2.97057 1.31984L3.03006 1.56588L2.83882 1.42759L2.67959 1.53865L2.7499 1.5386L2.5962 1.6958L2.64908 1.91438L2.76113 1.9143L2.8379 1.71322L2.92921 1.9142L3.12586 1.91407L2.97106 2.07017L3.03054 2.31621L2.8393 2.17791L2.64055 2.31646L2.7074 2.07034L2.53043 1.91445L2.61722 1.9144L2.46335 1.80354L2.30522 1.9146L2.37553 1.91455L2.22183 2.07065L2.28132 2.31669L2.08898 2.1784L1.89022 2.31695L1.95708 2.07082L1.7812 1.91494L1.86799 1.91488L1.71412 1.80403L1.5549 1.91509L1.62631 1.91504L1.47151 2.07114L1.53209 2.31718L1.33975 2.17888L1.141 2.31743L1.20785 2.07131L1.03088 1.91543L1.11876 1.91537L0.964892 1.80451L0.805671 1.91557L0.87598 1.91553L0.722281 2.07162L0.781763 2.31767L0.589423 2.17937L0.391769 2.31792L0.458623 2.0718L0.281651 1.91591L0.512352 1.91576L0.589122 1.71467L0.680434 1.91565L0.773812 1.91559L0.832994 1.69694L0.656021 1.53996L0.742809 1.5399L0.588937 1.43014L0.391283 1.56759L0.458136 1.32147L0.281165 1.16559L0.511865 1.16544L0.588635 0.964348L0.679947 1.16533L0.773326 1.16527L0.832507 0.946613L0.655535 0.79073L0.742323 0.790674L0.58845 0.679818L0.390797 0.818366L0.45765 0.572242L0.280679 0.41636L0.511379 0.41621L0.588149 0.215121L0.679461 0.416101L0.875007 0.415974L0.721308 0.572071L0.774181 0.790653L0.886236 0.790581L0.963006 0.589492L1.05432 0.790472L1.1477 0.790411L1.20688 0.571756L1.02991 0.415874L1.26061 0.415724L1.33848 0.214634L1.42869 0.415615L1.62533 0.415487L1.47054 0.571585L1.52451 0.790167L1.63546 0.790095L1.71333 0.589005L1.80355 0.789986L1.89692 0.789925L1.95611 0.57127L1.78023 0.415387L2.01093 0.415237L2.0877 0.214148L2.17792 0.415129L2.37456 0.415002L2.22086 0.571099L2.27373 0.789681L2.38579 0.789608L2.46256 0.588519L2.55387 0.789499L2.64725 0.789439L2.70643 0.570784L2.52946 0.414901L2.76016 0.414751L2.83693 0.213663L2.92824 0.414642ZM1.92927 1.53913L2.00068 1.53909L1.84698 1.69628L1.89985 1.91486L2.01191 1.91479L2.08867 1.7137L2.17889 1.91468L2.27337 1.91462L2.33255 1.69597L2.15557 1.53899L2.24236 1.53893L2.08849 1.42917L1.92927 1.53913ZM1.18004 1.53962L1.25145 1.53957L1.09665 1.69677L1.15062 1.91535L1.26158 1.91528L1.33945 1.71419L1.42966 1.91517L1.52304 1.91511L1.58222 1.69645L1.40635 1.53947L1.49313 1.53941L1.33926 1.42856L1.18004 1.53962ZM2.30474 1.16427L2.37505 1.16423L2.22135 1.32033L2.27422 1.53891L2.38628 1.53884L2.46305 1.33885L2.55436 1.53873L2.64774 1.53867L2.70692 1.32001L2.52995 1.16413L2.61673 1.16407L2.46286 1.05322L2.30474 1.16427ZM0.805184 1.16525L0.875493 1.1652L0.721794 1.3213L0.774667 1.53988L0.886722 1.53981L0.963492 1.33982L1.0548 1.5397L1.14818 1.53964L1.20736 1.32098L1.03039 1.1651L1.11828 1.16504L0.964406 1.05419L0.805184 1.16525ZM1.55441 1.16476L1.62582 1.16471L1.47102 1.32081L1.52499 1.53939L1.63595 1.53932L1.71382 1.33933L1.80403 1.53921L1.89741 1.53915L1.95659 1.3205L1.78072 1.16461L1.86751 1.16456L1.71363 1.0537L1.55441 1.16476ZM1.17956 0.79039L1.25096 0.790344L1.09616 0.946442L1.15014 1.16502L1.26109 1.16495L1.33896 0.963862L1.42917 1.16484L1.52255 1.16478L1.58173 0.946127L1.40586 0.790244L1.49265 0.790187L1.33878 0.679331L1.17956 0.79039ZM1.92878 0.789904L2.00019 0.789858L1.84649 0.945955L1.89936 1.16454L2.01142 1.16446L2.08819 0.963376L2.1784 1.16436L2.27288 1.1643L2.33206 0.94564L2.15509 0.789758L2.24188 0.789701L2.088 0.678845L1.92878 0.789904Z" fill="#F7FCFF"/>
</g>
</svg>
