<svg width="83" height="52" viewBox="0 0 83 52" fill="none" xmlns="http://www.w3.org/2000/svg">
<path d="M79.5807 27.1234L73.7054 30.514C73.7364 30.258 73.7544 30.0005 73.7592 29.7426V28.0383C73.7592 25.0065 71.6334 23.7777 69.0052 25.2936C67.88 25.979 66.9137 26.8964 66.1707 27.9845C65.7402 24.1723 62.7532 22.7551 59.1204 24.8451C57.0522 26.1956 55.3312 28.0144 54.0969 30.1541C52.8627 32.2938 52.1499 34.6941 52.0163 37.1607V39.7081C51.9898 40.7247 52.1953 41.7339 52.6173 42.6592L47.7377 45.4757C46.9596 45.984 46.3143 46.6708 45.8556 47.4791C45.3969 48.2873 45.138 49.1935 45.1006 50.1221C45.1006 51.7995 46.2846 52.4812 47.7377 51.638L79.5807 33.2588C80.3485 32.759 80.9875 32.085 81.4458 31.2916C81.904 30.4983 82.1685 29.608 82.2178 28.6931C82.2178 26.962 81.0428 26.2802 79.5807 27.1234Z" fill="#78D0CC"/>
<path d="M40.7321 11.5517L37.494 12.7985V5.62258C37.494 -0.0463725 33.0091 -1.40082 28.0756 1.43365C23.1691 4.25916 19.1955 11.148 19.1955 16.808V17.8305C18.5057 17.6185 17.7769 17.5656 17.0637 17.6759C16.3506 17.7863 15.6718 18.0569 15.0783 18.4674C13.2194 19.6813 11.6725 21.3159 10.5629 23.239C9.45336 25.162 8.81235 27.3193 8.69178 29.5362V30.0026L4.20686 32.6129C2.98261 33.4131 1.96388 34.4901 1.23305 35.757C0.502219 37.0239 0.079819 38.445 0 39.9054C0 42.5963 1.88366 43.6727 4.20686 42.3272L40.768 21.2212C41.9932 20.422 43.0127 19.3452 43.7437 18.0781C44.4746 16.811 44.8964 15.3894 44.9749 13.9287C44.939 11.2556 43.0553 10.1703 40.7321 11.5517Z" fill="#78D0CC"/>
</svg>
