<svg width="382" height="215" viewBox="0 0 382 215" fill="none" xmlns="http://www.w3.org/2000/svg">
<path d="M327.037 139.028L358.794 118.689L372.778 123.177L327.037 139.028Z" fill="#2E8B8B"/>
<path d="M327.037 139.028L354.485 116.139L348.382 109.093L327.037 139.028Z" fill="#2E8B8B"/>
<path d="M354.485 116.139V121.444L327.037 139.028L354.485 116.139Z" fill="#2E8B8B"/>
<path opacity="0.25" d="M354.485 116.139V121.444L327.037 139.028L354.485 116.139Z" fill="black"/>
<path d="M360.966 113.06C360.837 113.062 360.709 113.035 360.592 112.982C360.474 112.93 360.369 112.852 360.284 112.755C360.206 112.665 360.146 112.561 360.109 112.448C360.072 112.335 360.057 112.216 360.066 112.097C360.076 111.979 360.108 111.863 360.163 111.757C360.217 111.651 360.292 111.557 360.382 111.481C360.93 111.005 361.477 110.511 362.007 110.009C362.182 109.864 362.405 109.792 362.631 109.805C362.857 109.818 363.07 109.916 363.226 110.08C363.383 110.243 363.472 110.46 363.476 110.687C363.479 110.913 363.397 111.133 363.246 111.301C362.689 111.831 362.133 112.342 361.549 112.845C361.387 112.984 361.18 113.06 360.966 113.06Z" fill="#E0E0E0"/>
<path d="M365.714 108.357C365.496 108.357 365.285 108.277 365.122 108.133C364.943 107.975 364.835 107.754 364.82 107.517C364.804 107.279 364.884 107.046 365.041 106.867C365.939 105.79 366.899 104.65 367.734 103.474C367.804 103.379 367.892 103.299 367.993 103.238C368.094 103.178 368.206 103.137 368.323 103.12C368.44 103.102 368.559 103.108 368.673 103.136C368.788 103.165 368.895 103.216 368.99 103.286C369.085 103.356 369.165 103.444 369.226 103.545C369.287 103.646 369.327 103.758 369.345 103.875C369.362 103.992 369.357 104.111 369.328 104.225C369.3 104.34 369.249 104.447 369.179 104.542C368.281 105.763 367.33 106.939 366.36 108.052C366.279 108.144 366.18 108.219 366.069 108.272C365.958 108.324 365.837 108.353 365.714 108.357ZM370.974 101.248C370.809 101.247 370.648 101.2 370.507 101.114C370.407 101.051 370.32 100.97 370.251 100.874C370.182 100.778 370.133 100.669 370.107 100.554C370.08 100.439 370.076 100.32 370.096 100.203C370.115 100.087 370.157 99.975 370.22 99.8749C370.974 98.6631 371.71 97.3885 372.392 96.096C372.506 95.8911 372.696 95.7389 372.92 95.6719C373.145 95.6049 373.387 95.6284 373.594 95.7374C373.802 95.8465 373.958 96.0323 374.031 96.2553C374.103 96.4783 374.085 96.7207 373.981 96.9308C373.272 98.2682 372.518 99.5786 371.737 100.826C371.656 100.956 371.544 101.062 371.41 101.136C371.277 101.21 371.127 101.248 370.974 101.248ZM375.112 93.4302C374.988 93.4303 374.865 93.4027 374.753 93.3494C374.645 93.3017 374.548 93.2332 374.466 93.1478C374.385 93.0625 374.321 92.9619 374.278 92.8519C374.236 92.7418 374.215 92.6245 374.218 92.5065C374.221 92.3886 374.247 92.2724 374.295 92.1646C374.87 90.8451 375.426 89.4718 375.92 88.1164C376.005 87.899 376.172 87.7236 376.385 87.6274C376.598 87.5313 376.84 87.5219 377.06 87.6014C377.28 87.6809 377.46 87.8429 377.562 88.0531C377.664 88.2632 377.68 88.5049 377.607 88.7268C377.096 90.136 376.53 91.5362 375.929 92.8916C375.859 93.0508 375.745 93.1864 375.6 93.282C375.455 93.3775 375.286 93.429 375.112 93.4302ZM378.146 85.1095C378.063 85.1226 377.978 85.1226 377.894 85.1095C377.666 85.0428 377.473 84.8881 377.359 84.6794C377.244 84.4707 377.217 84.225 377.284 83.9965C377.688 82.6142 378.056 81.187 378.379 79.7688C378.405 79.651 378.454 79.5394 378.523 79.4404C378.592 79.3414 378.68 79.257 378.782 79.192C378.883 79.127 378.997 79.0826 379.116 79.0615C379.235 79.0403 379.356 79.0428 379.474 79.0687C379.592 79.0946 379.704 79.1435 379.803 79.2126C379.902 79.2817 379.986 79.3696 380.051 79.4712C380.116 79.5729 380.16 79.6864 380.182 79.8052C380.203 79.9241 380.2 80.0459 380.174 80.1638C379.842 81.6179 379.465 83.0809 379.052 84.4991C378.989 84.6865 378.867 84.8478 378.703 84.9582C378.539 85.0685 378.343 85.1217 378.146 85.1095ZM380.094 76.4747H379.95C379.833 76.4561 379.721 76.4147 379.62 76.3527C379.52 76.2907 379.432 76.2094 379.363 76.1135C379.294 76.0175 379.244 75.9089 379.217 75.7937C379.19 75.6786 379.186 75.5592 379.205 75.4424C379.429 74.0153 379.618 72.5612 379.752 71.1071C379.775 70.869 379.891 70.6497 380.076 70.4974C380.26 70.345 380.497 70.2722 380.735 70.2948C380.973 70.3174 381.193 70.4336 381.345 70.618C381.497 70.8023 381.57 71.0396 381.548 71.2776C381.404 72.7676 381.207 74.2666 380.973 75.7656C380.93 75.9667 380.819 76.1468 380.659 76.2759C380.499 76.405 380.299 76.4752 380.094 76.4747ZM380.928 67.6603C380.69 67.6603 380.462 67.5658 380.294 67.3974C380.125 67.2291 380.031 67.0008 380.031 66.7628C380.031 66.0716 380.031 65.3805 380.031 64.6893C380.031 63.9982 380.031 63.1634 380.031 62.3915C380.031 62.1534 380.125 61.9251 380.294 61.7568C380.462 61.5885 380.69 61.4939 380.928 61.4939C381.166 61.4939 381.395 61.5885 381.563 61.7568C381.731 61.9251 381.826 62.1534 381.826 62.3915C381.826 63.1814 381.826 63.9623 381.826 64.7521C381.826 65.542 381.826 66.1703 381.826 66.8794C381.801 67.1 381.696 67.3037 381.53 67.4512C381.365 67.5987 381.15 67.6796 380.928 67.6783V67.6603ZM380.614 58.8191C380.391 58.8202 380.175 58.738 380.009 58.5887C379.843 58.4393 379.739 58.2334 379.717 58.0113C379.564 56.5572 379.366 55.1031 379.115 53.6849C379.075 53.4468 379.13 53.2024 379.27 53.0055C379.41 52.8085 379.622 52.6752 379.86 52.6347C380.098 52.5942 380.343 52.65 380.54 52.7897C380.736 52.9294 380.87 53.1416 380.91 53.3797C381.171 54.8338 381.377 56.3328 381.53 57.8676C381.542 57.9849 381.531 58.1035 381.498 58.2166C381.464 58.3298 381.409 58.4352 381.335 58.5269C381.261 58.6186 381.169 58.6948 381.066 58.7511C380.962 58.8073 380.848 58.8427 380.731 58.855L380.614 58.8191ZM379.079 50.0945C378.875 50.101 378.675 50.0378 378.512 49.9154C378.349 49.7931 378.233 49.6188 378.182 49.4213C377.823 48.0031 377.41 46.6029 376.952 45.2385C376.905 45.125 376.881 45.0029 376.883 44.88C376.885 44.757 376.912 44.6357 376.963 44.5237C377.014 44.4116 377.087 44.3112 377.178 44.2286C377.269 44.1461 377.376 44.0831 377.493 44.0436C377.609 44.0042 377.733 43.9891 377.855 43.9993C377.978 44.0095 378.097 44.0448 378.205 44.103C378.314 44.1612 378.409 44.241 378.485 44.3375C378.561 44.434 378.617 44.5452 378.648 44.6641C379.124 46.0733 379.546 47.5184 379.923 48.9815C379.956 49.1159 379.958 49.2562 379.928 49.3914C379.898 49.5266 379.837 49.653 379.75 49.7608C379.664 49.8686 379.553 49.9548 379.427 50.0127C379.301 50.0706 379.164 50.0986 379.025 50.0945H379.079ZM376.225 41.711C376.05 41.7116 375.878 41.661 375.731 41.5653C375.585 41.4696 375.469 41.333 375.399 41.1725C374.825 39.8351 374.187 38.4797 373.505 37.259C373.386 37.0495 373.355 36.8013 373.419 36.569C373.483 36.3367 373.637 36.1393 373.846 36.0203C374.056 35.9013 374.304 35.8703 374.536 35.9343C374.769 35.9983 374.966 36.1519 375.085 36.3614C375.794 37.6719 376.449 39.0541 377.051 40.4185C377.143 40.6375 377.145 40.8844 377.056 41.1048C376.967 41.3253 376.794 41.5013 376.575 41.5943C376.469 41.6594 376.349 41.6993 376.225 41.711ZM372.033 33.9289C371.884 33.9296 371.737 33.8931 371.605 33.8225C371.473 33.752 371.361 33.6497 371.279 33.525C370.495 32.3015 369.651 31.1181 368.748 29.9795C368.674 29.8871 368.619 29.781 368.586 29.6673C368.553 29.5536 368.543 29.4345 368.556 29.3168C368.57 29.1992 368.606 29.0854 368.664 28.9819C368.721 28.8784 368.799 28.7873 368.892 28.7139C369.078 28.5671 369.314 28.4999 369.55 28.5268C369.785 28.5537 370 28.6726 370.148 28.8575C371.046 30.0154 371.943 31.2451 372.841 32.5017C372.93 32.6367 372.981 32.7932 372.988 32.9547C372.995 33.1162 372.959 33.2766 372.883 33.4191C372.806 33.5616 372.693 33.6809 372.555 33.7643C372.416 33.8477 372.258 33.8922 372.096 33.893L372.033 33.9289ZM366.504 27.0175C366.383 27.017 366.264 26.9921 366.152 26.9443C366.041 26.8965 365.941 26.8267 365.858 26.7392C364.87 25.707 363.82 24.6837 362.725 23.7054C362.548 23.5447 362.442 23.3201 362.43 23.0811C362.418 22.8421 362.502 22.6081 362.662 22.4308C362.823 22.2534 363.048 22.1472 363.287 22.1354C363.526 22.1236 363.76 22.2073 363.937 22.3679C365.059 23.3822 366.145 24.4414 367.159 25.5005C367.281 25.6281 367.362 25.7885 367.393 25.9619C367.424 26.1354 367.403 26.3141 367.334 26.4758C367.264 26.6376 367.148 26.7752 367 26.8715C366.853 26.9678 366.68 27.0186 366.504 27.0175ZM359.943 21.0754C359.742 21.0735 359.547 21.0074 359.386 20.8869C358.264 19.9893 357.079 19.0917 355.877 18.2839C355.768 18.2228 355.673 18.1397 355.598 18.0398C355.523 17.94 355.47 17.8256 355.442 17.7041C355.413 17.5825 355.411 17.4564 355.434 17.3338C355.458 17.2112 355.506 17.0948 355.577 16.992C355.648 16.8892 355.739 16.8024 355.845 16.7369C355.952 16.6715 356.071 16.629 356.194 16.612C356.318 16.5951 356.444 16.6041 356.564 16.6385C356.684 16.6729 356.795 16.732 356.891 16.8119C358.138 17.7095 359.35 18.607 360.481 19.5046C360.668 19.6514 360.788 19.866 360.817 20.1015C360.845 20.3369 360.78 20.5741 360.634 20.7613C360.552 20.8575 360.45 20.9353 360.335 20.9894C360.221 21.0436 360.096 21.0729 359.97 21.0754H359.943ZM352.672 16.031C352.507 16.0298 352.346 15.9833 352.205 15.8963C350.976 15.1513 349.701 14.4153 348.409 13.7152C348.216 13.5945 348.076 13.4052 348.017 13.1855C347.959 12.9658 347.986 12.732 348.093 12.5314C348.2 12.3308 348.379 12.1784 348.595 12.1049C348.81 12.0314 349.045 12.0423 349.252 12.1354C350.581 12.8535 351.891 13.5985 353.139 14.3704C353.304 14.473 353.432 14.6265 353.503 14.808C353.573 14.9894 353.583 15.1889 353.53 15.3763C353.478 15.5637 353.365 15.7289 353.211 15.847C353.056 15.9651 352.867 16.0296 352.672 16.031ZM344.881 11.8213C344.747 11.8205 344.615 11.7898 344.495 11.7315C343.185 11.1122 341.802 10.5108 340.492 9.93632C340.383 9.89094 340.284 9.82453 340.2 9.74088C340.117 9.65723 340.051 9.55797 340.006 9.44879C339.961 9.3396 339.938 9.22262 339.938 9.10452C339.938 8.98642 339.962 8.86951 340.007 8.76048C340.053 8.65145 340.119 8.55242 340.203 8.46906C340.286 8.38569 340.386 8.31962 340.495 8.27461C340.604 8.2296 340.721 8.20654 340.839 8.20674C340.957 8.20694 341.074 8.2304 341.183 8.27578C342.556 8.85024 343.93 9.46958 345.267 10.071C345.45 10.1593 345.597 10.3068 345.685 10.4895C345.773 10.6722 345.796 10.8792 345.751 11.0769C345.707 11.2747 345.596 11.4514 345.438 11.5784C345.28 11.7054 345.084 11.7752 344.881 11.7764V11.8213ZM254.224 9.59524C254.01 9.59916 253.8 9.52586 253.635 9.38866C253.47 9.25146 253.359 9.05946 253.323 8.84757C253.287 8.63567 253.329 8.41795 253.44 8.23396C253.551 8.04997 253.724 7.91193 253.928 7.84494C255.329 7.34229 256.747 6.86657 258.147 6.41777C258.261 6.37245 258.384 6.35108 258.506 6.35499C258.629 6.3589 258.75 6.38801 258.861 6.44052C258.972 6.49302 259.072 6.56779 259.153 6.66021C259.234 6.75262 259.295 6.8607 259.333 6.97775C259.37 7.09479 259.383 7.21831 259.371 7.34064C259.359 7.46298 259.322 7.58151 259.262 7.68891C259.202 7.7963 259.121 7.89026 259.023 7.96497C258.926 8.03967 258.814 8.09353 258.694 8.12319C257.321 8.56301 255.921 9.02078 254.53 9.54138C254.446 9.57216 254.358 9.59031 254.269 9.59524H254.224ZM336.731 8.43735C336.626 8.43815 336.522 8.41674 336.426 8.37452C335.079 7.88084 333.679 7.40512 332.27 6.95632C332.149 6.92927 332.034 6.87727 331.934 6.8036C331.833 6.72994 331.75 6.63624 331.687 6.52844C331.625 6.42064 331.586 6.3011 331.573 6.1774C331.559 6.05371 331.572 5.92856 331.609 5.80991C331.647 5.69126 331.708 5.5817 331.79 5.48818C331.873 5.39465 331.973 5.31921 332.086 5.26665C332.199 5.21408 332.321 5.18554 332.446 5.18283C332.57 5.18012 332.694 5.2033 332.809 5.2509C334.245 5.70868 335.672 6.19337 337.045 6.69602C337.269 6.76827 337.455 6.9253 337.564 7.1334C337.673 7.34149 337.696 7.58407 337.629 7.80903C337.569 7.99817 337.449 8.16237 337.287 8.27603C337.124 8.38969 336.929 8.44641 336.731 8.43735ZM262.698 6.91144C262.58 6.92795 262.46 6.92107 262.345 6.89121C262.229 6.86135 262.121 6.80908 262.026 6.7374C261.931 6.66572 261.851 6.57603 261.791 6.47345C261.731 6.37086 261.691 6.25739 261.674 6.13952C261.658 6.02164 261.665 5.90168 261.695 5.78646C261.725 5.67124 261.777 5.56304 261.849 5.46802C261.92 5.373 262.01 5.29303 262.112 5.23268C262.215 5.17232 262.329 5.13277 262.446 5.11626C263.856 4.71235 265.31 4.32638 266.755 3.95837C266.982 3.91141 267.219 3.95427 267.415 4.07796C267.611 4.20165 267.752 4.39656 267.808 4.6218C267.864 4.84705 267.83 5.08512 267.714 5.28609C267.598 5.48705 267.409 5.63529 267.186 5.6997C265.759 6.05874 264.331 6.4447 262.94 6.83964C262.865 6.86379 262.786 6.8759 262.707 6.87554L262.698 6.91144ZM328.303 5.74458C328.225 5.75389 328.147 5.75389 328.069 5.74458C326.678 5.36759 325.251 5.00856 323.806 4.67645C323.568 4.62407 323.36 4.47928 323.229 4.27391C323.098 4.06855 323.053 3.81944 323.106 3.58139C323.158 3.34333 323.303 3.13583 323.508 3.00453C323.713 2.87323 323.963 2.82889 324.201 2.88127C325.673 3.22235 327.127 3.58139 328.536 3.96735C328.774 3.9983 328.99 4.12254 329.136 4.31276C329.283 4.50297 329.348 4.74357 329.317 4.98163C329.286 5.21968 329.162 5.43569 328.971 5.58214C328.781 5.72859 328.541 5.79348 328.303 5.76253V5.74458ZM271.297 4.72133C271.059 4.74632 270.82 4.67573 270.634 4.52507C270.448 4.37441 270.33 4.15604 270.305 3.91798C270.28 3.67993 270.35 3.44169 270.501 3.25568C270.652 3.06968 270.87 2.95114 271.108 2.92615C272.553 2.61199 274.025 2.32476 275.47 2.02856C275.588 2.00734 275.709 2.00955 275.826 2.03505C275.943 2.06056 276.054 2.10886 276.152 2.17721C276.251 2.24556 276.335 2.3326 276.399 2.43339C276.464 2.53417 276.508 2.64671 276.53 2.76458C276.551 2.88245 276.549 3.00335 276.523 3.12037C276.498 3.23739 276.449 3.34824 276.381 3.44659C276.313 3.54494 276.226 3.62887 276.125 3.69358C276.024 3.75829 275.911 3.80252 275.794 3.82374C274.366 4.08404 272.912 4.37127 271.485 4.72133H271.297ZM319.677 3.75193H319.506C318.097 3.48265 316.634 3.2403 315.171 3.03386C315.054 3.01632 314.942 2.97592 314.841 2.91497C314.74 2.85402 314.652 2.77372 314.582 2.67867C314.512 2.58362 314.461 2.47568 314.433 2.36104C314.404 2.2464 314.399 2.12732 314.417 2.0106C314.452 1.77658 314.579 1.56606 314.769 1.42485C314.959 1.28364 315.197 1.22318 315.431 1.25663C316.921 1.47205 318.402 1.7144 319.838 1.98368C320.076 2.0051 320.296 2.12022 320.449 2.3037C320.603 2.48718 320.677 2.72399 320.655 2.96205C320.634 3.20011 320.519 3.4199 320.335 3.57308C320.152 3.72626 319.915 3.80028 319.677 3.77886V3.75193ZM280.003 3.14157C279.765 3.15942 279.53 3.08197 279.349 2.92627C279.168 2.77056 279.056 2.54935 279.038 2.3113C279.021 2.07324 279.098 1.83784 279.254 1.65689C279.409 1.47593 279.631 1.36424 279.869 1.34639C281.341 1.13096 282.831 0.942472 284.294 0.780906C284.412 0.76794 284.531 0.778316 284.645 0.811445C284.759 0.844574 284.865 0.899807 284.957 0.973987C285.05 1.04817 285.127 1.13985 285.184 1.24378C285.241 1.34772 285.277 1.46189 285.29 1.57976C285.303 1.69763 285.293 1.81691 285.26 1.93077C285.226 2.04463 285.171 2.15085 285.097 2.24337C285.023 2.33589 284.931 2.41289 284.827 2.46998C284.723 2.52706 284.609 2.56312 284.491 2.57609C283.046 2.73765 281.583 2.92614 280.129 3.14157H280.003ZM310.898 2.47735H310.809C309.372 2.32476 307.9 2.1991 306.428 2.10036C306.31 2.09239 306.195 2.06119 306.089 2.00856C305.983 1.95592 305.889 1.88288 305.811 1.79364C305.734 1.70439 305.675 1.6007 305.637 1.48852C305.6 1.37634 305.585 1.25787 305.594 1.13994C305.602 1.02197 305.633 0.906728 305.685 0.800847C305.738 0.694967 305.811 0.600531 305.9 0.522963C305.99 0.445395 306.093 0.386225 306.205 0.348851C306.318 0.311477 306.436 0.296635 306.554 0.305181C308.053 0.412892 309.543 0.538556 310.997 0.700123C311.114 0.71244 311.228 0.747754 311.332 0.804052C311.435 0.860351 311.527 0.936527 311.601 1.02822C311.675 1.11992 311.731 1.22534 311.764 1.33846C311.798 1.45158 311.808 1.57018 311.796 1.68747C311.769 1.9064 311.663 2.10793 311.498 2.25362C311.332 2.3993 311.119 2.47894 310.898 2.47735ZM288.791 2.15422C288.565 2.15494 288.346 2.07029 288.18 1.9172C288.014 1.7641 287.911 1.55383 287.893 1.32844C287.883 1.21049 287.897 1.09176 287.933 0.979092C287.969 0.866423 288.028 0.762034 288.104 0.671936C288.181 0.581838 288.275 0.507809 288.38 0.454109C288.486 0.400409 288.601 0.368098 288.719 0.359037C290.209 0.251327 291.699 0.161567 293.207 0.0987355C293.445 0.0987355 293.673 0.193302 293.842 0.361633C294.01 0.529964 294.104 0.75827 294.104 0.996326C294.104 1.23438 294.01 1.46269 293.842 1.63102C293.673 1.79935 293.445 1.89392 293.207 1.89392C291.762 1.95675 290.281 2.04651 288.818 2.15422H288.791ZM302.066 1.85801C300.782 1.85801 299.49 1.79518 298.224 1.79518H297.668C297.43 1.79518 297.201 1.70061 297.033 1.53228C296.865 1.36395 296.77 1.13565 296.77 0.89759C296.77 0.659534 296.865 0.431232 297.033 0.262901C297.201 0.09457 297.43 0 297.668 0H298.233C299.517 0 300.827 -2.7419e-07 302.129 0.062831C302.367 0.062831 302.595 0.157401 302.764 0.325732C302.932 0.494063 303.026 0.722365 303.026 0.960421C303.026 1.19848 302.932 1.42678 302.764 1.59511C302.595 1.76344 302.367 1.85801 302.129 1.85801H302.066Z" fill="#78D0CC"/>
<path d="M247.968 12.0278C247.762 12.0254 247.563 11.9522 247.405 11.8205C247.247 11.6888 247.138 11.5066 247.098 11.3046C247.058 11.1025 247.089 10.8928 247.185 10.7107C247.282 10.5286 247.438 10.3852 247.627 10.3045L249.719 9.40687C249.829 9.36339 249.946 9.34214 250.065 9.34435C250.183 9.34655 250.3 9.37218 250.408 9.41974C250.517 9.46729 250.615 9.53585 250.697 9.62145C250.779 9.70705 250.843 9.808 250.885 9.91849C250.929 10.0287 250.95 10.1463 250.948 10.2648C250.946 10.3832 250.92 10.5 250.873 10.6084C250.825 10.7169 250.756 10.8149 250.671 10.8967C250.585 10.9786 250.484 11.0427 250.374 11.0854L248.309 11.9201C248.203 11.9773 248.088 12.0138 247.968 12.0278Z" fill="#78D0CC"/>
<path d="M48.1018 93.8523L89.382 73.6206L59.6179 101.931L48.1018 93.8523Z" fill="#2E8B8B"/>
<path d="M89.382 73.6206L43.8652 88.5924L32.3671 80.5141L89.382 73.6206Z" fill="#2E8B8B"/>
<path d="M43.8653 88.5925L45.6695 100.153L48.102 93.8523L89.3821 73.6206L43.8653 88.5925Z" fill="#2E8B8B"/>
<path opacity="0.25" d="M43.8653 88.5925L45.6695 100.153L48.102 93.8523L89.3821 73.6206L43.8653 88.5925Z" fill="black"/>
<path d="M45.6694 100.153L51.9436 96.5451L48.1019 93.8523L45.6694 100.153Z" fill="#2E8B8B"/>
<path opacity="0.25" d="M48.1018 93.8523L51.9435 96.5451L50.9382 97.1195L48.1018 93.8523Z" fill="black"/>
<path d="M51.2075 215C51.1034 215 51.0002 214.982 50.9023 214.946C49.4482 214.425 48.03 213.887 46.6747 213.357C46.4533 213.269 46.276 213.097 46.1817 212.878C46.0874 212.659 46.084 212.412 46.172 212.19C46.2601 211.969 46.4325 211.792 46.6514 211.697C46.8702 211.603 47.1175 211.6 47.3389 211.688C48.6673 212.208 50.0317 212.738 51.5127 213.259C51.711 213.331 51.8777 213.47 51.9834 213.653C52.089 213.835 52.127 214.049 52.0906 214.257C52.0541 214.465 51.9457 214.653 51.7842 214.789C51.6227 214.925 51.4185 215 51.2075 215ZM42.8689 211.688C42.7456 211.689 42.6233 211.664 42.5099 211.616C41.1096 210.997 39.7363 210.359 38.4079 209.713C38.1936 209.608 38.0298 209.423 37.9523 209.197C37.8749 208.972 37.8902 208.725 37.995 208.51C38.0997 208.296 38.2853 208.132 38.5109 208.055C38.7364 207.977 38.9835 207.993 39.1978 208.097C40.4993 208.735 41.8905 209.363 43.2369 209.973C43.4231 210.058 43.5748 210.204 43.6667 210.387C43.7586 210.57 43.7853 210.779 43.7424 210.979C43.6994 211.179 43.5894 211.358 43.4306 211.487C43.2717 211.616 43.0735 211.687 42.8689 211.688ZM34.7906 207.738C34.6402 207.739 34.4921 207.702 34.3597 207.631C33.0223 206.895 31.667 206.132 30.4373 205.351C30.2747 205.214 30.1658 205.025 30.1298 204.816C30.0938 204.606 30.1331 204.391 30.2407 204.208C30.3483 204.025 30.5173 203.886 30.7176 203.816C30.9179 203.746 31.1366 203.749 31.3349 203.825C32.5735 204.588 33.8661 205.333 35.1766 206.051C35.3527 206.146 35.492 206.297 35.5724 206.481C35.6527 206.664 35.6695 206.869 35.6199 207.063C35.5704 207.257 35.4575 207.429 35.2991 207.551C35.1407 207.673 34.9459 207.739 34.7457 207.738H34.7906ZM27.1611 203.026C26.9781 203.026 26.7995 202.969 26.6495 202.864C25.3928 201.967 24.1721 201.069 23.0052 200.172C22.8136 200.018 22.6908 199.795 22.6639 199.551C22.6369 199.307 22.7081 199.062 22.8616 198.87C23.0152 198.679 23.2385 198.556 23.4826 198.529C23.7267 198.502 23.9715 198.573 24.1631 198.727C25.2941 199.624 26.4879 200.522 27.7535 201.366C27.91 201.475 28.0276 201.631 28.0892 201.812C28.1508 201.992 28.1533 202.188 28.0963 202.37C28.0393 202.552 27.9257 202.711 27.772 202.824C27.6184 202.937 27.4327 202.999 27.2419 202.999L27.1611 203.026ZM20.1509 197.443C19.9284 197.442 19.7141 197.359 19.5495 197.21C18.4185 196.177 17.3325 195.109 16.3092 194.014C16.1656 193.839 16.0939 193.615 16.1085 193.389C16.123 193.162 16.2228 192.95 16.3878 192.794C16.5527 192.638 16.7705 192.55 16.9974 192.549C17.2243 192.547 17.4435 192.631 17.6107 192.785C18.607 193.844 19.6662 194.885 20.7613 195.881C20.8958 196.003 20.99 196.164 21.0315 196.341C21.0729 196.518 21.0597 196.703 20.9936 196.872C20.9274 197.041 20.8114 197.187 20.661 197.289C20.5105 197.391 20.3326 197.444 20.1509 197.443ZM14.0114 190.927C13.8766 190.926 13.7436 190.895 13.6224 190.836C13.5012 190.777 13.3949 190.691 13.3113 190.585C12.3598 189.41 11.4533 188.18 10.6185 186.923C10.5525 186.825 10.5064 186.716 10.4828 186.6C10.4593 186.484 10.4588 186.365 10.4813 186.249C10.5038 186.133 10.5489 186.023 10.614 185.925C10.6791 185.826 10.763 185.742 10.8608 185.676C10.9587 185.61 11.0686 185.564 11.1842 185.54C11.2998 185.516 11.419 185.516 11.5349 185.538C11.6507 185.561 11.761 185.606 11.8594 185.671C11.9579 185.736 12.0425 185.82 12.1085 185.918C12.9253 187.13 13.8139 188.324 14.7295 189.508C14.8772 189.693 14.946 189.929 14.9208 190.164C14.8956 190.4 14.7784 190.616 14.5948 190.765C14.4348 190.877 14.2425 190.934 14.0473 190.927H14.0114ZM8.98488 183.512C8.82583 183.512 8.66971 183.47 8.53249 183.389C8.39528 183.309 8.28191 183.193 8.20398 183.055C7.46795 181.744 6.76783 180.362 6.13054 178.998C6.08104 178.89 6.05314 178.774 6.04845 178.656C6.04376 178.538 6.06237 178.42 6.10321 178.31C6.14405 178.199 6.20632 178.097 6.28648 178.01C6.36663 177.923 6.46309 177.853 6.57036 177.804C6.67762 177.754 6.79359 177.726 6.91164 177.722C7.02968 177.717 7.14749 177.736 7.25835 177.776C7.48223 177.859 7.66417 178.027 7.76416 178.244C8.37452 179.581 9.05668 180.936 9.76578 182.166C9.82476 182.269 9.86274 182.383 9.87751 182.5C9.89229 182.618 9.88356 182.738 9.85184 182.852C9.82012 182.966 9.76603 183.073 9.69272 183.167C9.6194 183.26 9.5283 183.338 9.4247 183.396C9.30056 183.465 9.16249 183.504 9.02078 183.512H8.98488ZM5.26886 175.389C5.08546 175.39 4.90628 175.334 4.75543 175.23C4.60458 175.126 4.48931 174.978 4.42512 174.806C3.90452 173.406 3.4288 171.951 3.00693 170.479C2.96725 170.364 2.95144 170.242 2.96047 170.121C2.9695 169.999 3.00318 169.881 3.05946 169.773C3.11574 169.665 3.19343 169.569 3.28781 169.492C3.38219 169.415 3.49127 169.358 3.60841 169.324C3.72556 169.291 3.84831 169.281 3.96918 169.297C4.09006 169.312 4.20653 169.352 4.31149 169.414C4.41646 169.476 4.50773 169.558 4.57973 169.657C4.65173 169.755 4.70296 169.867 4.7303 169.986C5.14319 171.413 5.62789 172.822 6.10362 174.186C6.18491 174.409 6.17485 174.655 6.07564 174.87C5.97642 175.085 5.79611 175.253 5.57404 175.335C5.4762 175.371 5.37294 175.389 5.26886 175.389ZM2.76458 166.781C2.55585 166.786 2.35203 166.718 2.1882 166.588C2.02437 166.459 1.91078 166.276 1.86699 166.072C1.55283 164.627 1.2656 163.128 1.03223 161.584C0.996037 161.35 1.05408 161.111 1.19367 160.919C1.33326 160.727 1.54306 160.599 1.77723 160.561C1.89397 160.542 2.01334 160.546 2.1285 160.573C2.24366 160.6 2.35233 160.65 2.44826 160.719C2.54419 160.788 2.62549 160.876 2.68747 160.976C2.74946 161.077 2.79092 161.189 2.80946 161.306C3.03386 162.787 3.31211 164.25 3.61729 165.668C3.66808 165.9 3.6248 166.143 3.49693 166.343C3.36906 166.544 3.16703 166.685 2.93512 166.736C2.87953 166.752 2.82229 166.761 2.76458 166.763V166.781ZM1.36434 157.922C1.14105 157.923 0.925358 157.841 0.759386 157.692C0.593413 157.542 0.489074 157.336 0.466747 157.114C0.314157 155.669 0.188494 154.152 0.0987355 152.626C0.0864786 152.39 0.168306 152.158 0.326369 151.981C0.484432 151.805 0.705905 151.698 0.942472 151.684C1.06039 151.677 1.17859 151.693 1.29029 151.731C1.40199 151.77 1.50499 151.83 1.59338 151.908C1.68178 151.987 1.75382 152.082 1.8054 152.188C1.85697 152.294 1.88705 152.41 1.89392 152.528C1.98367 154.045 2.10036 155.535 2.25295 156.962C2.27556 157.197 2.20432 157.432 2.05474 157.615C1.90515 157.798 1.6893 157.915 1.4541 157.94L1.36434 157.922ZM0.89759 148.946C0.659534 148.946 0.431232 148.852 0.262901 148.683C0.09457 148.515 0 148.287 0 148.049C0 146.541 0.116689 145.006 0.26928 143.498C0.280493 143.38 0.315004 143.265 0.370819 143.16C0.426635 143.056 0.502647 142.963 0.59446 142.888C0.686274 142.813 0.792069 142.757 0.905726 142.723C1.01938 142.689 1.13865 142.678 1.25663 142.69C1.37394 142.702 1.48766 142.738 1.59131 142.794C1.69496 142.85 1.7865 142.926 1.86069 143.018C1.93488 143.11 1.99028 143.215 2.0237 143.328C2.05712 143.441 2.06792 143.56 2.05548 143.677C1.91187 145.14 1.82211 146.621 1.79518 148.085C1.7859 148.316 1.68725 148.536 1.51992 148.696C1.35258 148.857 1.12955 148.946 0.89759 148.946ZM1.79518 140.024H1.63361C1.40073 139.981 1.19455 139.847 1.06004 139.652C0.92552 139.457 0.873579 139.216 0.915542 138.983C1.18482 137.493 1.5259 136.003 1.91187 134.495C1.94303 134.381 1.99632 134.275 2.06869 134.182C2.14105 134.088 2.23108 134.01 2.33362 133.952C2.43616 133.894 2.5492 133.856 2.66628 133.841C2.78335 133.827 2.90215 133.835 3.0159 133.867C3.24372 133.93 3.43749 134.08 3.55512 134.285C3.67276 134.49 3.70478 134.733 3.64422 134.962C3.26723 136.38 2.9441 137.834 2.67482 139.27C2.6409 139.48 2.53395 139.67 2.37293 139.808C2.21192 139.946 2.00724 140.023 1.79518 140.024ZM4.11096 131.407C4.0099 131.406 3.90976 131.388 3.81476 131.353C3.70318 131.314 3.60046 131.253 3.51249 131.174C3.42452 131.095 3.35304 131 3.30216 130.893C3.25128 130.786 3.222 130.67 3.21601 130.552C3.21001 130.434 3.22742 130.316 3.26723 130.205C3.76988 128.786 4.33536 127.359 4.9547 125.968C4.99805 125.853 5.06441 125.749 5.14969 125.661C5.23496 125.573 5.33736 125.503 5.45055 125.456C5.56375 125.409 5.68535 125.386 5.80787 125.388C5.93039 125.39 6.05123 125.417 6.16295 125.467C6.27466 125.517 6.3749 125.59 6.45746 125.681C6.54003 125.771 6.60318 125.878 6.64303 125.994C6.68288 126.109 6.69858 126.232 6.68917 126.354C6.67976 126.477 6.64544 126.596 6.58831 126.704C5.9959 128.041 5.4394 129.397 4.9547 130.806C4.89347 130.981 4.77946 131.133 4.62837 131.241C4.47727 131.348 4.29651 131.407 4.11096 131.407ZM7.75518 123.212C7.59992 123.211 7.44761 123.17 7.31312 123.092C7.17864 123.015 7.06658 122.903 6.98789 122.77C6.90921 122.636 6.86659 122.484 6.86421 122.329C6.86182 122.173 6.89974 122.02 6.97428 121.884C7.69235 120.555 8.48223 119.191 9.30801 117.97C9.4457 117.791 9.64612 117.67 9.86917 117.632C10.0922 117.594 10.3214 117.641 10.5109 117.765C10.7004 117.889 10.8362 118.079 10.8911 118.299C10.946 118.518 10.9159 118.75 10.807 118.949C10.0081 120.178 9.24518 121.453 8.54506 122.746C8.46185 122.879 8.3451 122.988 8.20649 123.062C8.06787 123.136 7.91225 123.172 7.75518 123.167V123.212ZM12.7009 115.655C12.5334 115.654 12.3694 115.607 12.2274 115.518C12.0854 115.429 11.971 115.303 11.8972 115.152C11.8235 115.002 11.7932 114.834 11.8099 114.667C11.8267 114.501 11.8896 114.342 11.9918 114.21C12.8894 113.007 13.9037 111.831 14.9179 110.718C14.9975 110.631 15.0935 110.56 15.2004 110.51C15.3073 110.46 15.423 110.431 15.5409 110.426C15.6588 110.42 15.7767 110.438 15.8877 110.478C15.9988 110.518 16.1008 110.58 16.188 110.66C16.2753 110.739 16.346 110.835 16.3961 110.942C16.4462 111.049 16.4748 111.165 16.4803 111.282C16.4857 111.4 16.4678 111.518 16.4277 111.629C16.3876 111.74 16.3259 111.842 16.2464 111.93C15.268 113.007 14.3076 114.147 13.41 115.305C13.3264 115.413 13.219 115.501 13.0961 115.562C12.9732 115.623 12.838 115.654 12.7009 115.655ZM18.7417 109.03C18.5619 109.03 18.3865 108.975 18.2381 108.874C18.0897 108.772 17.9752 108.628 17.9094 108.461C17.8436 108.294 17.8296 108.111 17.8692 107.935C17.9088 107.76 18.0001 107.6 18.1313 107.478C19.2354 106.436 20.4022 105.44 21.587 104.507C21.7731 104.36 22.0095 104.293 22.2449 104.319C22.4803 104.346 22.6956 104.465 22.8437 104.65C22.9177 104.743 22.9728 104.849 23.0057 104.962C23.0385 105.076 23.0486 105.195 23.0352 105.313C23.0219 105.43 22.9854 105.544 22.9279 105.648C22.8704 105.751 22.7929 105.842 22.7001 105.916C21.5511 106.813 20.4292 107.783 19.352 108.788C19.2646 108.87 19.1615 108.934 19.049 108.976C18.9364 109.017 18.8167 109.036 18.6968 109.03H18.7417ZM25.7788 103.474C25.5711 103.496 25.3622 103.445 25.1882 103.33C25.0141 103.215 24.8857 103.042 24.8251 102.842C24.7645 102.642 24.7755 102.428 24.8562 102.235C24.9369 102.042 25.0822 101.884 25.2672 101.787C26.5238 100.952 27.8343 100.162 29.1627 99.4262C29.2658 99.3673 29.3796 99.3292 29.4974 99.3142C29.6153 99.2993 29.7349 99.3076 29.8495 99.3389C29.9641 99.3701 30.0714 99.4237 30.1654 99.4964C30.2593 99.5691 30.3379 99.6596 30.3969 99.7628C30.4558 99.8659 30.4939 99.9797 30.5089 100.098C30.5238 100.215 30.5155 100.335 30.4842 100.45C30.4529 100.564 30.3994 100.672 30.3267 100.765C30.254 100.859 30.1634 100.938 30.0603 100.997C28.7767 101.706 27.5022 102.478 26.2904 103.286C26.1313 103.409 25.9353 103.476 25.7339 103.474H25.7788ZM33.5699 99.0941C33.3652 99.0931 33.1671 99.0223 33.0082 98.8933C32.8494 98.7644 32.7393 98.585 32.6964 98.3849C32.6534 98.1848 32.6801 97.9761 32.7721 97.7933C32.864 97.6104 33.0156 97.4645 33.2019 97.3797C34.5752 96.7604 35.9934 96.1769 37.4205 95.6653C37.6424 95.5921 37.8841 95.6082 38.0943 95.7104C38.3044 95.8126 38.4664 95.9926 38.5459 96.2124C38.6254 96.4321 38.616 96.6741 38.5199 96.8871C38.4237 97.1 38.2483 97.2671 38.0309 97.3528C36.6486 97.8554 35.2753 98.4119 33.9379 99.0133C33.8223 99.066 33.6969 99.0935 33.5699 99.0941Z" fill="#78D0CC"/>
</svg>
