<svg width="114" height="48" viewBox="0 0 114 48" fill="none" xmlns="http://www.w3.org/2000/svg">
<g clip-path="url(#clip0_0_8861)">
<path d="M113.993 24.6908C113.993 16.5243 110.067 10.0804 102.563 10.0804C95.0269 10.0804 90.4675 16.5246 90.4675 24.6271C90.4675 34.2289 95.8504 39.0778 103.576 39.0778C107.344 39.0778 110.194 38.2165 112.347 37.0044V30.6242C110.194 31.7089 107.724 32.3789 104.589 32.3789C101.518 32.3789 98.7949 31.2942 98.4467 27.53H113.93C113.93 27.1151 113.993 25.4564 113.993 24.6908ZM98.3517 21.6603C98.3517 18.0556 100.537 16.5562 102.531 16.5562C104.463 16.5562 106.521 18.0556 106.521 21.6603H98.3517ZM78.246 10.0804C75.1428 10.0804 73.148 11.5478 72.04 12.5688L71.6281 10.591H64.6625V47.7865L72.5781 46.0959L72.6099 37.0681C73.7498 37.8976 75.4277 39.0778 78.2142 39.0778C83.8819 39.0778 89.0429 34.4842 89.0429 24.3719C89.0113 15.1207 83.7868 10.0804 78.2458 10.0804M76.3459 32.0597C74.4778 32.0597 73.3693 31.39 72.6097 30.5605L72.5779 18.7254C73.4012 17.8004 74.541 17.1625 76.3459 17.1625C79.2271 17.1625 81.2219 20.4162 81.2219 24.5951C81.2219 28.8698 79.2588 32.0597 76.3459 32.0597ZM53.7704 8.19835L61.7178 6.47574V0L53.7704 1.69077V8.19835ZM53.7704 10.6228H61.7178V38.5355H53.7704V10.6228ZM45.2532 12.9833L44.7465 10.6228H37.9074V38.5355H45.8232V19.6188C47.691 17.1625 50.8575 17.609 51.8391 17.9599V10.6228C50.8259 10.2399 47.1213 9.53809 45.2532 12.9833ZM29.4216 3.70049L21.6959 5.35918L21.6643 30.9113C21.6643 35.6328 25.179 39.1097 29.8651 39.1097C32.4614 39.1097 34.3611 38.6313 35.4059 38.057V31.5813C34.3929 31.996 29.39 33.4634 29.39 28.7421V17.4175H35.4059V10.6228H29.39L29.4216 3.70049ZM8.01759 18.7254C8.01759 17.4814 9.03078 17.0028 10.7092 17.0028C13.1154 17.0028 16.1549 17.7367 18.5613 19.0446V11.5478C15.9334 10.4952 13.3371 10.0804 10.7092 10.0804C4.28143 10.0804 0.00694275 13.462 0.00694275 19.1085C0.00694275 27.9127 12.0387 26.5092 12.0387 30.3055C12.0387 31.7726 10.7724 32.2513 8.99916 32.2513C6.37125 32.2513 3.01489 31.1666 0.355135 29.6992V37.2915C3.29985 38.5676 6.27618 39.1097 8.99916 39.1097C15.585 39.1097 20.1128 35.8242 20.1128 30.1139C20.0812 20.6077 8.01759 22.2982 8.01759 18.7254Z" fill="#635BFF"/>
</g>
<defs>
<clipPath id="clip0_0_8861">
<rect width="114" height="48" fill="white"/>
</clipPath>
</defs>
</svg>
