<svg width="40" height="7" viewBox="0 0 40 7" fill="none" xmlns="http://www.w3.org/2000/svg">
<path d="M6.31635 3.56286C6.31635 4.42129 6.0623 5.10455 5.55319 5.6147C4.97543 6.22113 4.22149 6.52435 3.29545 6.52435C2.40833 6.52435 1.65336 6.21703 1.03361 5.6024C0.412833 4.98675 0.102445 4.22461 0.102445 3.31495C0.102445 2.40428 0.412833 1.64214 1.03361 1.02751C1.65336 0.411854 2.40833 0.10454 3.29545 0.10454C3.73593 0.10454 4.15695 0.190588 4.55646 0.361659C4.95699 0.533756 5.27763 0.762193 5.51733 1.048L4.97748 1.58887C4.5708 1.10229 4.01046 0.85951 3.29442 0.85951C2.64701 0.85951 2.0877 1.08692 1.61546 1.54175C1.14321 1.99658 0.907609 2.58764 0.907609 3.31393C0.907609 4.04022 1.14321 4.63129 1.61546 5.08611C2.0877 5.54094 2.64701 5.76835 3.29442 5.76835C3.98076 5.76835 4.55339 5.53991 5.01129 5.08202C5.30836 4.78392 5.48045 4.36904 5.52655 3.83739H3.29442V3.09881H6.2723C6.30303 3.25964 6.31635 3.41432 6.31635 3.56286Z" fill="black"/>
<path d="M11.0389 0.99581H8.24024V2.94419H10.7643V3.68277H8.24024V5.63114H11.0389V6.38714H7.45044V0.24084H11.0389V0.99581Z" fill="black"/>
<path d="M14.369 6.38714H13.5792V0.99581H11.8623V0.24084H16.0859V0.99581H14.369V6.38714Z" fill="black"/>
<path d="M19.1416 6.38714V0.24084H19.9314V6.38714H19.1416Z" fill="black"/>
<path d="M23.4339 6.38714H22.6441V0.99581H20.9272V0.24084H25.1508V0.99581H23.4339V6.38714Z" fill="black"/>
<path d="M33.1458 5.59323C32.5415 6.21401 31.7906 6.5244 30.8922 6.5244C29.9938 6.5244 29.2429 6.21401 28.6396 5.59323C28.0352 4.97246 27.734 4.21236 27.734 3.31398C27.734 2.4156 28.0352 1.6555 28.6396 1.03473C29.2429 0.413951 29.9938 0.102538 30.8922 0.102538C31.7855 0.102538 32.5353 0.414975 33.1417 1.03882C33.7482 1.66267 34.0514 2.42072 34.0514 3.31398C34.0514 4.21236 33.7492 4.97246 33.1458 5.59323ZM29.2225 5.07797C29.6773 5.53894 30.2335 5.7684 30.8922 5.7684C31.5509 5.7684 32.1081 5.53791 32.5619 5.07797C33.0168 4.61699 33.2452 4.029 33.2452 3.31398C33.2452 2.59896 33.0168 2.01096 32.5619 1.54999C32.1081 1.08902 31.5509 0.859558 30.8922 0.859558C30.2335 0.859558 29.6773 1.09004 29.2225 1.54999C28.7686 2.01096 28.5402 2.59896 28.5402 3.31398C28.5402 4.029 28.7686 4.61699 29.2225 5.07797Z" fill="black"/>
<path d="M35.1598 6.38714V0.24084H36.1207L39.1078 5.02164H39.1416L39.1078 3.83745V0.24084H39.8976V6.38714H39.0729L35.9476 1.37381H35.9137L35.9476 2.55799V6.38714H35.1598Z" fill="black"/>
<path d="M6.31635 3.56286C6.31635 4.42129 6.0623 5.10455 5.55319 5.6147C4.97543 6.22113 4.22149 6.52435 3.29545 6.52435C2.40833 6.52435 1.65336 6.21703 1.03361 5.6024C0.412833 4.98675 0.102445 4.22461 0.102445 3.31495C0.102445 2.40428 0.412833 1.64214 1.03361 1.02751C1.65336 0.411854 2.40833 0.10454 3.29545 0.10454C3.73593 0.10454 4.15695 0.190588 4.55646 0.361659C4.95699 0.533756 5.27763 0.762193 5.51733 1.048L4.97748 1.58887C4.5708 1.10229 4.01046 0.85951 3.29442 0.85951C2.64701 0.85951 2.0877 1.08692 1.61546 1.54175C1.14321 1.99658 0.907609 2.58764 0.907609 3.31393C0.907609 4.04022 1.14321 4.63129 1.61546 5.08611C2.0877 5.54094 2.64701 5.76835 3.29442 5.76835C3.98076 5.76835 4.55339 5.53991 5.01129 5.08202C5.30836 4.78392 5.48045 4.36904 5.52655 3.83739H3.29442V3.09881H6.2723C6.30303 3.25964 6.31635 3.41432 6.31635 3.56286Z" stroke="black" stroke-width="0.2" stroke-miterlimit="10"/>
<path d="M11.0389 0.99581H8.24024V2.94419H10.7643V3.68277H8.24024V5.63114H11.0389V6.38714H7.45044V0.24084H11.0389V0.99581Z" stroke="black" stroke-width="0.2" stroke-miterlimit="10"/>
<path d="M14.369 6.38714H13.5792V0.99581H11.8623V0.24084H16.0859V0.99581H14.369V6.38714Z" stroke="black" stroke-width="0.2" stroke-miterlimit="10"/>
<path d="M19.1416 6.38714V0.24084H19.9314V6.38714H19.1416Z" stroke="black" stroke-width="0.2" stroke-miterlimit="10"/>
<path d="M23.4339 6.38714H22.6441V0.99581H20.9272V0.24084H25.1508V0.99581H23.4339V6.38714Z" stroke="black" stroke-width="0.2" stroke-miterlimit="10"/>
<path d="M33.1458 5.59323C32.5415 6.21401 31.7906 6.5244 30.8922 6.5244C29.9938 6.5244 29.2429 6.21401 28.6396 5.59323C28.0352 4.97246 27.734 4.21236 27.734 3.31398C27.734 2.4156 28.0352 1.6555 28.6396 1.03473C29.2429 0.413951 29.9938 0.102538 30.8922 0.102538C31.7855 0.102538 32.5353 0.414975 33.1417 1.03882C33.7482 1.66267 34.0514 2.42072 34.0514 3.31398C34.0514 4.21236 33.7492 4.97246 33.1458 5.59323ZM29.2225 5.07797C29.6773 5.53894 30.2335 5.7684 30.8922 5.7684C31.5509 5.7684 32.1081 5.53791 32.5619 5.07797C33.0168 4.61699 33.2452 4.029 33.2452 3.31398C33.2452 2.59896 33.0168 2.01096 32.5619 1.54999C32.1081 1.08902 31.5509 0.859558 30.8922 0.859558C30.2335 0.859558 29.6773 1.09004 29.2225 1.54999C28.7686 2.01096 28.5402 2.59896 28.5402 3.31398C28.5402 4.029 28.7686 4.61699 29.2225 5.07797Z" stroke="black" stroke-width="0.2" stroke-miterlimit="10"/>
<path d="M35.1598 6.38714V0.24084H36.1207L39.1078 5.02164H39.1416L39.1078 3.83745V0.24084H39.8976V6.38714H39.0729L35.9476 1.37381H35.9137L35.9476 2.55799V6.38714H35.1598Z" stroke="black" stroke-width="0.2" stroke-miterlimit="10"/>
</svg>
