<svg width="87" height="57" viewBox="0 0 87 57" fill="none" xmlns="http://www.w3.org/2000/svg">
<path d="M86.9651 24.5882C86.9672 24.4252 86.9248 24.2647 86.8426 24.1239C86.7603 23.9831 86.6413 23.8674 86.4982 23.7892C85.9323 23.3617 85.2304 23.1544 84.523 23.2056C83.7988 23.2071 83.0852 23.3793 82.44 23.7084L78.8487 25.6207C79.142 25.106 79.3626 24.5531 79.5041 23.9777C79.606 23.5362 79.6542 23.084 79.6478 22.631C79.6478 21.8768 79.6478 17.6929 79.6478 17.2978C79.6384 16.4438 79.4551 15.6006 79.109 14.8198C78.3685 13.3512 77.2614 12.0987 75.8948 11.1836C74.7905 10.3396 73.4706 9.38788 71.9174 8.39128C70.3641 7.39468 68.9635 6.52378 67.6976 5.81449C64.3211 4.01445 60.756 2.59322 57.0672 1.57671C53.0611 0.478398 48.9204 -0.0505291 44.7668 0.00549369C40.0456 0.0900741 35.353 0.759579 30.7965 1.99869C25.3602 3.481 20.1145 5.5901 15.1652 8.28354C10.4785 10.7616 6.944 13.3383 4.56174 16.0139C2.42687 18.2094 0.928054 20.9433 0.225194 23.9239C0.0668771 24.7099 -0.00835612 25.5103 0.000735341 26.3121C0.000735341 27.2099 0.000735341 30.9718 0.000735341 31.6991C0.0117122 33.5194 0.448316 35.312 1.27566 36.9335C2.61555 39.5085 4.51815 41.7486 6.84224 43.4877C7.37196 43.9007 8.13514 44.4484 9.14071 45.1397C10.1463 45.831 11.2147 46.5493 12.3639 47.2945C13.5132 48.0397 14.6085 48.758 15.6949 49.4313C16.7813 50.1047 17.6522 50.6345 18.3345 51.0205C21.711 52.7807 25.2984 54.1022 29.0098 54.9531C33.1293 55.9151 37.3494 56.3793 41.5795 56.3357C46.1741 56.2922 50.748 55.7137 55.2087 54.6119C63.5389 52.4312 71.3724 48.6699 78.283 43.5326C80.2089 42.0724 81.9594 40.3943 83.4995 38.5316C84.5956 37.22 85.4444 35.7203 86.0044 34.1053C86.4158 32.8227 86.731 31.5112 86.9472 30.1817C86.9511 30.1249 86.9511 30.068 86.9472 30.0112C86.9651 29.7598 86.9651 24.6421 86.9651 24.5882ZM73.4976 31.0347C72.892 31.8823 72.1999 32.6646 71.4326 33.3691C70.3369 34.3524 69.1695 35.2528 67.94 36.0626C66.1747 37.226 64.3496 38.2959 62.4721 39.2679C59.4657 40.8841 56.2767 42.135 52.9731 42.9939C49.88 43.802 46.7054 44.2568 43.5099 44.3496C40.4961 44.4355 37.4827 44.1673 34.5315 43.5505C31.7541 42.9815 29.0621 42.055 26.5228 40.7942C25.6215 40.3505 24.7462 39.8559 23.9011 39.3127C22.8866 38.6843 21.8541 38.0288 20.8036 37.3375C19.7531 36.6462 18.7565 35.9818 17.8228 35.3353C17.08 34.8429 16.372 34.3 15.7039 33.7103C14.0435 32.3508 12.7141 30.6314 11.8163 28.6824C11.7355 28.4759 11.6546 28.2784 11.5828 28.0718C12.2558 26.3188 13.3002 24.7322 14.6444 23.421C16.7875 21.3302 19.2406 19.5828 21.9169 18.2405C25.2976 16.4172 28.8416 14.9143 32.5024 13.7514C34.2683 13.2047 36.0677 12.7728 37.8894 12.4585L36.9916 12.9523C36.7438 13.0524 36.5239 13.2107 36.3504 13.4139C36.1769 13.6171 36.055 13.8591 35.995 14.1195C35.9671 14.3562 36.0123 14.5959 36.1247 14.8061C36.2371 15.0164 36.4111 15.1872 36.6235 15.2956L37.234 15.6907C35.6449 15.4934 34.0376 15.4934 32.4485 15.6907C30.4226 16.0263 28.4733 16.7227 26.6934 17.7467C24.989 18.5589 23.4979 19.7579 22.3389 21.2483C21.5776 22.2417 21.1558 23.4535 21.1358 24.705C21.1358 24.8756 21.1358 29.3019 21.1358 30.2177C21.1268 30.3851 21.1268 30.553 21.1358 30.7204C21.3329 32.2497 21.955 33.6931 22.9315 34.8864C24.2685 36.5187 25.8675 37.9174 27.6631 39.0254C29.6944 40.3668 31.8916 41.4383 34.1993 42.2128C36.4621 42.9782 38.8117 43.4578 41.1934 43.6403C43.5134 43.8222 45.8472 43.6954 48.1337 43.2632C50.3618 42.8476 52.5141 42.0969 54.5173 41.0366C55.8796 40.3484 57.1725 39.5306 58.378 38.5945C59.1312 38.0119 59.7885 37.3152 60.3263 36.5294C60.6802 35.9909 60.8989 35.3749 60.9638 34.7338C61.0087 34.1861 61.0087 33.6474 60.9638 33.1267C62.7951 33.2058 64.6296 33.0763 66.4316 32.7406C68.9513 32.2214 71.3746 31.3127 73.6143 30.0471L74.0273 29.8047C73.9495 30.2416 73.7729 30.6516 73.4976 31.0347ZM41.4538 25.7465C43.8336 26.0804 46.1042 26.9591 48.0888 28.3143C48.7973 28.7734 49.467 29.2899 50.091 29.8585C49.7543 30.0951 49.4035 30.311 49.0405 30.505C47.1488 31.5043 44.9949 31.8962 42.8724 31.6273C40.4886 31.3211 38.2114 30.4533 36.2284 29.0954C35.4952 28.6311 34.8096 28.0959 34.1813 27.4972C34.4796 27.2753 34.7948 27.0772 35.1241 26.9046C37.0666 25.8544 39.2927 25.4489 41.4807 25.7465H41.4538ZM66.4765 20.4223C65.4595 20.8608 64.3692 21.1045 63.2623 21.1406C61.946 21.2207 60.6383 20.8812 59.5273 20.1709L47.3706 12.2071C48.594 12.3444 49.8082 12.5543 51.0068 12.8356C53.9719 13.5511 56.8391 14.6244 59.5452 16.0319C60.9063 16.7365 62.2308 17.5096 63.5136 18.3483C64.609 19.0486 65.5787 19.7579 66.5034 20.4223H66.4765Z" fill="#2E8B8B"/>
<path opacity="0.2" d="M86.9651 24.5882C86.9672 24.4252 86.9248 24.2647 86.8426 24.1239C86.7603 23.9831 86.6413 23.8674 86.4982 23.7892C85.9323 23.3617 85.2304 23.1544 84.523 23.2056C83.7988 23.2071 83.0852 23.3793 82.44 23.7084L78.8487 25.6207C79.142 25.106 79.3626 24.5531 79.5041 23.9777C79.606 23.5362 79.6542 23.084 79.6478 22.631C79.6478 21.8768 79.6478 17.6929 79.6478 17.2978C79.6384 16.4438 79.4551 15.6006 79.109 14.8198C78.3685 13.3512 77.2614 12.0987 75.8948 11.1836C74.7905 10.3396 73.4706 9.38788 71.9174 8.39128C70.3641 7.39468 68.9635 6.52378 67.6976 5.81449C64.3211 4.01445 60.756 2.59322 57.0672 1.57671C53.0611 0.478398 48.9204 -0.0505291 44.7668 0.00549369C40.0456 0.0900741 35.353 0.759579 30.7965 1.99869C25.3602 3.481 20.1145 5.5901 15.1652 8.28354C10.4785 10.7616 6.944 13.3383 4.56174 16.0139C2.42687 18.2094 0.928054 20.9433 0.225194 23.9239C0.0668771 24.7099 -0.00835612 25.5103 0.000735341 26.3121C0.000735341 27.2099 0.000735341 30.9718 0.000735341 31.6991C0.0117122 33.5194 0.448316 35.312 1.27566 36.9335C2.61555 39.5085 4.51815 41.7486 6.84224 43.4877C7.37196 43.9007 8.13514 44.4484 9.14071 45.1397C10.1463 45.831 11.2147 46.5493 12.3639 47.2945C13.5132 48.0397 14.6085 48.758 15.6949 49.4313C16.7813 50.1047 17.6522 50.6345 18.3345 51.0205C21.711 52.7807 25.2984 54.1022 29.0098 54.9531C33.1293 55.9151 37.3494 56.3793 41.5795 56.3357C46.1741 56.2922 50.748 55.7137 55.2087 54.6119C63.5389 52.4312 71.3724 48.6699 78.283 43.5326C80.2089 42.0724 81.9594 40.3943 83.4995 38.5316C84.5956 37.22 85.4444 35.7203 86.0044 34.1053C86.4158 32.8227 86.731 31.5112 86.9472 30.1817C86.9511 30.1249 86.9511 30.068 86.9472 30.0112C86.9651 29.7598 86.9651 24.6421 86.9651 24.5882ZM73.4976 31.0347C72.892 31.8823 72.1999 32.6646 71.4326 33.3691C70.3369 34.3524 69.1695 35.2528 67.94 36.0626C66.1747 37.226 64.3496 38.2959 62.4721 39.2679C59.4657 40.8841 56.2767 42.135 52.9731 42.9939C49.88 43.802 46.7054 44.2568 43.5099 44.3496C40.4961 44.4355 37.4827 44.1673 34.5315 43.5505C31.7541 42.9815 29.0621 42.055 26.5228 40.7942C25.6215 40.3505 24.7462 39.8559 23.9011 39.3127C22.8866 38.6843 21.8541 38.0288 20.8036 37.3375C19.7531 36.6462 18.7565 35.9818 17.8228 35.3353C17.08 34.8429 16.372 34.3 15.7039 33.7103C14.0435 32.3508 12.7141 30.6314 11.8163 28.6824C11.7355 28.4759 11.6546 28.2784 11.5828 28.0718C12.2558 26.3188 13.3002 24.7322 14.6444 23.421C16.7875 21.3302 19.2406 19.5828 21.9169 18.2405C25.2976 16.4172 28.8416 14.9143 32.5024 13.7514C34.2683 13.2047 36.0677 12.7728 37.8894 12.4585L36.9916 12.9523C36.7438 13.0524 36.5239 13.2107 36.3504 13.4139C36.1769 13.6171 36.055 13.8591 35.995 14.1195C35.9671 14.3562 36.0123 14.5959 36.1247 14.8061C36.2371 15.0164 36.4111 15.1872 36.6235 15.2956L37.234 15.6907C35.6449 15.4934 34.0376 15.4934 32.4485 15.6907C30.4226 16.0263 28.4733 16.7227 26.6934 17.7467C24.989 18.5589 23.4979 19.7579 22.3389 21.2483C21.5776 22.2417 21.1558 23.4535 21.1358 24.705C21.1358 24.8756 21.1358 29.3019 21.1358 30.2177C21.1268 30.3851 21.1268 30.553 21.1358 30.7204C21.3329 32.2497 21.955 33.6931 22.9315 34.8864C24.2685 36.5187 25.8675 37.9174 27.6631 39.0254C29.6944 40.3668 31.8916 41.4383 34.1993 42.2128C36.4621 42.9782 38.8117 43.4578 41.1934 43.6403C43.5134 43.8222 45.8472 43.6954 48.1337 43.2632C50.3618 42.8476 52.5141 42.0969 54.5173 41.0366C55.8796 40.3484 57.1725 39.5306 58.378 38.5945C59.1312 38.0119 59.7885 37.3152 60.3263 36.5294C60.6802 35.9909 60.8989 35.3749 60.9638 34.7338C61.0087 34.1861 61.0087 33.6474 60.9638 33.1267C62.7951 33.2058 64.6296 33.0763 66.4316 32.7406C68.9513 32.2214 71.3746 31.3127 73.6143 30.0471L74.0273 29.8047C73.9495 30.2416 73.7729 30.6516 73.4976 31.0347ZM41.4538 25.7465C43.8336 26.0804 46.1042 26.9591 48.0888 28.3143C48.7973 28.7734 49.467 29.2899 50.091 29.8585C49.7543 30.0951 49.4035 30.311 49.0405 30.505C47.1488 31.5043 44.9949 31.8962 42.8724 31.6273C40.4886 31.3211 38.2114 30.4533 36.2284 29.0954C35.4952 28.6311 34.8096 28.0959 34.1813 27.4972C34.4796 27.2753 34.7948 27.0772 35.1241 26.9046C37.0666 25.8544 39.2927 25.4489 41.4807 25.7465H41.4538ZM66.4765 20.4223C65.4595 20.8608 64.3692 21.1045 63.2623 21.1406C61.946 21.2207 60.6383 20.8812 59.5273 20.1709L47.3706 12.2071C48.594 12.3444 49.8082 12.5543 51.0068 12.8356C53.9719 13.5511 56.8391 14.6244 59.5452 16.0319C60.9063 16.7365 62.2308 17.5096 63.5136 18.3483C64.609 19.0486 65.5787 19.7579 66.5034 20.4223H66.4765Z" fill="black"/>
<path opacity="0.1" d="M11.6456 28.1077C12.3185 26.3546 13.363 24.768 14.7072 23.4569C16.8503 21.3661 19.3033 19.6187 21.9797 18.2764C25.3604 16.453 28.9043 14.9501 32.5651 13.7872C34.3311 13.2405 36.1305 12.8086 37.9522 12.4943L41.2203 10.7615C41.8618 10.436 42.5753 10.2785 43.2943 10.3036C43.9687 10.2816 44.6354 10.4529 45.2156 10.7974L47.3704 12.207C48.5939 12.3443 49.8081 12.5542 51.0067 12.8355C53.9718 13.551 56.839 14.6243 59.5451 16.0318C60.9062 16.7364 62.2307 17.5096 63.5135 18.3482C64.582 19.0485 65.5516 19.7398 66.4764 20.4222C66.6547 20.3553 66.8286 20.2773 66.9972 20.1888C67.4443 20.0066 67.845 19.7265 68.1697 19.3692C68.4944 19.0118 68.735 18.5862 68.8736 18.1237C69.0532 17.3157 68.4786 16.4089 67.1498 15.4302C66.0454 14.5863 64.8334 13.7243 63.5584 12.8624C62.2796 12.0172 60.9548 11.2439 59.59 10.546C56.8873 9.13086 54.0192 8.0572 51.0516 7.3497C48.1369 6.65409 45.1376 6.37896 42.145 6.53267C38.8953 6.72978 35.683 7.33303 32.5831 8.32834C28.9224 9.49168 25.3786 10.9946 21.9976 12.8175C19.32 14.1538 16.8665 15.8985 14.7251 17.9891C13.1777 19.4666 12.0447 21.324 11.4391 23.3761C10.9803 25.172 11.1416 27.0703 11.897 28.7631C11.7982 28.5117 11.7174 28.3142 11.6456 28.1077Z" fill="black"/>
<path opacity="0.1" d="M48.1158 22.8107C46.1318 21.453 43.8612 20.5712 41.4808 20.2339C39.3153 19.9552 37.117 20.3634 35.196 21.4011C33.3105 22.3977 32.5025 23.5649 32.691 24.9116C32.9177 25.9248 33.4694 26.836 34.2622 27.5064C34.5618 27.2865 34.8769 27.0885 35.205 26.9138C37.1268 25.8787 39.3253 25.4735 41.4898 25.7556C43.8696 26.0895 46.1402 26.9683 48.1248 28.3234C48.8333 28.7826 49.503 29.2991 50.127 29.8677L49.6511 30.1819C51.2313 29.2123 51.9376 28.1439 51.77 26.9767C51.5635 25.6658 50.3604 24.2473 48.1158 22.8107Z" fill="black"/>
<path opacity="0.1" d="M41.3193 38.1992C36.4938 37.8186 31.8412 36.2317 27.7889 33.5843C25.9905 32.4764 24.391 31.0742 23.0573 29.4363C22.0811 28.2462 21.4589 26.8058 21.2616 25.2793C21.2437 25.0132 21.2437 24.7463 21.2616 24.4802C21.2616 24.579 21.2616 24.6688 21.2616 24.7675C21.2616 24.8663 21.2616 29.3644 21.2616 30.2802C21.2527 30.4477 21.2527 30.6156 21.2616 30.783C21.4587 32.3123 22.0808 33.7556 23.0573 34.949C24.3943 36.5813 25.9933 37.98 27.7889 39.088C29.8202 40.4294 32.0174 41.5008 34.3251 42.2753C36.5879 43.0408 38.9375 43.5204 41.3193 43.7029V38.1992Z" fill="black"/>
<path opacity="0.1" d="M61.1254 27.6948C61.1254 28.2246 61.1254 28.7543 61.1254 29.302V33.2076C62.9567 33.2867 64.7911 33.1572 66.5932 32.8215V27.3088C64.7917 27.649 62.9568 27.7785 61.1254 27.6948Z" fill="black"/>
<path opacity="0.1" d="M29.0458 49.5123C25.3332 48.6655 21.7453 47.3438 18.3706 45.5797C17.6882 45.2027 16.8083 44.6819 15.7309 43.9995C14.6535 43.3172 13.5402 42.6079 12.4 41.8627C11.2597 41.1175 10.1823 40.3902 9.17674 39.7079C8.17116 39.0255 7.38107 38.4689 6.87828 38.0559C4.55378 36.3136 2.65125 34.0704 1.3117 31.4927C0.483375 29.8623 0.0497353 28.0601 0.0457478 26.2314C0.0457478 26.2763 0.0457478 26.3122 0.0457478 26.3571C0.0457478 27.2549 0.0457478 31.0168 0.0457478 31.7441C0.0567247 33.5644 0.493328 35.357 1.32067 36.9785C2.66056 39.5534 4.56316 41.7936 6.88725 43.5327C7.41698 43.9457 8.18013 44.4934 9.18571 45.1847C10.1913 45.876 11.2597 46.5943 12.4089 47.3395C13.5582 48.0847 14.6535 48.803 15.7399 49.4764C16.8263 50.1497 17.6972 50.6794 18.3795 51.0655C21.756 52.8256 25.3434 54.1472 29.0548 54.998C33.1743 55.9601 37.3944 56.4243 41.6245 56.3807V50.877C37.3921 50.9273 33.169 50.4691 29.0458 49.5123Z" fill="black"/>
<path d="M75.9038 11.1835C77.2704 12.0987 78.3775 13.3512 79.118 14.8198C79.6469 15.9616 79.7857 17.2455 79.5131 18.474C79.1755 19.7459 78.5099 20.9069 77.5827 21.8409C76.4879 22.9727 75.2139 23.9162 73.8118 24.6331C71.5739 25.9025 69.1499 26.8115 66.6291 27.3266C64.8277 27.6668 62.9927 27.7964 61.1613 27.7127C61.1613 28.2424 61.1613 28.7721 61.1613 29.3198C61.0993 29.9616 60.8803 30.5782 60.5238 31.1155C59.988 31.9028 59.3304 32.5999 58.5756 33.1805C57.3706 34.12 56.0777 34.9408 54.7148 35.6316C52.7098 36.6877 50.5582 37.4382 48.3312 37.8582C46.0447 38.2905 43.7109 38.4172 41.391 38.2353C36.5655 37.8547 31.9129 36.2679 27.8606 33.6205C26.0622 32.5126 24.4627 31.1104 23.129 29.4725C22.1528 28.2824 21.5306 26.842 21.3333 25.3155C21.217 23.8923 21.6365 22.477 22.5095 21.347C23.6685 19.8566 25.1596 18.6576 26.864 17.8455C28.644 16.8214 30.5932 16.125 32.6191 15.7894C34.2082 15.5921 35.8155 15.5921 37.4046 15.7894L36.7941 15.3944C36.5817 15.286 36.4077 15.1152 36.2953 14.9049C36.1829 14.6946 36.1377 14.455 36.1656 14.2182C36.2256 13.9578 36.3475 13.7158 36.521 13.5126C36.6945 13.3094 36.9144 13.1511 37.1622 13.051L41.3551 10.8244C41.9966 10.4989 42.7102 10.3414 43.4291 10.3665C44.1035 10.3445 44.7702 10.5158 45.3504 10.8603L59.6619 20.2337C60.7725 20.9452 62.0806 21.2848 63.3969 21.2034C64.6979 21.1728 65.975 20.8474 67.1319 20.2517C67.5791 20.0695 67.9798 19.7894 68.3045 19.4321C68.6292 19.0747 68.8697 18.6492 69.0084 18.1867C69.188 17.3786 68.6133 16.4718 67.2845 15.4932C66.1802 14.6492 64.9681 13.7873 63.6932 12.9254C62.4144 12.0802 61.0896 11.3068 59.7248 10.6089C57.0221 9.19379 54.1539 8.12013 51.1864 7.41263C48.2746 6.71787 45.2784 6.44275 42.2888 6.59559C39.036 6.79187 35.8206 7.39513 32.7179 8.39126C29.0572 9.5546 25.5133 11.0575 22.1324 12.8804C19.4548 14.2168 17.0013 15.9615 14.8599 18.052C13.3125 19.5295 12.1795 21.3869 11.5738 23.439C11.115 25.235 11.2764 27.1333 12.0317 28.826C12.9296 30.7751 14.259 32.4944 15.9194 33.8539C16.5875 34.4436 17.2955 34.9866 18.0383 35.479C18.9361 36.1254 19.9686 36.7898 21.0191 37.4811C22.0695 38.1725 23.1021 38.8279 24.1166 39.4564C24.9617 39.9995 25.837 40.4941 26.7383 40.9378C29.2776 42.1986 31.9696 43.1251 34.747 43.6942C37.6982 44.3109 40.7116 44.5791 43.7253 44.4932C46.9208 44.4004 50.0955 43.9456 53.1885 43.1375C56.4921 42.2787 59.6811 41.0278 62.6876 39.4115C64.5651 38.4395 66.3902 37.3696 68.1554 36.2062C69.3849 35.3964 70.5524 34.4961 71.648 33.5127C73.0015 32.2971 74.0975 30.8225 74.8713 29.1762C75.0505 28.7395 75.2668 28.319 75.5177 27.9192C75.8346 27.5325 76.2373 27.2251 76.6939 27.0214L82.4759 23.7083C83.1211 23.3793 83.8347 23.2071 84.5589 23.2056C85.2663 23.1544 85.9682 23.3617 86.5342 23.7891C86.7013 23.8809 86.8349 24.0234 86.9156 24.1961C86.9963 24.3689 87.0199 24.5628 86.9831 24.7498C86.7669 26.0793 86.4518 27.3908 86.0404 28.6734C85.4783 30.2874 84.6297 31.7869 83.5354 33.0997C81.9925 34.957 80.2423 36.6319 78.319 38.0917C75.4826 40.2402 72.4633 42.1359 69.2957 43.757C64.856 46.1338 60.1353 47.9436 55.2446 49.1441C50.7842 50.2487 46.2103 50.8302 41.6154 50.8769C37.3849 50.9176 33.1648 50.4504 29.0457 49.4852C25.3331 48.6384 21.7452 47.3167 18.3705 45.5527C17.6881 45.1756 16.8082 44.6549 15.7308 43.9725C14.6534 43.2902 13.5401 42.5809 12.3999 41.8357C11.2596 41.0904 10.1822 40.3632 9.17663 39.6809C8.17105 38.9985 7.38096 38.4418 6.87817 38.0288C4.55368 36.2865 2.65114 34.0434 1.31159 31.4657C0.1221 29.1482 -0.24815 26.4964 0.261113 23.9418C0.963972 20.9612 2.46279 18.2273 4.59766 16.0319C6.99189 13.3563 10.5264 10.7795 15.2011 8.30147C20.1505 5.60803 25.3961 3.49893 30.8324 2.01662C35.3766 0.774378 40.0569 0.0988756 44.7668 0.0054797C48.9097 -0.0597136 53.0411 0.45709 57.0403 1.54077C60.7291 2.55729 64.2942 3.97852 67.6706 5.77856C68.9336 6.48486 70.3402 7.34378 71.8904 8.35534C73.4976 9.40581 74.7994 10.3396 75.9038 11.1835ZM36.2553 29.0954C38.2384 30.4533 40.5155 31.3211 42.8994 31.6273C45.0219 31.8962 47.1757 31.5043 49.0675 30.505C51.0517 29.4545 51.9495 28.2694 51.761 26.9675C51.5724 25.6656 50.3604 24.274 48.1158 22.8105C46.1317 21.4528 43.8612 20.571 41.4808 20.2337C39.3153 19.955 37.1169 20.3632 35.1959 21.4009C33.3104 22.3975 32.5024 23.5647 32.6909 24.9114C32.8795 26.2582 34.0646 27.6588 36.2553 29.0954Z" fill="#2E8B8B"/>
</svg>
