<svg width="279" height="276" viewBox="0 0 279 276" fill="none" xmlns="http://www.w3.org/2000/svg">
<path d="M36.4371 276L0 254.965L163.222 160.723L200.404 181.337L36.4371 276Z" fill="#1E4243"/>
<path d="M26.5789 144.846L181.818 55.2158L188.025 58.8039C188.874 59.3601 189.581 60.1075 190.088 60.9861C190.596 61.8646 190.891 62.85 190.949 63.8631V178.377C190.893 179.391 190.598 180.377 190.09 181.255C189.582 182.134 188.875 182.881 188.025 183.436L38.6349 269.694C37.7291 270.15 36.7291 270.388 35.715 270.388C34.701 270.388 33.701 270.15 32.7952 269.694L29.5031 267.792C28.6543 267.236 27.9477 266.489 27.4399 265.61C26.932 264.732 26.6371 263.746 26.5789 262.733V144.846Z" fill="#2E8B8B"/>
<path opacity="0.2" d="M26.5789 144.846L181.818 55.2158L188.025 58.8039C188.874 59.3601 189.581 60.1075 190.088 60.9861C190.596 61.8646 190.891 62.85 190.949 63.8631V178.377C190.893 179.391 190.598 180.377 190.09 181.255C189.582 182.134 188.875 182.881 188.025 183.436L38.6349 269.694C37.7291 270.15 36.7291 270.388 35.715 270.388C34.701 270.388 33.701 270.15 32.7952 269.694L29.5031 267.792C28.6543 267.236 27.9477 266.489 27.4399 265.61C26.932 264.732 26.6371 263.746 26.5789 262.733V144.846Z" fill="black"/>
<path d="M180.957 45.1509L181.594 44.8101L179.181 43.4018C178.977 43.281 178.764 43.1761 178.544 43.0878L110.226 17.7828C109.287 17.4765 108.275 17.4728 107.334 17.7721C106.392 18.0715 105.569 18.6588 104.979 19.4512L28.5523 131.059C27.3619 132.979 26.6826 135.171 26.5789 137.428V144.846L28.947 146.219L181.818 55.2156V47.8061C181.789 46.8572 181.491 45.936 180.957 45.1509Z" fill="#2E8B8B"/>
<path opacity="0.1" d="M108.136 19.9895C107.835 20.2324 107.569 20.5163 107.347 20.8327L30.9203 132.431C30.2902 133.419 29.8124 134.495 29.503 135.625L27.1259 134.252C27.2956 133.677 27.5023 133.114 27.7448 132.566C27.7435 132.548 27.7435 132.53 27.7448 132.512C27.8525 132.279 27.9601 132.064 28.0767 131.839C28.091 131.802 28.109 131.766 28.1305 131.732C28.2518 131.5 28.3865 131.275 28.5342 131.059L104.979 19.5051C105.092 19.3402 105.218 19.1842 105.355 19.0387C105.49 18.9131 105.624 18.7785 105.768 18.6619L108.136 19.9895Z" fill="black"/>
<path opacity="0.35" d="M181.566 44.7923C181.359 44.6662 181.14 44.561 180.912 44.4784L112.585 19.1554C111.828 18.9014 111.019 18.8446 110.235 18.9906C109.45 19.1366 108.715 19.4805 108.1 19.9896L105.768 18.6082C106.385 18.1028 107.119 17.7613 107.903 17.6155C108.687 17.4697 109.496 17.5242 110.253 17.774L178.543 43.097C178.765 43.1816 178.978 43.2867 179.18 43.4109L181.566 44.7923Z" fill="white"/>
<path d="M27.7628 132.53C27.8614 132.297 27.978 132.072 28.0857 131.857C28.0229 132.054 27.8614 132.279 27.7628 132.53Z" fill="#2E8B8B"/>
<path d="M107.347 20.8325L30.9201 132.431C29.7214 134.352 29.0329 136.548 28.9198 138.809V146.218L184.159 56.5879V49.1785C184.111 48.1662 183.778 47.188 183.199 46.3565C182.62 45.525 181.817 44.8738 180.885 44.4781L112.594 19.1641C111.655 18.8536 110.642 18.8478 109.7 19.1474C108.757 19.4471 107.934 20.0368 107.347 20.8325Z" fill="#2E8B8B"/>
<path opacity="0.05" d="M184.186 49.1786C184.156 48.2479 183.867 47.344 183.352 46.5683L29.5031 135.625C29.16 136.654 28.9638 137.726 28.9201 138.809V146.219L184.159 56.588L184.186 49.1786Z" fill="black"/>
<path d="M177.557 17.7109C177.587 17.4005 177.536 17.0875 177.409 16.8027C177.282 16.518 177.082 16.2714 176.83 16.0873L172.085 13.3963C171.797 13.2652 171.479 13.2127 171.164 13.2442C170.849 13.2757 170.548 13.3901 170.291 13.5757L42.9136 87.1316C42.18 87.6107 41.5694 88.2558 41.1315 89.0148C40.6936 89.7737 40.4406 90.6252 40.393 91.5001V243.994C40.3619 244.307 40.4134 244.622 40.5425 244.909C40.6716 245.195 40.8737 245.443 41.1285 245.627L45.8559 248.318C46.1434 248.45 46.4608 248.504 46.7758 248.474C47.0909 248.444 47.3925 248.331 47.6499 248.147L175.027 174.636C175.77 174.151 176.387 173.497 176.827 172.726C177.267 171.956 177.517 171.091 177.557 170.205V17.7109Z" fill="#2E8B8B"/>
<path opacity="0.95" d="M177.557 17.7109C177.587 17.4005 177.536 17.0875 177.409 16.8027C177.282 16.518 177.082 16.2714 176.83 16.0873L172.085 13.3963C171.797 13.2652 171.479 13.2127 171.164 13.2442C170.849 13.2757 170.548 13.3901 170.291 13.5757L42.9136 87.1316C42.18 87.6107 41.5694 88.2558 41.1315 89.0148C40.6936 89.7737 40.4406 90.6252 40.393 91.5001V243.994C40.3619 244.307 40.4134 244.622 40.5425 244.909C40.6716 245.195 40.8737 245.443 41.1285 245.627L45.8559 248.318C46.1434 248.45 46.4608 248.504 46.7758 248.474C47.0909 248.444 47.3925 248.331 47.6499 248.147L175.027 174.636C175.77 174.151 176.387 173.497 176.827 172.726C177.267 171.956 177.517 171.091 177.557 170.205V17.7109Z" fill="white"/>
<path d="M47.7036 248.093L175.081 174.582C175.807 174.097 176.409 173.448 176.839 172.688C177.269 171.928 177.515 171.077 177.557 170.205V17.7108C177.557 16.1051 176.427 15.4593 175.036 16.2576L47.7036 89.8136C46.9705 90.2932 46.3603 90.9385 45.9225 91.6973C45.4846 92.4562 45.2313 93.3073 45.183 94.1821V246.676C45.183 248.246 46.3132 248.892 47.7036 248.093Z" fill="#2E8B8B"/>
<path opacity="0.8" d="M47.7036 248.093L175.081 174.582C175.807 174.097 176.409 173.448 176.839 172.688C177.269 171.928 177.515 171.077 177.557 170.205V17.7108C177.557 16.1051 176.427 15.4593 175.036 16.2576L47.7036 89.8136C46.9705 90.2932 46.3603 90.9385 45.9225 91.6973C45.4846 92.4562 45.2313 93.3073 45.183 94.1821V246.676C45.183 248.246 46.3132 248.892 47.7036 248.093Z" fill="white"/>
<path d="M45.183 246.632C45.1586 246.917 45.1992 247.204 45.3017 247.471C45.4043 247.738 45.5661 247.979 45.775 248.174C44.9228 247.69 41.6218 245.77 41.2002 245.537C40.941 245.359 40.7348 245.114 40.6037 244.828C40.4726 244.542 40.4215 244.226 40.4557 243.914V91.4196C40.4844 90.5436 40.741 89.6903 41.2002 88.9438L45.9275 91.6348C45.4692 92.3883 45.2127 93.2472 45.183 94.1286V246.632Z" fill="#2E8B8B"/>
<path opacity="0.7" d="M45.183 246.632C45.1586 246.917 45.1992 247.204 45.3017 247.471C45.4043 247.738 45.5661 247.979 45.775 248.174C44.9228 247.69 41.6218 245.77 41.2002 245.537C40.941 245.359 40.7348 245.114 40.6037 244.828C40.4726 244.542 40.4215 244.226 40.4557 243.914V91.4196C40.4844 90.5436 40.741 89.6903 41.2002 88.9438L45.9275 91.6348C45.4692 92.3883 45.2127 93.2472 45.183 94.1286V246.632Z" fill="white"/>
<path opacity="0.05" d="M45.183 246.632C45.1586 246.917 45.1992 247.204 45.3017 247.471C45.4043 247.738 45.5661 247.979 45.775 248.174C44.9228 247.69 41.6218 245.77 41.2002 245.537C40.941 245.359 40.7348 245.114 40.6037 244.828C40.4726 244.542 40.4215 244.226 40.4557 243.914V91.4196C40.4844 90.5436 40.741 89.6903 41.2002 88.9438L45.9275 91.6348C45.4692 92.3883 45.2127 93.2472 45.183 94.1286V246.632Z" fill="black"/>
<path d="M91.6487 131.382C91.0926 145.573 92.0434 175.973 92.0434 175.973C92.0434 175.973 107.087 180.512 117.304 178.825C127.521 177.139 149.39 161.638 149.39 161.638L145.748 128.745L91.6487 131.382Z" fill="#37474F"/>
<path d="M126.561 175.453L129.001 152.264C138.59 146.55 141.703 138.639 141.703 138.639C132.984 150.058 123.888 148.21 123.888 148.21V176.664C124.758 176.305 125.655 175.892 126.561 175.453Z" fill="#263238"/>
<path d="M151.749 88.6473C154.189 76.2953 155.293 59.8887 144.573 56.8747C141.774 56.0943 134.652 56.6415 134.652 56.6415L123.071 57.2156C116.622 58.0319 107.58 59.3146 105.212 59.9067C98.9864 61.4406 97.1385 71.568 94.3488 94.1191C92.6085 108.22 91.1195 119.236 91.1195 132.96C102.494 143.159 138.061 139.141 146.152 132.503C146.43 116.939 147.327 111.172 151.749 88.6473Z" fill="#455A64"/>
<path d="M121.08 53.0087C120.973 55.2602 123.565 59.0636 127.539 61.7368C131.513 64.4099 134.93 65.4953 135.361 66.6076C133.477 66.9574 131.773 67.8903 130.373 71.0927C129.037 74.1785 129.046 74.2771 124.462 71.0927C119.878 67.9083 115.779 60.5886 115.797 58.1487C115.815 55.7088 119.385 50.9725 121.179 51.3941L121.08 53.0087Z" fill="#37474F"/>
<path d="M135.361 66.6078C136.706 65.1366 137.98 61.4499 138.142 59.8622L138.725 54.0764C139.349 54.2453 139.904 54.6062 140.312 55.1079C140.806 55.8614 143.246 60.9027 143.165 63.7104C143.084 66.5181 142.429 70.3304 141.478 71.9361C140.528 73.5418 139.891 70.7161 139.263 69.6128C138.455 68.1955 137.352 66.6436 135.361 66.6078Z" fill="#37474F"/>
<path d="M133.549 69.837C133.549 69.837 133.773 80.0003 132.831 85.4093C134.842 85.7307 136.895 85.676 138.886 85.2479C138.886 85.2479 137.334 87.1585 131.647 86.2795C131.647 86.2795 133.396 75.6677 133.549 69.837Z" fill="#37474F"/>
<path d="M157.616 22.8866C157.491 18.7973 155.818 14.9079 152.936 12.0044C150.054 9.10095 146.177 7.39986 142.088 7.24494C138 7.09002 134.006 8.49282 130.912 11.1699C127.818 13.8469 125.856 17.5985 125.422 21.6667L118.093 16.4549C117.227 16.3655 116.351 16.4749 115.534 16.7749C114.716 17.0749 113.978 17.5576 113.375 18.1862C111.365 20.3032 112.603 26.8066 115.232 33.1575C115.232 33.1575 117.878 44.7381 118.9 46.6129C119.58 47.7789 120.681 48.6395 121.977 49.0169L121.726 41.9663L151.032 39.8583L148.134 37.7951C150.992 36.5002 153.411 34.4005 155.095 31.7528C156.779 29.1051 157.655 26.0241 157.616 22.8866Z" fill="#263238"/>
<path d="M121.313 33.606C120.416 34.1711 119.519 32.2156 117.86 31.2109C116.425 30.3139 113.204 28.8518 111.087 32.4129C108.8 36.2432 112.953 41.5357 115.859 42.63C120.165 44.2447 121.699 40.836 121.699 40.836L120.802 58.7765C126.695 69.4869 144.053 68.8411 138.141 59.8708L138.85 52.9548C138.85 52.9548 143.488 53.5827 145.739 53.206C149.48 52.5691 151.803 49.6179 152.915 45.4916C154.647 38.9343 155.266 33.6508 153.525 20.8413C151.615 6.79395 135.244 6.89263 126.489 12.5798C117.734 18.2669 121.313 33.606 121.313 33.606Z" fill="#FFA8A7"/>
<path d="M157.06 7.718C155.83 7.12316 154.436 6.96191 153.104 7.26052C153.192 6.25782 152.962 5.25279 152.447 4.38809C151.932 3.5234 151.157 2.84301 150.233 2.4435C149.254 1.96949 148.157 1.79414 147.078 1.93929C146 2.08444 144.988 2.54369 144.169 3.25979C144.564 1.83352 143.272 0.380347 141.819 0.0574185C140.342 -0.123619 138.844 0.125557 137.504 0.775037C135.45 1.55545 133.423 2.43453 131.333 3.13421C127.646 4.36313 123.726 5.06281 120.398 7.06317C119.586 7.50862 118.877 8.11987 118.317 8.85722C117.616 9.93873 117.3 11.2249 117.42 12.5081C117.443 12.9311 117.503 13.3513 117.6 13.7639C117.342 13.487 117.038 13.2564 116.703 13.0822C116.328 12.889 115.919 12.774 115.498 12.7443C115.078 12.7145 114.656 12.7706 114.259 12.909C113.861 13.0475 113.495 13.2655 113.185 13.5497C112.874 13.8339 112.624 14.1785 112.451 14.5623L117.994 17.4328C117.86 18.554 117.716 19.6753 117.608 20.7966C117.304 23.7478 116.711 27.2014 117.402 30.1436C117.439 30.4971 117.562 30.8361 117.761 31.1303C118.828 31.9521 119.798 32.8942 120.649 33.938C121.08 34.4583 121.6 35.3015 122.291 35.5078C122.665 35.6037 123.061 35.5667 123.411 35.4031C123.762 35.2395 124.044 34.9595 124.211 34.6108C124.326 34.1839 124.347 33.7371 124.273 33.3011L123.735 27.8293C123.652 27.3475 123.683 26.8529 123.825 26.3851C124.15 25.8097 124.608 25.3206 125.161 24.9588C125.799 24.412 126.321 23.7429 126.695 22.991C127.069 22.2391 127.289 21.4197 127.341 20.5813C127.325 20.0542 127.374 19.5271 127.485 19.0115C127.601 18.6258 127.906 18.0248 128.382 18.0248C129.234 18.0248 133.881 19.0295 135.047 19.1909C141.128 20.0252 147.659 20.1866 152.987 17.1995C155.077 16.0424 158.594 13.6114 158.961 11.046C159.01 10.3653 158.855 9.68554 158.516 9.09304C158.178 8.50054 157.671 8.02195 157.06 7.718Z" fill="#263238"/>
<path d="M138.85 52.9459C138.85 52.9459 130.445 51.3761 127.494 49.8601C125.757 48.9906 124.324 47.6143 123.386 45.9132C123.85 47.6209 124.656 49.2168 125.754 50.6047C127.933 53.2957 138.626 55.1705 138.626 55.1705L138.85 52.9459Z" fill="#F28F8F"/>
<path d="M138.491 32.063C138.484 32.3728 138.386 32.6737 138.209 32.9282C138.032 33.1827 137.784 33.3795 137.496 33.494C137.208 33.6085 136.893 33.6358 136.59 33.5723C136.286 33.5088 136.008 33.3575 135.79 33.1371C135.572 32.9167 135.424 32.637 135.364 32.333C135.304 32.0289 135.335 31.7139 135.452 31.4272C135.57 31.1405 135.77 30.8948 136.026 30.7207C136.283 30.5467 136.585 30.4519 136.894 30.4483C137.106 30.4483 137.315 30.4902 137.51 30.5716C137.705 30.6529 137.881 30.7721 138.03 30.9223C138.178 31.0725 138.296 31.2506 138.375 31.4464C138.454 31.6422 138.494 31.8518 138.491 32.063Z" fill="#263238"/>
<path d="M135.433 26.2237L131.737 28.0177C131.508 27.5114 131.482 26.9363 131.666 26.4118C131.85 25.8873 132.229 25.4537 132.724 25.2011C132.968 25.085 133.233 25.0195 133.503 25.0083C133.773 24.9971 134.043 25.0406 134.296 25.136C134.549 25.2315 134.78 25.3771 134.975 25.5639C135.17 25.7508 135.326 25.9752 135.433 26.2237Z" fill="#263238"/>
<path d="M135.477 41.9307L142.142 44.3167C142.004 44.7653 141.777 45.1815 141.475 45.5403C141.173 45.8991 140.801 46.1933 140.382 46.4051C139.964 46.617 139.506 46.7423 139.038 46.7734C138.57 46.8045 138.1 46.7408 137.657 46.5862C136.762 46.243 136.035 45.5662 135.628 44.698C135.222 43.8298 135.168 42.8379 135.477 41.9307Z" fill="#B16668"/>
<path d="M139.684 46.6669C139.557 45.759 139.077 44.9379 138.348 44.382C137.619 43.8261 136.7 43.5802 135.791 43.6977C135.646 43.7211 135.502 43.754 135.361 43.7964C135.469 44.422 135.738 45.0085 136.142 45.4979C136.547 45.9872 137.072 46.3624 137.666 46.5861C138.315 46.818 139.019 46.8462 139.684 46.6669Z" fill="#F28F8F"/>
<path d="M152.924 27.4436L149.336 25.5867C149.453 25.3501 149.616 25.1395 149.816 24.9679C150.016 24.7962 150.249 24.6671 150.501 24.5882C150.753 24.5093 151.018 24.4824 151.28 24.5092C151.543 24.5359 151.797 24.6156 152.027 24.7435C152.498 24.9891 152.855 25.4081 153.022 25.912C153.19 26.4159 153.155 26.9651 152.924 27.4436Z" fill="#263238"/>
<path d="M151.112 31.83C151.119 32.0397 151.085 32.2488 151.012 32.4453C150.938 32.6417 150.826 32.8218 150.683 32.9751C150.54 33.1284 150.368 33.2519 150.177 33.3386C149.985 33.4254 149.779 33.4736 149.569 33.4805C149.143 33.4782 148.734 33.307 148.433 33.0045C148.133 32.7019 147.964 32.2926 147.964 31.8659C147.947 31.6492 147.976 31.4314 148.048 31.2262C148.119 31.021 148.233 30.8329 148.38 30.6735C148.528 30.5141 148.707 30.387 148.906 30.3C149.106 30.2131 149.321 30.1682 149.538 30.1682C149.755 30.1682 149.97 30.2131 150.17 30.3C150.369 30.387 150.548 30.5141 150.696 30.6735C150.843 30.8329 150.957 31.021 151.028 31.2262C151.1 31.4314 151.129 31.6492 151.112 31.8659V31.83Z" fill="#263238"/>
<path d="M143.084 30.8526L143.398 41.0338L149.399 39.6344L143.084 30.8526Z" fill="#F28F8F"/>
<path d="M187.011 179.902C186.967 179.986 186.913 180.064 186.85 180.135L122.157 159.62C119.699 158.533 116.932 158.371 114.364 159.162C111.796 159.953 109.601 161.645 108.181 163.926L39.0204 266.716L36.4639 268.196C36.1796 268.395 35.8497 268.519 35.5047 268.556C35.1598 268.594 34.8109 268.544 34.4904 268.411L105.615 162.464C107.038 160.183 109.235 158.492 111.803 157.699C114.372 156.907 117.14 157.066 119.6 158.149L187.011 179.902Z" fill="#2E8B8B"/>
<path opacity="0.4" d="M101.812 174.017L101.974 173.874L39.0205 266.716L36.455 268.196C36.1685 268.393 35.8377 268.517 35.4919 268.556C35.1461 268.595 34.796 268.548 34.4726 268.42L99.3364 172.519L101.812 174.017Z" fill="white"/>
<path opacity="0.4" d="M187.011 179.911C186.965 179.993 186.911 180.071 186.85 180.144L122.157 159.62C119.698 158.529 116.929 158.364 114.358 159.155C111.788 159.947 109.591 161.641 108.172 163.926L105.615 162.437C107.04 160.164 109.236 158.479 111.8 157.692C114.365 156.905 117.127 157.067 119.582 158.149L187.011 179.911Z" fill="white"/>
<path d="M190.896 63.1273C190.752 62.2931 190.313 62.0599 189.739 62.4546C189.451 62.6709 189.2 62.9313 188.994 63.226L188.671 63.6745L124.83 160.732L115.304 174.008C114.689 174.783 113.875 175.375 112.948 175.721C112.022 176.068 111.019 176.154 110.047 175.973L101.821 174.017L39.0296 150.901C38.6096 150.799 38.1738 150.781 37.7468 150.847C37.5843 150.884 37.4253 150.935 37.2714 151L39.6396 149.636L99.8568 171.703L107.786 174.538C108.758 174.723 109.762 174.636 110.687 174.288C111.613 173.94 112.425 173.344 113.034 172.564L122.569 159.297L186.716 61.7907C186.915 61.5267 187.161 61.3017 187.442 61.1269L181.89 57.9246L184.222 56.588L188.061 58.8037C188.797 59.3003 189.426 59.9384 189.913 60.6807C190.399 61.423 190.734 62.2547 190.896 63.1273Z" fill="#2E8B8B"/>
<path opacity="0.4" d="M124.821 160.723L115.285 174.008C114.671 174.781 113.859 175.372 112.934 175.718C112.01 176.064 111.008 176.152 110.038 175.972L101.812 174.017L101.974 173.873L102.368 173.245L107.75 174.528C108.721 174.714 109.724 174.629 110.65 174.283C111.576 173.936 112.388 173.341 112.998 172.564L122.444 159.44L124.821 160.723Z" fill="white"/>
<path opacity="0.1" d="M188.025 58.7947L184.186 56.588L181.863 57.9246L187.406 61.1269C187.125 61.3017 186.879 61.5267 186.68 61.7907L122.524 159.297L122.435 159.423L124.812 160.714L188.644 63.6655L188.976 63.208C189.177 62.9117 189.429 62.6535 189.72 62.4456C190.286 62.0509 190.734 62.2751 190.869 63.1183C190.708 62.2441 190.373 61.4111 189.885 60.6684C189.396 59.9258 188.764 59.2886 188.025 58.7947Z" fill="black"/>
<path d="M40.2764 152.758L26.5788 144.846V262.733C26.6371 263.746 26.932 264.731 27.4398 265.61C27.9477 266.488 28.6543 267.236 29.5031 267.792L32.7952 269.694C33.701 270.15 34.701 270.387 35.715 270.387C36.7291 270.387 37.729 270.15 38.6348 269.694L40.2764 268.743V152.758Z" fill="#2E8B8B"/>
<path opacity="0.15" d="M40.2764 152.758L26.5788 144.846V262.733C26.6371 263.746 26.932 264.731 27.4398 265.61C27.9477 266.488 28.6543 267.236 29.5031 267.792L32.7952 269.694C33.701 270.15 34.701 270.387 35.715 270.387C36.7291 270.387 37.729 270.15 38.6348 269.694L40.2764 268.743V152.758Z" fill="black"/>
<path d="M190.949 63.8626V178.377C190.916 179.422 190.606 180.44 190.052 181.328C189.618 182.08 189.035 182.737 188.339 183.256L188.222 183.31L188.043 183.436L38.6348 269.685C38.349 269.887 38.0169 270.015 37.6689 270.056C37.3209 270.096 36.9683 270.049 36.6434 269.918C36.3921 269.774 36.1793 269.572 36.0231 269.328C35.8668 269.085 35.7719 268.807 35.7464 268.519C35.7324 268.345 35.7324 268.171 35.7464 267.998V153.484C35.7208 153.074 35.7952 152.664 35.963 152.289C36.1309 151.914 36.3873 151.585 36.7102 151.331C37.0331 151.077 37.4128 150.905 37.8168 150.83C38.2208 150.755 38.6369 150.78 39.0295 150.901L101.821 174.017L110.047 175.973C111.019 176.154 112.022 176.067 112.948 175.721C113.874 175.375 114.689 174.783 115.303 174.008L124.83 160.732L188.671 63.6743L188.994 63.2257C190.07 61.7188 190.949 62.0058 190.949 63.8626Z" fill="#2E8B8B"/>
<path d="M188.034 183.436C188.1 183.402 188.163 183.363 188.222 183.319L188.33 183.248C189.027 182.735 189.61 182.085 190.043 181.337C190.587 180.461 190.896 179.46 190.94 178.431L124.821 160.732L169.098 194.362L188.034 183.436Z" fill="#2E8B8B"/>
<path opacity="0.2" d="M188.034 183.436C188.1 183.402 188.163 183.363 188.222 183.319L188.33 183.248C189.027 182.735 189.61 182.085 190.043 181.337C190.587 180.461 190.896 179.46 190.94 178.431L124.821 160.732L169.098 194.362L188.034 183.436Z" fill="black"/>
<path d="M35.7106 267.981C35.6654 268.353 35.7254 268.73 35.884 269.069C36.0426 269.409 36.2933 269.697 36.6076 269.9C36.9316 270.034 37.2839 270.083 37.6321 270.044C37.9802 270.005 38.3127 269.878 38.599 269.676L90.0343 239.985L101.785 174.009L35.7195 266.097L35.7106 267.981Z" fill="#2E8B8B"/>
<path opacity="0.15" d="M108.154 163.926L36.6254 269.918C36.3112 269.714 36.0605 269.426 35.9019 269.087C35.7433 268.747 35.6832 268.37 35.7284 267.998V266.097L105.598 162.473L108.154 163.926Z" fill="black"/>
<path d="M190.043 181.337C189.61 182.085 189.027 182.735 188.33 183.247L188.222 183.319L38.6347 269.685C38.3484 269.886 38.0159 270.013 37.6678 270.052C37.3196 270.091 36.9673 270.042 36.6433 269.909L108.163 163.925C109.591 161.634 111.798 159.934 114.377 159.136C116.957 158.339 119.738 158.498 122.21 159.584L190.043 181.337Z" fill="#2E8B8B"/>
<path opacity="0.15" d="M27.126 134.252L29.5031 135.624C29.1584 136.653 28.962 137.725 28.92 138.809V146.209L26.5429 144.837V137.427C26.5858 136.347 26.7821 135.277 27.126 134.252Z" fill="black"/>
<path d="M39.6125 149.636L37.2443 150.999L34.8403 149.618L28.9469 146.218L31.2343 144.855L39.6125 149.636Z" fill="#2E8B8B"/>
<path opacity="0.1" d="M39.6843 149.681L31.2074 144.855L28.92 146.218L34.8135 149.618L37.2175 150.999C37.3604 150.933 37.5111 150.885 37.666 150.856C38.0891 150.782 38.5229 150.797 38.9398 150.901L43.7119 152.695L98.547 172.887L99.444 171.613L39.6843 149.681Z" fill="black"/>
<path d="M105.167 59.8715C97.5512 60.4187 92.3305 62.2307 87.4328 74.0176C84.2573 81.6333 71.8246 109.002 70.6226 113.54C69.2142 118.851 66.0298 159.244 66.0298 159.244L73.2957 161.935C73.2957 161.935 70.8109 170.627 68.7029 175.588C66.281 181.32 78.1127 180.118 81.9161 174.915C85.7195 169.712 88.3029 162.742 86.2218 160.293C84.5136 158.301 82.5812 156.514 80.4629 154.965L88.4105 118.932L105.086 83.4812C105.086 83.4812 113.473 66.1507 105.167 59.8715Z" fill="#FFA8A7"/>
<path d="M80.4809 155.028C78.2354 153.726 75.7018 153.001 73.1073 152.92C75.6298 152.21 78.2993 152.21 80.8218 152.92L80.4809 155.028Z" fill="#F28F8F"/>
<path d="M106.907 59.5484C102.637 59.5484 94.6627 59.3241 89.4959 68.6532C84.329 77.9822 77.0273 95.7523 77.0273 95.7523C77.0273 95.7523 80.0592 103.216 96.3133 104.776L108.755 78.2513C108.755 78.2513 111.796 66.0967 106.907 59.5484Z" fill="#37474F"/>
<path d="M162.056 65.6658C168.479 70.734 178.902 78.6906 183.971 81.875C187.801 77.2464 194.852 67.8635 196.529 65.8093C198.736 63.199 205.634 58.974 205.634 58.974L208.226 69.3705C208.226 69.3705 195.201 93.3928 190.483 97.8331C185.513 102.516 181.916 100.578 172.202 96.1287C163.025 91.9217 153.059 86.701 153.059 86.701C155.033 69.2449 153.696 59.7903 145.354 56.8481C150.915 57.5029 156.665 61.4229 162.056 65.6658Z" fill="#FFA8A7"/>
<path d="M178.822 78.3675C175.467 79.2645 168.533 89.1318 169.798 95.411L152.126 86.6739C154.261 74.6269 154.728 59.7632 144.546 56.8838C143.57 56.653 142.571 56.5267 141.568 56.507C146.636 56.0047 149.946 56.1572 155.257 60.149C160.567 64.1407 178.822 78.3675 178.822 78.3675Z" fill="#37474F"/>
<path d="M183.971 81.8747C181.441 84.0993 180.625 88.1001 180.131 89.6878C179.923 86.5831 180.76 83.498 182.508 80.9239L183.971 81.8747Z" fill="#F28F8F"/>
<path d="M208.576 47.3125L214.64 43.6348C214.64 43.6348 215.33 76.3313 215.357 77.3898C215.522 78.2174 215.973 78.9607 216.631 79.4888L210.567 83.1935C209.912 82.6628 209.462 81.9208 209.294 81.0945C209.276 79.9822 208.576 47.3125 208.576 47.3125Z" fill="#37474F"/>
<path d="M214.927 57.2431C214.927 57.2431 216.667 57.6557 217.331 60.3557C217.995 63.0558 218.336 68.2137 216.784 69.909C215.232 71.6044 213.115 72.3489 211.707 71.7031C209.078 70.5639 209.912 65.2266 211.985 63.9887C215.357 62.0242 214.954 59.8534 214.954 59.8534L214.927 57.2431Z" fill="#FFA8A7"/>
<path d="M201.149 47.3934L203.84 50.6317L204.315 73.6852L201.624 78.1703L210.594 83.1219C209.915 82.612 209.459 81.8603 209.32 81.0229L208.692 51.5108L201.149 47.3934Z" fill="#455A64"/>
<path d="M201.561 78.1971L201.588 79.6055L210.603 84.566L210.567 83.1487L201.561 78.1971Z" fill="#2E8B8B"/>
<path d="M210.603 84.5661L216.658 80.8883L216.622 79.4711L210.567 83.1488L210.603 84.5661Z" fill="#2E8B8B"/>
<path opacity="0.1" d="M210.603 84.5661L216.658 80.8883L216.622 79.4711L210.567 83.1488L210.603 84.5661Z" fill="black"/>
<path d="M202.889 31.3993C201.705 31.1033 200.341 31.5966 199.076 32.9511L199.032 33.005C197.75 34.5342 196.848 36.3441 196.397 38.2877C195.947 40.2314 195.961 42.2538 196.439 44.1908V44.2536C196.995 46.0477 198.036 47.1241 199.265 47.3484L204.503 48.6042L207.706 32.5654L202.889 31.3993Z" fill="#2E8B8B"/>
<path opacity="0.7" d="M202.889 31.3993C201.705 31.1033 200.341 31.5966 199.076 32.9511L199.032 33.005C197.75 34.5342 196.848 36.3441 196.397 38.2877C195.947 40.2314 195.961 42.2538 196.439 44.1908V44.2536C196.995 46.0477 198.036 47.1241 199.265 47.3484L204.503 48.6042L207.706 32.5654L202.889 31.3993Z" fill="white"/>
<path opacity="0.05" d="M199.283 47.3126L204.521 48.5685L205.58 43.2491L196.053 41.0424C196.018 42.0938 196.148 43.1442 196.439 44.1551V44.2179C197.013 46.0658 198.054 47.1243 199.283 47.3126Z" fill="black"/>
<path d="M213.501 31.848C212.72 31.7289 211.921 31.8059 211.178 32.0721C210.434 32.3383 209.768 32.7853 209.24 33.3729C209.087 33.5075 208.935 33.66 208.782 33.8214C208.63 33.9829 208.441 34.1982 208.28 34.4045C208.001 34.7499 207.743 35.1124 207.508 35.4899C207.054 36.2045 206.664 36.958 206.342 37.7414C205.451 39.9146 205.008 42.2459 205.042 44.5947C205.059 45.6973 205.225 46.7926 205.535 47.8509C206.19 49.9948 207.383 51.2865 208.809 51.6632L203.84 50.515C202.899 50.2433 202.044 49.7368 201.353 49.0432C200.663 48.3495 200.16 47.4916 199.893 46.5502C199.6 45.5374 199.437 44.4914 199.408 43.4375C199.35 41.0372 199.793 38.6511 200.709 36.4318C201.03 35.6524 201.417 34.9021 201.866 34.1892C202.104 33.8138 202.361 33.4515 202.638 33.1038C202.799 32.9005 202.97 32.7031 203.149 32.5118C203.293 32.3562 203.445 32.2095 203.606 32.0722C204.251 31.4869 205.021 31.0578 205.858 30.8183C206.695 30.5787 207.576 30.5351 208.432 30.6908H208.576H208.755L213.501 31.848Z" fill="#2E8B8B"/>
<path opacity="0.1" d="M203.84 50.5148C202.899 50.243 202.044 49.7365 201.353 49.0429C200.663 48.3493 200.16 47.4914 199.893 46.5499C199.6 45.5372 199.437 44.4912 199.408 43.4373L205.06 44.6034C205.077 45.7061 205.243 46.8014 205.553 47.8596C206.208 50.0035 207.401 51.2952 208.827 51.6719L203.84 50.5148Z" fill="black"/>
<path d="M216.891 35.6961C218.228 40.0916 216.775 46.3707 213.635 49.7256C212.065 51.412 210.361 52.0399 208.89 51.6901H208.809C207.383 51.3133 206.19 50.0216 205.535 47.8777C204.198 43.4823 205.652 37.2031 208.782 33.8483C210.352 32.1708 212.038 31.5429 213.501 31.8748C214.963 32.2067 216.219 33.4895 216.891 35.6961Z" fill="#2E8B8B"/>
<path opacity="0.2" d="M216.891 35.6961C218.228 40.0916 216.775 46.3707 213.635 49.7256C212.065 51.412 210.361 52.0399 208.89 51.6901H208.809C207.383 51.3133 206.19 50.0216 205.535 47.8777C204.198 43.4823 205.652 37.2031 208.782 33.8483C210.352 32.1708 212.038 31.5429 213.501 31.8748C214.963 32.2067 216.219 33.4895 216.891 35.6961Z" fill="black"/>
<path d="M237.666 28.1166C237.666 28.1166 231.8 33.8037 229.001 45.8956C228.491 48.0655 228.134 50.2686 227.934 52.4887C227.18 60.7054 228.965 65.666 228.965 65.666C225.377 61.1809 221.17 56.7585 215.644 54.0047C213.485 52.9538 211.272 52.0167 209.015 51.197C207.679 50.883 206.575 49.6541 205.974 47.6806C205.575 46.2887 205.423 44.8374 205.526 43.3929C205.572 42.4227 205.707 41.4589 205.93 40.5134C206.426 38.137 207.526 35.9284 209.123 34.0997C210.531 32.5927 212.065 31.9648 213.402 32.3057C215.786 32.5602 218.181 32.6919 220.578 32.7003C226.741 32.6914 232.464 30.5116 237.666 28.1166Z" fill="#2E8B8B"/>
<path opacity="0.7" d="M237.666 28.1166C237.666 28.1166 231.8 33.8037 229.001 45.8956C228.491 48.0655 228.134 50.2686 227.934 52.4887C227.18 60.7054 228.965 65.666 228.965 65.666C225.377 61.1809 221.17 56.7585 215.644 54.0047C213.485 52.9538 211.272 52.0167 209.015 51.197C207.679 50.883 206.575 49.6541 205.974 47.6806C205.575 46.2887 205.423 44.8374 205.526 43.3929C205.572 42.4227 205.707 41.4589 205.93 40.5134C206.426 38.137 207.526 35.9284 209.123 34.0997C210.531 32.5927 212.065 31.9648 213.402 32.3057C215.786 32.5602 218.181 32.6919 220.578 32.7003C226.741 32.6914 232.464 30.5116 237.666 28.1166Z" fill="white"/>
<path opacity="0.05" d="M227.934 52.4886C227.18 60.7053 228.965 65.6659 228.965 65.6659C225.377 61.1808 221.17 56.7584 215.644 54.0046C213.485 52.9537 211.272 52.0166 209.015 51.1969C207.679 50.8829 206.575 49.654 205.974 47.6806C205.575 46.2886 205.423 44.8373 205.526 43.3928C211.59 44.4602 221.592 46.7297 227.934 52.4886Z" fill="black"/>
<path d="M253.777 34.0459C255.149 39.0582 255.348 44.319 254.36 49.4209C253.176 56.2831 250.225 62.948 246 67.4331C238.545 75.4256 229.916 73.4162 226.723 62.948C225.987 60.4315 225.592 57.828 225.548 55.2067C225.443 48.2874 227.094 41.4545 230.347 35.3466C230.804 34.5213 231.244 33.7319 231.782 32.9694L232.428 32.0724C232.742 31.6329 233.056 31.2202 233.388 30.8166C233.719 30.4129 234.087 29.9824 234.455 29.5966C241.963 21.5952 250.592 23.5866 253.777 34.0459Z" fill="#2E8B8B"/>
<path opacity="0.1" d="M254.36 49.4207C253.176 56.2829 250.225 62.9478 246 67.4329C238.546 75.4254 229.916 73.416 226.723 62.9478C225.987 60.4313 225.592 57.8278 225.548 55.2065C226.57 56.3726 229.36 57.6284 229.934 55.9779C229.981 58.3015 230.334 60.6088 230.984 62.8401C231.881 65.8452 233.307 68.0698 235.056 69.2628C235.781 69.7668 236.614 70.0928 237.489 70.2143C238.363 70.3359 239.254 70.2496 240.088 69.9625C242.196 69.2009 244.073 67.9133 245.542 66.2219C249.13 62.4096 251.714 56.7045 252.988 50.7662C253.032 50.7841 253.741 51.0891 254.36 49.4207Z" fill="black"/>
<path d="M252.835 34.9699C254.243 39.5896 254.207 45.2947 253.032 50.7844C251.759 56.7227 249.157 62.4457 245.587 66.2402C244.118 67.9316 242.24 69.2192 240.133 69.9807C239.298 70.2679 238.408 70.3542 237.533 70.2326C236.659 70.111 235.826 69.785 235.101 69.2811C233.307 68.088 231.943 65.8634 231.028 62.8584C230.378 60.6271 230.025 58.3197 229.979 55.9961C229.979 55.0991 229.979 54.1393 229.979 53.1974C230.062 51.5263 230.26 49.8629 230.571 48.2189C230.634 47.8781 230.696 47.5372 230.768 47.2053C230.885 46.6402 231.01 46.0751 231.154 45.5189C231.63 43.6333 232.248 41.7862 233.002 39.9932V39.9304C233.491 38.7771 234.042 37.6512 234.652 36.5576C235.083 35.7862 235.549 35.0506 236.016 34.351L236.635 33.4539C236.895 33.122 237.155 32.7901 237.415 32.4762C237.675 32.1622 237.944 31.8662 238.214 31.5792C239.68 29.8847 241.558 28.5965 243.667 27.8386C247.704 26.6814 251.113 29.3097 252.835 34.9699Z" fill="#2E8B8B"/>
<path opacity="0.3" d="M252.835 34.9699C254.243 39.5896 254.207 45.2947 253.032 50.7844C251.759 56.7227 249.157 62.4457 245.587 66.2402C244.118 67.9316 242.24 69.2192 240.133 69.9807C239.298 70.2679 238.408 70.3542 237.533 70.2326C236.659 70.111 235.826 69.785 235.101 69.2811C233.307 68.088 231.943 65.8634 231.028 62.8584C230.378 60.6271 230.025 58.3197 229.979 55.9961C229.979 55.0991 229.979 54.1393 229.979 53.1974C230.062 51.5263 230.26 49.8629 230.571 48.2189C230.634 47.8781 230.696 47.5372 230.768 47.2053C230.885 46.6402 231.01 46.0751 231.154 45.5189C231.63 43.6333 232.248 41.7862 233.002 39.9932V39.9304C233.491 38.7771 234.042 37.6512 234.652 36.5576C235.083 35.7862 235.549 35.0506 236.016 34.351L236.635 33.4539C236.895 33.122 237.155 32.7901 237.415 32.4762C237.675 32.1622 237.944 31.8662 238.214 31.5792C239.68 29.8847 241.558 28.5965 243.667 27.8386C247.704 26.6814 251.113 29.3097 252.835 34.9699Z" fill="black"/>
<path d="M239.721 41.7869L237.245 54.2734C235.451 54.1658 232.41 54.0223 230.015 54.1389C230.015 53.8249 230.015 53.511 230.015 53.2418C230.102 51.5711 230.3 49.908 230.607 48.2634C230.67 47.9225 230.741 47.5906 230.804 47.2497C230.921 46.6846 231.055 46.1195 231.199 45.5723C231.672 43.684 232.287 41.8339 233.038 40.0377C233.041 40.0169 233.041 39.9957 233.038 39.9749C233.154 39.7147 233.262 39.4546 233.379 39.2034C235.412 40.2497 237.535 41.1142 239.721 41.7869Z" fill="#2E8B8B"/>
<g opacity="0.4">
<path d="M239.721 41.7869L237.245 54.2734C235.451 54.1658 232.41 54.0223 230.015 54.1389C230.015 53.8249 230.015 53.511 230.015 53.2418C230.102 51.5711 230.3 49.908 230.607 48.2634C230.67 47.9225 230.741 47.5906 230.804 47.2497C230.921 46.6846 231.055 46.1195 231.199 45.5723C231.672 43.684 232.287 41.8339 233.038 40.0377C233.041 40.0169 233.041 39.9957 233.038 39.9749C233.154 39.7147 233.262 39.4546 233.379 39.2034C235.412 40.2497 237.535 41.1142 239.721 41.7869Z" fill="white"/>
</g>
<path d="M237.684 54.1032C236.384 54.4979 235.28 53.6906 234.751 51.9234V51.8696C234.374 50.3383 234.362 48.7397 234.718 47.2031C235.073 45.6666 235.785 44.2352 236.796 43.025C237.237 42.5157 237.803 42.1295 238.438 41.9037C239.738 41.509 240.833 42.3253 241.371 44.0835V44.1373C241.749 45.6685 241.761 47.2673 241.405 48.804C241.05 50.3407 240.338 51.772 239.326 52.9819C238.88 53.484 238.316 53.8664 237.684 54.0942V54.1032Z" fill="#2E8B8B"/>
<g opacity="0.7">
<path d="M237.684 54.1032C236.384 54.4979 235.28 53.6906 234.751 51.9234V51.8696C234.374 50.3383 234.362 48.7397 234.718 47.2031C235.073 45.6666 235.785 44.2352 236.796 43.025C237.237 42.5157 237.803 42.1295 238.438 41.9037C239.738 41.509 240.833 42.3253 241.371 44.0835V44.1373C241.749 45.6685 241.761 47.2673 241.405 48.804C241.05 50.3407 240.338 51.772 239.326 52.9819C238.88 53.484 238.316 53.8664 237.684 54.0942V54.1032Z" fill="white"/>
</g>
<path d="M234.661 21.963C234.492 22.0168 234.313 22.0362 234.136 22.0201C233.959 22.0039 233.787 21.9526 233.629 21.869C233.472 21.7855 233.334 21.6714 233.221 21.5335C233.109 21.3956 233.025 21.2367 232.975 21.066L229.163 8.5615C229.088 8.22823 229.141 7.87893 229.313 7.5836C229.485 7.28826 229.761 7.06868 230.088 6.96886C230.415 6.86904 230.767 6.89634 231.075 7.0453C231.382 7.19426 231.622 7.45386 231.746 7.77212L235.558 20.2766C235.612 20.4462 235.631 20.6248 235.615 20.802C235.599 20.9792 235.548 21.1513 235.464 21.3084C235.381 21.4655 235.267 21.6043 235.129 21.7167C234.991 21.8291 234.832 21.9129 234.661 21.963Z" fill="#78D0CC"/>
<path d="M224.211 28.4752C223.984 28.5445 223.742 28.5527 223.511 28.4992C223.279 28.4457 223.066 28.3322 222.892 28.1702L213.339 19.2C213.196 19.0823 213.079 18.9365 212.995 18.7718C212.91 18.607 212.86 18.4267 212.848 18.2419C212.837 18.0572 212.863 17.872 212.925 17.6977C212.987 17.5234 213.085 17.3638 213.211 17.2286C213.338 17.0935 213.491 16.9857 213.661 16.912C213.83 16.8383 214.014 16.8001 214.199 16.7999C214.384 16.7997 214.567 16.8375 214.737 16.9109C214.907 16.9842 215.06 17.0917 215.187 17.2265L224.74 26.1968C224.87 26.3176 224.976 26.4632 225.049 26.6249C225.123 26.7866 225.164 26.9613 225.17 27.139C225.176 27.3166 225.146 27.4937 225.083 27.6599C225.02 27.8261 224.925 27.9782 224.803 28.1074C224.645 28.2838 224.439 28.4114 224.211 28.4752Z" fill="#78D0CC"/>
<path d="M230.75 92.3699C230.521 92.4284 230.28 92.4284 230.051 92.3699C229.701 92.2888 229.398 92.0722 229.208 91.7678C229.018 91.4634 228.956 91.096 229.037 90.7463L231.988 78.0086C232.022 77.8294 232.092 77.6589 232.194 77.5073C232.295 77.3558 232.426 77.2263 232.579 77.1266C232.732 77.027 232.903 76.9592 233.083 76.9274C233.262 76.8956 233.446 76.9003 233.624 76.9414C233.802 76.9825 233.97 77.0591 234.117 77.1666C234.264 77.274 234.388 77.4102 234.482 77.5668C234.575 77.7234 234.636 77.8973 234.661 78.078C234.686 78.2587 234.674 78.4426 234.625 78.6185L231.647 91.3832C231.596 91.6111 231.486 91.8217 231.329 91.9946C231.171 92.1675 230.972 92.2968 230.75 92.3699Z" fill="#78D0CC"/>
<path d="M254.477 86.9702C254.134 87.0738 253.764 87.0376 253.448 86.8695C253.132 86.7014 252.896 86.4151 252.79 86.0731L248.978 73.5686C248.91 73.3949 248.879 73.2091 248.886 73.0227C248.894 72.8364 248.939 72.6537 249.021 72.4859C249.102 72.3181 249.217 72.1688 249.359 72.0476C249.5 71.9263 249.666 71.8356 249.844 71.7811C250.022 71.7266 250.21 71.7095 250.395 71.7309C250.58 71.7523 250.759 71.8117 250.92 71.9054C251.082 71.9991 251.222 72.1251 251.332 72.2755C251.442 72.4258 251.52 72.5973 251.561 72.7792L255.374 85.2837C255.477 85.6263 255.441 85.996 255.273 86.312C255.105 86.628 254.819 86.8646 254.477 86.9702Z" fill="#78D0CC"/>
<path d="M268.551 69.8995C268.324 69.9687 268.082 69.977 267.851 69.9235C267.619 69.87 267.406 69.7565 267.232 69.5945L257.679 60.6243C257.441 60.3747 257.307 60.0437 257.304 59.6987C257.302 59.3538 257.431 59.0209 257.666 58.768C257.9 58.5151 258.223 58.3612 258.567 58.3378C258.911 58.3143 259.251 58.4231 259.518 58.6418L269.08 67.5672C269.21 67.6881 269.316 67.8336 269.389 67.9954C269.463 68.1571 269.504 68.3318 269.51 68.5095C269.516 68.6871 269.486 68.8642 269.423 69.0304C269.36 69.1966 269.265 69.3487 269.143 69.4779C268.986 69.6684 268.782 69.8139 268.551 69.8995Z" fill="#78D0CC"/>
<path d="M277.521 53.0535C277.292 53.1124 277.051 53.1124 276.822 53.0535L264.084 50.1023C263.735 50.019 263.434 49.8021 263.244 49.4982C263.055 49.1944 262.992 48.8282 263.07 48.4787C263.109 48.305 263.182 48.1408 263.285 47.9956C263.388 47.8504 263.519 47.7271 263.67 47.6328C263.821 47.5385 263.99 47.4751 264.165 47.4464C264.341 47.4176 264.521 47.4239 264.694 47.465L277.432 50.4163C277.72 50.4851 277.978 50.6467 278.166 50.8763C278.353 51.1059 278.461 51.3908 278.471 51.6872C278.481 51.9837 278.394 52.2752 278.222 52.5172C278.051 52.7591 277.804 52.9381 277.521 53.0266V53.0535Z" fill="#78D0CC"/>
<path d="M276.875 33.9735L264.362 37.7859C264.192 37.8384 264.014 37.8569 263.837 37.8401C263.66 37.8234 263.489 37.7719 263.332 37.6885C263.175 37.6051 263.036 37.4915 262.924 37.3543C262.811 37.217 262.727 37.0589 262.675 36.8888C262.572 36.5463 262.608 36.1766 262.776 35.8606C262.944 35.5446 263.23 35.308 263.572 35.2024L276.131 31.3901C276.464 31.3151 276.813 31.3689 277.109 31.5405C277.404 31.7122 277.624 31.9891 277.723 32.3158C277.823 32.6425 277.796 32.9948 277.647 33.3022C277.498 33.6096 277.238 33.8494 276.92 33.9735H276.875Z" fill="#78D0CC"/>
<path d="M257.849 27.3355C257.565 27.4228 257.259 27.4137 256.98 27.3097C256.701 27.2058 256.464 27.0127 256.305 26.7604C256.147 26.5081 256.076 26.2106 256.104 25.9141C256.132 25.6175 256.257 25.3384 256.459 25.1199L265.384 15.5666C265.506 15.4364 265.652 15.3314 265.813 15.2576C265.975 15.1837 266.15 15.1425 266.328 15.1363C266.506 15.13 266.683 15.1589 266.85 15.2212C267.017 15.2834 267.169 15.3779 267.3 15.4993C267.43 15.6206 267.535 15.7664 267.609 15.9283C267.682 16.0902 267.724 16.2651 267.73 16.4429C267.736 16.6208 267.707 16.7981 267.645 16.9648C267.583 17.1315 267.488 17.2842 267.367 17.4144L258.441 26.9677C258.28 27.1402 258.076 27.267 257.849 27.3355Z" fill="#78D0CC"/>
<path d="M246.969 21.5503C246.742 21.6088 246.504 21.6088 246.278 21.5503C246.104 21.5112 245.94 21.4381 245.795 21.335C245.65 21.232 245.526 21.1012 245.432 20.9502C245.338 20.7992 245.274 20.631 245.245 20.4553C245.217 20.2796 245.223 20.0999 245.264 19.9267L248.215 7.18897C248.249 7.00977 248.319 6.83928 248.421 6.68772C248.522 6.53617 248.653 6.40669 248.806 6.30703C248.959 6.20738 249.13 6.13961 249.31 6.10779C249.489 6.07597 249.674 6.08076 249.851 6.12186C250.029 6.16297 250.197 6.23954 250.344 6.34699C250.491 6.45445 250.616 6.59056 250.709 6.74718C250.803 6.9038 250.864 7.07769 250.888 7.25842C250.913 7.43916 250.901 7.62301 250.853 7.79895L247.901 20.5367C247.848 20.7725 247.734 20.9902 247.57 21.1681C247.407 21.346 247.199 21.4778 246.969 21.5503Z" fill="#78D0CC"/>
<path d="M196.565 65.8095C199.139 62.5443 199.256 60.4901 201.247 58.8845C203.239 57.2788 205.284 57.1801 208.28 58.0413C210.531 58.6871 213.178 58.3642 214.093 59.1984C214.353 59.3778 213.949 60.822 212.891 61.3423C211.617 61.9702 209.554 61.8177 208.038 61.8267C204.575 61.8267 207.419 65.2354 204.082 68.68C202.674 71.1468 196.565 65.8095 196.565 65.8095Z" fill="#FFA8A7"/>
</svg>
