<svg width="32" height="32" viewBox="0 0 32 32" fill="none" xmlns="http://www.w3.org/2000/svg">
<path d="M21.3334 9.33333H20.5834C20.5834 11.8646 18.5313 13.9167 16 13.9167V14.6667V15.4167C19.3598 15.4167 22.0834 12.6931 22.0834 9.33333H21.3334ZM16 14.6667V13.9167C13.4687 13.9167 11.4167 11.8646 11.4167 9.33333H10.6667H9.91669C9.91669 12.6931 12.6403 15.4167 16 15.4167V14.6667ZM10.6667 9.33333H11.4167C11.4167 6.80203 13.4687 4.75 16 4.75V4V3.25C12.6403 3.25 9.91669 5.9736 9.91669 9.33333H10.6667ZM16 4V4.75C18.5313 4.75 20.5834 6.80203 20.5834 9.33333H21.3334H22.0834C22.0834 5.9736 19.3598 3.25 16 3.25V4ZM25.3334 23.3333H24.5834C24.5834 24.1849 23.8735 25.1577 22.2643 25.9623C20.6999 26.7446 18.4862 27.25 16 27.25V28V28.75C18.6685 28.75 21.1215 28.2108 22.9351 27.304C24.7038 26.4196 26.0834 25.0591 26.0834 23.3333H25.3334ZM16 28V27.25C13.5139 27.25 11.3002 26.7446 9.73577 25.9623C8.12649 25.1577 7.41669 24.1849 7.41669 23.3333H6.66669H5.91669C5.91669 25.0591 7.29622 26.4196 9.06495 27.304C10.8785 28.2108 13.3315 28.75 16 28.75V28ZM6.66669 23.3333H7.41669C7.41669 22.4818 8.12649 21.509 9.73577 20.7043C11.3002 19.9221 13.5139 19.4167 16 19.4167V18.6667V17.9167C13.3315 17.9167 10.8785 18.4559 9.06495 19.3627C7.29622 20.247 5.91669 21.6075 5.91669 23.3333H6.66669ZM16 18.6667V19.4167C18.4862 19.4167 20.6999 19.9221 22.2643 20.7043C23.8735 21.509 24.5834 22.4818 24.5834 23.3333H25.3334H26.0834C26.0834 21.6075 24.7038 20.247 22.9351 19.3627C21.1215 18.4559 18.6685 17.9167 16 17.9167V18.6667Z" fill="#2E8B8B"/>
</svg>
