<svg width="32" height="32" viewBox="0 0 32 32" fill="none" xmlns="http://www.w3.org/2000/svg">
<path d="M21.3333 10.6667H10.6667M21.3333 10.6667C24.2788 10.6667 26.6667 13.0546 26.6667 16.0001V24.0001C26.6667 26.9456 24.2788 29.3334 21.3333 29.3334H10.6667C7.72114 29.3334 5.33333 26.9456 5.33333 24.0001V16.0001C5.33333 13.0546 7.72114 10.6667 10.6667 10.6667M21.3333 10.6667V8.00008C21.3333 5.05456 18.9455 2.66675 16 2.66675C13.0545 2.66675 10.6667 5.05456 10.6667 8.00008V10.6667M18.6667 20.0001C18.6667 21.4728 17.4728 22.6667 16 22.6667C14.5272 22.6667 13.3333 21.4728 13.3333 20.0001C13.3333 18.5273 14.5272 17.3334 16 17.3334C17.4728 17.3334 18.6667 18.5273 18.6667 20.0001Z" stroke="#2E8B8B" stroke-width="1.5" stroke-linecap="round" stroke-linejoin="round"/>
</svg>
