<svg width="156" height="48" viewBox="0 0 156 48" fill="none" xmlns="http://www.w3.org/2000/svg">
<path d="M77.2885 48V47.922C77.3665 47.8246 77.5029 47.7661 77.6198 47.7856C78.185 47.7661 78.7307 47.7661 79.2958 47.7856C79.4127 47.7856 79.5492 47.8246 79.6271 47.922V48H77.2885Z" fill="#D1EFFA"/>
<path d="M79.6276 47.922C78.8479 47.9025 78.0682 47.9025 77.2885 47.922C76.2164 47.8636 75.1443 47.8246 74.0722 47.7466C71.2263 47.5323 68.3998 47.1035 65.6319 46.4604C56.061 44.2387 47.6596 39.7759 40.3304 33.2862C39.6481 32.6821 39.0049 32.0584 38.3421 31.4348C38.1862 31.2984 38.0497 31.1035 37.9717 30.9086C37.8548 30.6358 37.9133 30.3435 38.1082 30.1291C38.3031 29.9147 38.615 29.8368 38.8879 29.9537C39.0633 30.0316 39.2388 30.1096 39.3947 30.207C46.3926 34.5335 54.0337 37.6906 62.0452 39.5615C64.7352 40.1851 67.4447 40.6723 70.1737 41.0231C74.0917 41.5103 78.0487 41.6857 81.9862 41.5493C84.1109 41.4908 86.2162 41.296 88.3214 41.0231C93.2335 40.3995 98.0872 39.2886 102.785 37.7296C105.261 36.9111 107.678 35.9756 110.036 34.8843C110.387 34.6894 110.816 34.6309 111.206 34.7284C111.849 34.8843 112.239 35.5469 112.083 36.19C112.063 36.2679 112.024 36.3654 111.985 36.4433C111.83 36.7357 111.615 36.989 111.342 37.1839C109.101 38.9379 106.683 40.4774 104.13 41.7637C99.3152 44.1997 94.1692 45.9342 88.8672 46.9281C85.8068 47.4738 82.727 47.8051 79.6276 47.922ZM50.7589 8.41897C51.2463 8.12665 51.7531 7.81483 52.2794 7.542C53.6439 6.84041 55.1643 6.48962 56.7042 6.56757C57.8153 6.62604 58.8289 6.93785 59.6086 7.75637C60.3494 8.51642 60.6223 9.45186 60.7002 10.4653C60.7197 10.6796 60.7197 10.894 60.7197 11.1279V21.2229C60.7197 22.0999 60.6028 22.2168 59.7256 22.2168H57.3475C57.1915 22.2168 57.0356 22.2168 56.8797 22.1973C56.6457 22.1778 56.4508 21.9829 56.4118 21.7491C56.3728 21.5347 56.3728 21.3203 56.3728 21.1059V12.0828C56.3923 11.7125 56.3534 11.3617 56.2559 11.0109C56.0999 10.4068 55.5541 9.97805 54.9304 9.93907C53.7803 9.86112 52.6302 10.095 51.5776 10.5822C51.4217 10.6212 51.3242 10.7771 51.3437 10.933V21.1839C51.3437 21.3788 51.3437 21.5542 51.3047 21.7491C51.3047 22.0219 51.0903 22.2168 50.8174 22.2168C50.525 22.2363 50.2326 22.2363 49.9208 22.2363H47.8545C47.1333 22.2363 46.9774 22.0609 46.9774 21.3398V12.1218C46.9774 11.7905 46.9579 11.4397 46.8799 11.1084C46.7435 10.4458 46.1782 9.97805 45.5154 9.93907C44.3459 9.86112 43.1568 10.095 42.1042 10.6017C41.9483 10.6407 41.8508 10.8161 41.8898 10.972V21.3593C41.8898 22.0804 41.7338 22.2363 41.0126 22.2363H38.4006C37.7183 22.2363 37.5429 22.0414 37.5429 21.3788V7.85381C37.5429 7.6979 37.5624 7.542 37.6014 7.38609C37.6794 7.15223 37.9133 7.01581 38.1472 7.01581H40.5838C40.9346 7.01581 41.1491 7.23018 41.266 7.56148C41.3635 7.83432 41.422 8.08767 41.5194 8.38C41.7143 8.38 41.8313 8.24358 41.9677 8.16563C43.0398 7.50302 44.1704 6.93785 45.4374 6.70399C46.4121 6.50911 47.3867 6.50911 48.3614 6.70399C49.2775 6.89888 50.0962 7.44455 50.6225 8.22409C50.6615 8.28256 50.7005 8.32153 50.7395 8.36051C50.72 8.38 50.7395 8.38 50.7589 8.41897Z" fill="#00A8E1"/>
<path d="M91.1673 18.1242C91.2843 17.7345 91.4012 17.3642 91.5182 16.9744C92.4148 13.9537 93.3115 10.9525 94.2082 7.93178L94.3251 7.58099C94.4226 7.23019 94.754 7.01582 95.1048 7.01582H98.0677C98.8084 7.01582 98.9644 7.23019 98.711 7.93178L97.5414 11.0304C96.2354 14.4214 94.9294 17.8319 93.6234 21.2229C93.5844 21.3398 93.5259 21.4567 93.4869 21.5737C93.3505 21.9829 92.9411 22.2558 92.5123 22.2168C91.6546 22.1973 90.7969 22.1973 89.9393 22.2168C89.335 22.2363 88.9841 21.9634 88.7697 21.4178C88.2824 20.1315 87.7756 18.8258 87.2883 17.5396C86.1187 14.4799 84.9297 11.4202 83.7601 8.34103C83.6431 8.10717 83.5652 7.83433 83.5067 7.58099C83.4482 7.19122 83.5846 6.99633 83.9745 6.99633C85.0856 6.97684 86.1967 6.99633 87.2883 6.99633C87.7561 6.99633 87.9705 7.30815 88.0875 7.7174C88.3019 8.45796 88.5163 9.21801 88.7502 9.95857C89.5494 12.6675 90.3291 15.3958 91.1283 18.1047C91.1088 18.1242 91.1283 18.1242 91.1673 18.1242Z" fill="#232F3E"/>
<path d="M21.9488 9.15956C22.0852 9.12059 22.2022 9.04263 22.2801 8.9257C22.631 8.57491 23.0014 8.24361 23.3912 7.93179C24.4049 7.15226 25.6719 6.76249 26.9389 6.85993C27.4457 6.87942 27.6211 7.03533 27.6601 7.52254C27.6991 8.18514 27.6796 8.86724 27.6796 9.52984C27.6991 9.80268 27.6796 10.056 27.6406 10.3289C27.5627 10.6797 27.4262 10.8161 27.0753 10.8551C26.8025 10.8745 26.549 10.8551 26.2762 10.8356C24.9701 10.7186 23.7031 10.972 22.4751 11.3812C22.2022 11.4787 22.2022 11.6736 22.2022 11.8879V21.2424C22.2022 21.4178 22.2022 21.5737 22.1827 21.7491C22.1632 22.0024 21.9683 22.1973 21.7149 22.1973C21.5784 22.2168 21.4225 22.2168 21.286 22.2168H18.752C18.6155 22.2168 18.4596 22.2168 18.3231 22.1973C18.0697 22.1778 17.8748 21.9635 17.8553 21.7101C17.8358 21.5542 17.8358 21.3983 17.8358 21.2424V7.99026C17.8358 7.09379 17.9333 6.99635 18.8299 6.99635H20.7012C21.2081 6.99635 21.442 7.17174 21.5784 7.65896C21.7149 8.14617 21.8318 8.63338 21.9488 9.15956ZM113.136 28.9208C114.422 28.9598 115.689 29.0378 116.937 29.3691C117.288 29.4665 117.619 29.5834 117.95 29.7393C118.399 29.9147 118.691 30.3435 118.749 30.8112C118.827 31.3569 118.847 31.922 118.808 32.4872C118.555 35.8197 117.521 39.0353 115.806 41.9001C115.182 42.933 114.422 43.8685 113.545 44.687C113.369 44.8624 113.155 44.9988 112.921 45.0767C112.551 45.1742 112.317 44.9793 112.297 44.609C112.317 44.4141 112.356 44.2192 112.434 44.0244C113.116 42.1924 113.779 40.38 114.305 38.4896C114.617 37.4568 114.831 36.4044 114.968 35.3325C115.007 34.9428 115.026 34.553 114.987 34.1632C114.968 33.5006 114.539 32.9354 113.896 32.7406C113.292 32.5457 112.668 32.4287 112.024 32.3898C110.231 32.3118 108.438 32.3898 106.664 32.6236L104.305 32.916C104.052 32.9354 103.818 32.916 103.682 32.6821C103.545 32.4482 103.604 32.2144 103.74 31.9805C103.896 31.7661 104.091 31.5713 104.325 31.4348C105.767 30.402 107.385 29.7783 109.101 29.3691C110.426 29.0962 111.771 28.9598 113.136 28.9208Z" fill="#00A8E1"/>
<path d="M104.967 14.6164V21.6322C104.928 22.022 104.753 22.1974 104.363 22.2168C103.311 22.2363 102.278 22.2363 101.225 22.2168C100.836 22.2168 100.66 22.022 100.621 21.6517C100.602 21.5347 100.602 21.3983 100.602 21.2814V7.79541C100.621 7.19127 100.777 7.01587 101.381 7.01587H104.188C104.792 7.01587 104.967 7.19127 104.967 7.79541V14.6164Z" fill="#232F3E"/>
<path d="M29.5509 14.5773V7.65894C29.5703 7.19122 29.7457 7.01583 30.2135 6.99634C31.2269 6.97685 32.2403 6.97685 33.2537 6.99634C33.7019 6.99634 33.8383 7.13276 33.8773 7.58099C33.8968 7.75639 33.8968 7.91229 33.8968 8.08769V21.067C33.8968 21.2814 33.8773 21.4957 33.8578 21.7101C33.8383 21.9635 33.6434 22.1388 33.3901 22.1583C33.2731 22.1778 33.1757 22.1778 33.0588 22.1778H30.3499C30.2524 22.1778 30.1745 22.1778 30.077 22.1583C29.8042 22.1388 29.5703 21.9245 29.5509 21.6516C29.5314 21.4957 29.5314 21.3398 29.5314 21.1839C29.5509 19.0207 29.5509 16.799 29.5509 14.5773ZM31.8115 0.0194811C32.1233 -7.34255e-06 32.4351 0.0584579 32.7275 0.1559C33.7798 0.506692 34.3255 1.42265 34.2281 2.61144C34.1501 3.62484 33.3901 4.44335 32.3767 4.59926C31.9479 4.67722 31.4997 4.67722 31.071 4.59926C29.9601 4.38489 29.1416 3.56638 29.2196 2.16321C29.3365 0.77953 30.2524 0.0194811 31.8115 0.0194811Z" fill="#00A8E1"/>
<path d="M102.804 0.0194541C103.194 -0.0195227 103.583 0.058431 103.954 0.214338C104.714 0.506665 105.24 1.20825 105.279 2.02676C105.435 3.80021 104.246 4.69668 102.668 4.6577C102.453 4.6577 102.239 4.61872 102.024 4.57975C100.816 4.28742 100.192 3.35198 100.309 2.00727C100.407 0.93541 101.245 0.136385 102.395 0.0389425C102.531 0.0194541 102.668 -3.43164e-05 102.804 0.0194541Z" fill="#232F3E"/>
<path d="M14.9509 12.9792C14.8729 11.9658 14.6 10.9719 14.1907 10.056C13.3915 8.37997 12.1634 7.1522 10.2921 6.72346C8.14794 6.25574 6.21817 6.72346 4.46383 8.02918C4.34687 8.14611 4.21042 8.24356 4.05448 8.32151C4.01549 8.30202 3.97651 8.28253 3.97651 8.26304C3.91803 8.06816 3.87905 7.87328 3.82057 7.67839C3.66463 7.19118 3.4697 7.01578 2.9434 7.01578C2.35862 7.01578 1.75434 7.03527 1.16956 7.01578C0.72123 6.9963 0.311883 7.05476 0 7.40555C0 14.2265 0 21.0669 0.0194927 27.8684C0.272898 28.2777 0.662751 28.3556 1.11108 28.3361C1.81282 28.3166 2.51456 28.3361 3.21629 28.3361C4.44433 28.3361 4.44433 28.3361 4.44433 27.1278V21.5736C4.44433 21.4372 4.38586 21.2813 4.5223 21.1644C5.49694 21.9244 6.68599 22.3922 7.91403 22.5091C9.62939 22.6845 11.1888 22.2557 12.4948 21.0864C13.45 20.2094 14.1517 19.0791 14.5221 17.8319C15.0484 16.2338 15.0873 14.6163 14.9509 12.9792ZM10.2921 17.0133C10.1557 17.6175 9.84381 18.1632 9.39548 18.5724C8.88867 19.0012 8.2649 19.2545 7.60215 19.2545C6.60802 19.313 5.63339 19.0986 4.75622 18.6309C4.5418 18.5334 4.40535 18.3191 4.42484 18.0852V14.5578C4.42484 13.3885 4.44433 12.2192 4.42484 11.0499C4.40535 10.7771 4.56129 10.5432 4.81469 10.4457C5.88679 9.93905 6.99788 9.70519 8.16744 9.93905C8.98613 10.056 9.68787 10.5822 10.0192 11.3422C10.3116 11.9658 10.4871 12.6479 10.5261 13.33C10.643 14.5773 10.643 15.8246 10.2921 17.0133Z" fill="#00A8E1"/>
<path d="M155.961 16.0195C155.961 16 155.961 16 155.961 16.0195V16.0195ZM155.98 13.408V13.486C155.903 13.408 155.864 13.2911 155.902 13.1936V13.0377C155.902 13.0377 155.903 13.0182 155.922 13.0182H155.902V12.8234H155.941C155.941 12.8039 155.922 12.8039 155.922 12.7844C155.883 12.4141 155.805 12.0438 155.708 11.693C154.986 9.12056 153.368 7.42507 150.737 6.76246C149.509 6.47013 148.261 6.43116 147.014 6.62604C144.382 7.01581 142.492 8.41898 141.575 10.9135C140.679 13.2911 140.698 15.9025 141.595 18.2801C142.375 20.4433 143.934 21.8075 146.176 22.3727C147.365 22.665 148.612 22.743 149.84 22.5676C153.934 22.0804 155.63 18.9817 155.902 16.2923H155.883V16.0195C155.864 15.9025 155.844 15.8051 155.961 15.7271V15.7661C155.961 15.7466 155.98 15.7076 156 15.6882V13.447C156 13.4275 155.98 13.4275 155.98 13.408ZM151.302 17.1108C151.185 17.5201 151.01 17.8904 150.756 18.2411C150.328 18.8453 149.645 19.2351 148.905 19.2935C148.534 19.3325 148.164 19.3325 147.794 19.2545C146.975 19.0986 146.293 18.553 145.961 17.7929C145.669 17.1888 145.493 16.5262 145.435 15.8636C145.337 14.7137 145.318 13.5639 145.591 12.4336C145.688 11.9854 145.883 11.5371 146.117 11.1474C146.546 10.4458 147.287 9.99754 148.105 9.93908C148.476 9.9001 148.846 9.9001 149.217 9.97805C149.996 10.134 150.639 10.6407 150.99 11.3617C151.322 12.0438 151.517 12.8039 151.556 13.5639C151.575 13.9147 151.595 14.2655 151.575 14.6163C151.634 15.4738 151.536 16.3118 151.302 17.1108ZM121.81 0.155884H119.1C118.36 0.155884 118.223 0.292303 118.223 1.03286V7.34711C118.223 7.48353 118.282 7.61995 118.184 7.75637C118.009 7.73688 117.911 7.61995 117.775 7.542C115.748 6.3532 113.623 6.13883 111.479 7.13274C109.978 7.83432 109.042 9.10107 108.438 10.6017C107.853 12.0438 107.717 13.5639 107.756 15.1035C107.756 16.5457 108.087 17.9683 108.73 19.2545C109.471 20.6772 110.543 21.7686 112.102 22.2363C114.227 22.8989 116.215 22.5676 118.028 21.2229C118.165 21.1449 118.243 21.0085 118.418 20.9695C118.516 21.1839 118.593 21.4178 118.632 21.6516C118.71 21.9634 118.983 22.1778 119.315 22.1778H119.783C120.484 22.1778 121.167 22.1973 121.849 22.1778C122.395 22.1778 122.551 22.0024 122.57 21.4372V0.896444C122.551 0.292303 122.395 0.155884 121.81 0.155884ZM118.243 14.4994V18.0463C118.282 18.2801 118.145 18.4945 117.931 18.5919C116.995 19.1181 115.923 19.3325 114.87 19.1766C113.974 19.0791 113.194 18.5335 112.785 17.7344C112.473 17.1108 112.297 16.4482 112.239 15.7661C112.083 14.5383 112.18 13.2911 112.473 12.1023C112.57 11.771 112.687 11.4592 112.863 11.1474C113.272 10.3873 114.052 9.9001 114.909 9.84163C115.942 9.74419 116.976 9.93908 117.911 10.3678C118.145 10.4458 118.282 10.6796 118.262 10.933C118.223 12.1413 118.243 13.3106 118.243 14.4994Z" fill="#232F3E"/>
<path d="M67.8346 15.8442C69.2965 16.117 70.7975 16.1365 72.2594 15.9026C73.1171 15.7857 73.9358 15.5323 74.696 15.1231C75.5732 14.6164 76.2164 13.9148 76.4893 12.9404C77.1716 10.4848 76.119 8.0098 73.5654 7.09385C72.3179 6.68459 70.9924 6.54817 69.6864 6.72357C66.6065 7.07436 64.5988 8.76985 63.6826 11.7126C63.0394 13.7199 63.1173 15.7662 63.6436 17.793C64.3259 20.385 66.0412 21.9245 68.6338 22.4702C70.1152 22.8015 71.6161 22.7431 73.0976 22.5092C73.8773 22.3728 74.657 22.1779 75.3977 21.8856C75.8461 21.7102 76.08 21.4373 76.0605 20.9306C76.041 20.4629 76.0605 19.9757 76.0605 19.4885C76.0605 18.9038 75.8266 18.7284 75.2613 18.8649C74.696 19.0013 74.1502 19.1182 73.5849 19.2351C72.3764 19.4885 71.1288 19.4885 69.9203 19.2741C68.2634 18.9428 67.1913 17.5202 67.2888 15.7662C67.4642 15.7857 67.6591 15.8052 67.8346 15.8442ZM67.3473 12.8624C67.4057 12.3947 67.5422 11.9465 67.7176 11.5177C68.3024 10.0951 69.5304 9.60785 70.778 9.68581C71.1288 9.7053 71.4797 9.78325 71.8111 9.91967C72.3179 10.134 72.6493 10.6018 72.7077 11.1474C72.7662 11.4787 72.7467 11.8295 72.6493 12.1608C72.4154 12.8624 71.8501 13.1547 71.1678 13.2912C70.7585 13.3886 70.3296 13.4276 69.9008 13.3886C69.1406 13.3886 68.3609 13.3301 67.6007 13.2132C67.3083 13.1742 67.3083 13.1742 67.3473 12.8624Z" fill="#00A8E1"/>
<path d="M133.583 16.039C134.714 15.961 135.845 15.7466 136.858 15.201C137.891 14.6943 138.613 13.7393 138.827 12.609C138.963 11.9074 138.963 11.1669 138.807 10.4653C138.398 8.71131 137.287 7.61996 135.611 7.0548C134.675 6.76247 133.681 6.64554 132.706 6.68452C129.431 6.76247 126.936 8.41899 125.923 11.693C125.241 13.8563 125.338 16.0585 126.001 18.2217C126.683 20.4433 128.242 21.788 130.465 22.3922C131.42 22.6261 132.414 22.7235 133.388 22.6845C134.811 22.665 136.234 22.3922 137.579 21.8855C138.145 21.6711 138.281 21.4762 138.281 20.8721V19.4689C138.262 18.9038 138.028 18.7089 137.462 18.8453C137.034 18.9622 136.624 19.0597 136.195 19.1571C134.889 19.4689 133.525 19.5274 132.199 19.2935C130.874 19.0402 129.977 18.2801 129.626 16.9549C129.529 16.5652 129.451 16.1754 129.412 15.7661C129.509 15.7661 129.607 15.7661 129.685 15.8051C130.971 16.039 132.277 16.1364 133.583 16.039ZM129.509 12.9208C129.646 12.1608 129.821 11.4202 130.289 10.7966C131.01 9.84164 132.005 9.5688 133.135 9.68573C133.233 9.68573 133.311 9.72471 133.408 9.72471C134.772 9.93908 135.104 11.0304 134.85 12.0828C134.656 12.8623 134.012 13.1547 133.291 13.2911C132.901 13.369 132.492 13.408 132.082 13.3885C131.283 13.369 130.504 13.3106 129.724 13.1937C129.548 13.1742 129.47 13.0962 129.509 12.9208Z" fill="#232F3E"/>
</svg>
