<svg width="32" height="32" viewBox="0 0 32 32" fill="none" xmlns="http://www.w3.org/2000/svg">
<path d="M5.33334 15.3334C5.33334 14.2288 6.22877 13.3334 7.33334 13.3334H20.6667C21.7712 13.3334 22.6667 14.2288 22.6667 15.3334V16.6667C22.6667 17.7713 21.7712 18.6667 20.6667 18.6667H7.33334C6.22877 18.6667 5.33334 17.7713 5.33334 16.6667V15.3334Z" stroke="white" stroke-width="1.5"/>
<path d="M16 24C16 26.9455 18.3878 29.3333 21.3333 29.3333C24.2789 29.3333 26.6667 26.9455 26.6667 24C26.6667 21.0544 24.2789 18.6666 21.3333 18.6666C21.0676 18.6666 20.8063 18.6861 20.551 18.7236M16 24C16 21.3202 17.9763 19.1021 20.551 18.7236M16 24H8.00001C6.52725 24 5.33334 22.8061 5.33334 21.3333C5.33334 19.8605 6.52725 18.6666 8.00001 18.6666H20C20.1889 18.6666 20.3732 18.6863 20.551 18.7236" stroke="white" stroke-width="1.5"/>
<path d="M18.6667 4.78101L16.9428 3.05715C16.4221 2.53645 15.5779 2.53645 15.0572 3.05715L13.3333 4.78101M16 9.33329L16 3.44768" stroke="white" stroke-width="1.5" stroke-linecap="round"/>
</svg>
