<svg width="9" height="10" viewBox="0 0 9 10" fill="none" xmlns="http://www.w3.org/2000/svg">
<path d="M8.31468 9.64236C9.41034 5.41252 6.8541 1.09363 2.61649 0.0149927C2.36083 -0.0500832 2.10353 0.102205 2.03757 0.357641C1.97161 0.613076 2.12337 0.869484 2.37904 0.93456C6.10531 1.88304 8.35566 5.68511 7.3943 9.40809C7.32834 9.66352 7.4801 9.91993 7.73576 9.98501C7.8636 10.0175 7.99184 9.99575 8.09636 9.93388C8.20089 9.87201 8.28171 9.77008 8.31468 9.64236Z" fill="white"/>
<path d="M2.07078 2.12878C1.81511 2.0637 1.55782 2.21599 1.49186 2.47143C1.4259 2.72686 1.57766 2.98327 1.83332 3.04835C4.39634 3.70074 5.94004 6.3089 5.2788 8.86964C5.21284 9.12508 5.3646 9.38149 5.62026 9.44656C5.74809 9.4791 5.87633 9.4573 5.98086 9.39543C6.08539 9.33357 6.1662 9.23163 6.19918 9.10392C6.9907 6.03869 5.13872 2.90969 2.07078 2.12878Z" fill="white"/>
<path d="M1.55177 4.15083C1.29611 4.08576 1.03881 4.23804 0.972848 4.49348C0.906889 4.74892 1.05865 5.00533 1.31431 5.0704C2.75881 5.43808 3.63144 6.91243 3.25876 8.35565C3.1928 8.61108 3.34457 8.86749 3.60023 8.93257C3.72806 8.96511 3.8563 8.9433 3.96083 8.88144C4.06536 8.81957 4.14617 8.71764 4.17915 8.58992C4.68209 6.64222 3.50521 4.64466 1.55177 4.15083Z" fill="white"/>
<path d="M1.75592 7.02697C1.49271 6.58226 0.915087 6.43184 0.464817 6.69834C0.0145459 6.96485 -0.133858 7.53957 0.131726 7.98829C0.39731 8.43701 0.972543 8.58343 1.42281 8.31692C1.87308 8.05042 2.0215 7.47569 1.75592 7.02697Z" fill="white"/>
</svg>
