<svg width="24" height="26" viewBox="0 0 24 26" fill="none" xmlns="http://www.w3.org/2000/svg">
<path d="M16.8789 17.5275L2.56866 25.6609C1.92693 26.0248 1.33846 26.0853 0.88748 25.8919L13.0644 13.713L16.8789 17.5275ZM12.3497 12.9983L0.185591 25.1644C0.0663271 24.8943 0 24.563 0 24.1772V1.82138C0 1.43605 0.0662306 1.10458 0.185591 0.834196L12.3497 12.9983ZM22.2818 11.5402C23.694 12.3429 23.694 13.6567 22.2818 14.4603L17.7911 17.0102L13.7791 12.9983L17.7891 8.98736L22.2818 11.5402ZM0.888467 0.107628C1.33937 -0.0855243 1.92729 -0.02485 2.56866 0.339616L16.8779 8.46909L13.0644 12.2836L0.888467 0.107628Z" fill="black"/>
</svg>
