<svg width="101" height="62" viewBox="0 0 101 62" fill="none" xmlns="http://www.w3.org/2000/svg">
<path d="M0 37.263V37.9185C0.030172 38.4935 0.195509 39.0534 0.482549 39.5526C0.769589 40.0518 1.17027 40.4763 1.65208 40.7916L37.1893 61.3166C37.7025 61.5776 38.2701 61.7137 38.8458 61.7137C39.4216 61.7137 39.9892 61.5776 40.5024 61.3166L99.3479 27.3417C99.8297 27.0264 100.23 26.6019 100.517 26.1027C100.804 25.6035 100.97 25.0436 101 24.4686V23.8131C100.97 23.2381 100.804 22.6782 100.517 22.179C100.23 21.6798 99.8297 21.2553 99.3479 20.94L63.8107 0.423943C63.2975 0.162946 62.7299 0.0269111 62.1542 0.0269111C61.5784 0.0269111 61.0108 0.162946 60.4976 0.423943L1.65208 34.3809C1.16908 34.6972 0.76765 35.1231 0.480549 35.6239C0.193448 36.1248 0.0287853 36.6864 0 37.263Z" fill="#2E8B8B"/>
<path d="M0 37.263V37.9185C0.030172 38.4935 0.195509 39.0534 0.482549 39.5526C0.769589 40.0518 1.17027 40.4763 1.65208 40.7916L37.1893 61.3166C37.7025 61.5776 38.2701 61.7137 38.8458 61.7137C39.4216 61.7137 39.9892 61.5776 40.5024 61.3166L99.3479 27.3417C99.8297 27.0264 100.23 26.6019 100.517 26.1027C100.804 25.6035 100.97 25.0436 101 24.4686V23.8131C100.97 23.2381 100.804 22.6782 100.517 22.179C100.23 21.6798 99.8297 21.2553 99.3479 20.94L63.8107 0.423943C63.2975 0.162946 62.7299 0.0269111 62.1542 0.0269111C61.5784 0.0269111 61.0108 0.162946 60.4976 0.423943L1.65208 34.3809C1.16908 34.6972 0.76765 35.1231 0.480549 35.6239C0.193448 36.1248 0.0287853 36.6864 0 37.263Z" fill="#2E8B8B"/>
<path opacity="0.2" d="M38.8414 12.9134L1.6522 34.3812C1.17039 34.6966 0.769711 35.1211 0.482671 35.6203C0.195631 36.1194 0.0302943 36.6793 0.000122323 37.2544V37.9098C0.0302943 38.4848 0.195631 39.0447 0.482671 39.5439C0.769711 40.0431 1.17039 40.4676 1.6522 40.7829L37.1894 61.3169C37.6982 61.585 38.2663 61.7209 38.8414 61.712V12.9134Z" fill="black"/>
<path opacity="0.15" d="M38.8414 12.9134L1.6522 34.3812C1.17039 34.6966 0.769711 35.1211 0.482671 35.6203C0.195631 36.1194 0.0302943 36.6793 0.000122323 37.2544V37.9098C0.0302943 38.4848 0.195631 39.0447 0.482671 39.5439C0.769711 40.0431 1.17039 40.4676 1.6522 40.7829L37.1894 61.3169C37.6982 61.585 38.2663 61.7209 38.8414 61.712V12.9134Z" fill="black"/>
<path opacity="0.2" d="M99.348 20.9131L63.8108 0.397032C63.2976 0.136035 62.73 0 62.1542 0C61.5785 0 61.0109 0.136035 60.4977 0.397032L38.8414 12.8952V61.6848C39.4194 61.6948 39.9907 61.5589 40.5024 61.2897L99.348 27.3148C99.8298 26.9994 100.23 26.5749 100.518 26.0757C100.805 25.5765 100.97 25.0167 101 24.4416V23.7862C100.97 23.2112 100.805 22.6513 100.518 22.1521C100.23 21.6529 99.8298 21.2284 99.348 20.9131Z" fill="black"/>
<path d="M31.497 53.5324L1.65224 36.3025C1.45039 36.2368 1.27449 36.1089 1.14977 35.9372C1.02504 35.7654 0.957884 35.5586 0.957884 35.3463C0.957884 35.134 1.02504 34.9272 1.14977 34.7554C1.27449 34.5837 1.45039 34.4558 1.65224 34.3901L60.4978 0.415163C61.011 0.154166 61.5786 0.0181039 62.1543 0.0181039C62.7301 0.0181039 63.2977 0.154166 63.8109 0.415163L99.3481 20.9132C99.5499 20.9789 99.7258 21.1068 99.8505 21.2786C99.9752 21.4504 100.042 21.6572 100.042 21.8695C100.042 22.0817 99.9752 22.2885 99.8505 22.4603C99.7258 22.6321 99.5499 22.76 99.3481 22.8257L89.5794 28.4642L86.1675 30.4395L40.5025 56.8275C39.9893 57.0885 39.4217 57.2246 38.846 57.2246C38.2702 57.2246 37.7026 57.0885 37.1894 56.8275L34.2893 55.1575L31.497 53.5324Z" fill="#2E8B8B"/>
<path opacity="0.15" d="M58.5943 24.9087L99.348 20.9133L58.9444 23.2028L63.8019 0.397215C63.2491 0.109463 62.6279 -0.0209642 62.0061 0.0201306L54.3833 30.8436L0.978783 35.279C0.976855 35.4983 1.03972 35.7132 1.15952 35.8969C1.27932 36.0806 1.45072 36.2249 1.65218 36.3115L44.7493 33.8065L38.8055 57.2226L46.4014 33.7167L53.7638 33.2857C54.6658 33.2305 55.5229 32.8731 56.197 32.2711C56.8268 31.7088 57.2608 30.9602 57.436 30.1342L58.5943 24.9087Z" fill="black"/>
<path opacity="0.3" d="M13.7193 34.2101L54.3833 30.8611L55.8378 25.034L56.6459 21.7928L62.033 0.0376756C61.5073 0.0409051 60.99 0.170237 60.5246 0.414788L31.1018 17.4022L1.65213 34.3807C1.47537 34.4644 1.32166 34.5899 1.20433 34.7463C1.08699 34.9028 1.00956 35.0855 0.97874 35.2786L9.14026 34.6052L13.7193 34.2101Z" fill="white"/>
</svg>
