<svg width="120" height="48" viewBox="0 0 120 48" fill="none" xmlns="http://www.w3.org/2000/svg">
<path d="M0 0V3.28404H23.3578V0H0ZM26.6671 0V3.28404H59.9531C59.9531 3.28404 56.5531 0 52.05 0H26.6671ZM66.4828 0V3.28404H86.6202L85.425 0H66.4828ZM101.058 0L99.8624 3.28404H119.817V0H101.058ZM0 6.38664V9.67068H23.3578V6.38664H0ZM26.6671 6.39132V9.6708H63.8155C63.8155 9.6708 63.3817 7.14324 62.6249 6.39132H26.6671ZM66.4828 6.39132V9.6708H88.8281L87.7218 6.39132H66.4828ZM98.6671 6.39132L97.5608 9.6708H119.817V6.39132H98.6671ZM6.71244 12.7733V16.062H16.8281V12.7733H6.71244ZM33.3797 12.7733V16.062H43.4953V12.7733H33.3797ZM53.3344 12.7733V16.062H63.45C63.45 16.062 64.0922 14.3252 64.0922 12.7733H53.3344ZM73.1953 12.7733V16.062H91.1297L89.9344 12.7733H73.1953ZM96.464 12.7733L95.264 16.062H113.287V12.7733H96.464ZM6.71244 19.1647V22.4488H16.8281V19.1647H6.71244ZM33.3797 19.1647V22.4488H59.2171C59.2171 22.4488 61.3786 20.7637 62.0671 19.1647H33.3797ZM73.1953 19.1647V22.4488H83.311V20.6207L83.9532 22.4488H102.483L103.172 20.6207V22.4488H113.288V19.1647H94.2984L93.2906 21.9463L92.2781 19.1647H73.1953ZM6.71244 25.5514V28.8354H16.8281V25.5514H6.71244ZM33.3797 25.5514V28.8354H62.0671C61.3784 27.2417 59.2171 25.5514 59.2171 25.5514H33.3797ZM73.1953 25.5514V28.8354H83.311V25.5514H73.1953ZM85.1484 25.5514L86.3718 28.8354H100.266L101.428 25.5514H85.1484ZM103.172 25.5514V28.8354H113.287V25.5514H103.172ZM6.71244 31.938V35.2219H16.8281V31.938H6.71244ZM33.3797 31.938V35.2219H43.4953V31.938H33.3797ZM53.3344 31.938V35.2219H64.0921C64.0921 33.6721 63.4499 31.938 63.4499 31.938H53.3344ZM73.1953 31.938V35.2219H83.311V31.938H73.1953ZM87.4453 31.938L88.6313 35.2219H97.9453L99.1406 31.938H87.4453ZM103.172 31.938V35.2219H113.287V31.938H103.172ZM0.18276 38.3246V41.6134H23.5405V38.3246H0.18276ZM26.6671 38.3246V41.6134H62.6249C63.3817 40.8604 63.8155 38.3246 63.8155 38.3246H26.6671ZM66.6656 38.3246V41.6134H83.311V38.3246H66.6656ZM89.7468 38.3246L90.9655 41.6134H95.7046L96.8483 38.3246H89.7468ZM103.172 38.3246V41.6134H120V38.3246H103.172ZM0.18276 44.716V48H23.5405V44.716H0.18276ZM26.6671 44.716V47.9953H52.05C56.5531 47.9953 59.9531 44.716 59.9531 44.716H26.6671ZM66.6656 44.716V48H83.311V44.716H66.6656ZM92.0578 44.716L93.2297 47.9908L93.4313 47.9953L94.6219 44.716H92.0578ZM103.172 44.716V48H120V44.716H103.172Z" fill="#1F70C1"/>
</svg>
