<svg width="32" height="32" viewBox="0 0 32 32" fill="none" xmlns="http://www.w3.org/2000/svg">
<path d="M26.5865 20.2815C26.7419 19.8975 26.5567 19.4603 26.1727 19.3048C25.7888 19.1494 25.3515 19.3347 25.1961 19.7186L26.5865 20.2815ZM5.41347 11.7186C5.25805 12.1026 5.44331 12.5398 5.82726 12.6952C6.21121 12.8507 6.64845 12.6654 6.80387 12.2815L5.41347 11.7186ZM26.6666 16H27.4166C27.4166 9.69479 22.3052 4.58337 16 4.58337V5.33337V6.08337C21.4768 6.08337 25.9166 10.5232 25.9166 16H26.6666ZM5.33331 16H4.58331C4.58331 22.3053 9.69473 27.4167 16 27.4167V26.6667V25.9167C10.5232 25.9167 6.08331 21.4769 6.08331 16H5.33331ZM16 26.6667V27.4167C20.7924 27.4167 24.8934 24.464 26.5865 20.2815L25.8913 20L25.1961 19.7186C23.7244 23.3543 20.1605 25.9167 16 25.9167V26.6667ZM16 5.33337V4.58337C11.2075 4.58337 7.10653 7.53604 5.41347 11.7186L6.10867 12L6.80387 12.2815C8.27554 8.64582 11.8394 6.08337 16 6.08337V5.33337Z" fill="white"/>
<path d="M18.6666 13.3333C18.6666 11.8606 17.4727 10.6667 16 10.6667C14.5272 10.6667 13.3333 11.8606 13.3333 13.3333C13.3333 14.8061 14.5272 16 16 16" stroke="white" stroke-width="1.5" stroke-linecap="round"/>
<path d="M16 16C17.4727 16 18.6666 17.1939 18.6666 18.6667C18.6666 20.1395 17.4727 21.3334 16 21.3334C14.5272 21.3334 13.3333 20.1395 13.3333 18.6667" stroke="white" stroke-width="1.5" stroke-linecap="round"/>
<path d="M16 8.66663V10.6666" stroke="white" stroke-width="1.5" stroke-linecap="round" stroke-linejoin="round"/>
<path d="M16 21.3334V23.3334" stroke="white" stroke-width="1.5" stroke-linecap="round" stroke-linejoin="round"/>
<path d="M24 14.6667L25.5611 15.4472C26.2387 15.786 27.0495 15.7129 27.6555 15.2584L29.3333 14" stroke="white" stroke-width="1.5" stroke-linecap="round" stroke-linejoin="round"/>
<path d="M2.66669 17.3333L4.22778 16.5528C4.90535 16.214 5.71617 16.2871 6.32221 16.7416L8.00002 18" stroke="white" stroke-width="1.5" stroke-linecap="round" stroke-linejoin="round"/>
</svg>
