<svg width="70" height="7" viewBox="0 0 70 7" fill="none" xmlns="http://www.w3.org/2000/svg">
<path d="M0 0.298294V6.36081H2.18889C3.99546 6.36081 5.04159 5.24746 5.04159 3.31065C5.04159 1.40324 3.98706 0.298294 2.18889 0.298294H0ZM0.941098 1.15537H2.08386C3.34006 1.15537 4.08369 1.95362 4.08369 3.32325C4.08369 4.71389 3.35266 5.50374 2.08386 5.50374H0.941098V1.15537Z" fill="black"/>
<path d="M8.24553 6.44904C9.58155 6.44904 10.4008 5.55416 10.4008 4.07109C10.4008 2.59642 9.57735 1.69734 8.24553 1.69734C6.9095 1.69734 6.08604 2.59642 6.08604 4.07109C6.08604 5.55416 6.9053 6.44904 8.24553 6.44904ZM8.24553 5.64659C7.45988 5.64659 7.01874 5.071 7.01874 4.07109C7.01874 3.07957 7.45988 2.49979 8.24553 2.49979C9.02697 2.49979 9.47231 3.07957 9.47231 4.07109C9.47231 5.0668 9.02697 5.64659 8.24553 5.64659Z" fill="black"/>
<path d="M17.3775 1.78556H16.4742L15.6592 5.27687H15.5878L14.6467 1.78556H13.7812L12.8401 5.27687H12.7729L11.9536 1.78556H11.0377L12.2981 6.36081H13.2266L14.1677 2.99135H14.2391L15.1844 6.36081H16.1213L17.3775 1.78556Z" fill="black"/>
<path d="M18.4178 6.36081H19.3211V3.68456C19.3211 2.97034 19.7454 2.525 20.4134 2.525C21.0814 2.525 21.4007 2.89051 21.4007 3.62575V6.36081H22.304V3.39887C22.304 2.31073 21.741 1.69734 20.7201 1.69734C20.0311 1.69734 19.5773 2.00403 19.3547 2.51239H19.2875V1.78556H18.4178V6.36081Z" fill="black"/>
<path d="M23.7266 6.36081H24.6299V0H23.7266V6.36081Z" fill="black"/>
<path d="M28.0271 6.44904C29.3631 6.44904 30.1823 5.55416 30.1823 4.07109C30.1823 2.59642 29.3589 1.69734 28.0271 1.69734C26.691 1.69734 25.8676 2.59642 25.8676 4.07109C25.8676 5.55416 26.6868 6.44904 28.0271 6.44904ZM28.0271 5.64659C27.2414 5.64659 26.8003 5.071 26.8003 4.07109C26.8003 3.07957 27.2414 2.49979 28.0271 2.49979C28.8085 2.49979 29.2538 3.07957 29.2538 4.07109C29.2538 5.0668 28.8085 5.64659 28.0271 5.64659Z" fill="black"/>
<path d="M32.8737 5.67599C32.3822 5.67599 32.025 5.43652 32.025 5.02479C32.025 4.62146 32.3107 4.40719 32.9409 4.36518L34.0585 4.29376V4.67608C34.0585 5.24326 33.5543 5.67599 32.8737 5.67599ZM32.6426 6.43644C33.2434 6.43644 33.7434 6.17595 34.0165 5.71801H34.0879V6.36081H34.9576V3.23502C34.9576 2.26872 34.3106 1.69734 33.1636 1.69734C32.1259 1.69734 31.3864 2.2015 31.294 2.98714H32.1679C32.2687 2.66364 32.6174 2.47878 33.1216 2.47878C33.7392 2.47878 34.0585 2.75187 34.0585 3.23502V3.62995L32.8191 3.70137C31.7309 3.76859 31.1176 4.24334 31.1176 5.0668C31.1176 5.90287 31.7604 6.43644 32.6426 6.43644Z" fill="black"/>
<path d="M38.0229 6.43644C38.6531 6.43644 39.1866 6.13814 39.4597 5.63818H39.5311V6.36081H40.3966V0H39.4933V2.51239H39.4261C39.1782 2.00823 38.6489 1.70994 38.0229 1.70994C36.8675 1.70994 36.1239 2.62583 36.1239 4.07109C36.1239 5.52055 36.8591 6.43644 38.0229 6.43644ZM38.2791 2.5208C39.0354 2.5208 39.5101 3.12159 39.5101 4.07529C39.5101 5.03319 39.0396 5.62558 38.2791 5.62558C37.5145 5.62558 37.0566 5.04159 37.0566 4.07109C37.0566 3.10898 37.5187 2.5208 38.2791 2.5208Z" fill="black"/>
<path d="M46.2541 6.44904C47.5901 6.44904 48.4094 5.55416 48.4094 4.07109C48.4094 2.59642 47.5859 1.69734 46.2541 1.69734C44.9181 1.69734 44.0946 2.59642 44.0946 4.07109C44.0946 5.55416 44.9139 6.44904 46.2541 6.44904ZM46.2541 5.64659C45.4685 5.64659 45.0273 5.071 45.0273 4.07109C45.0273 3.07957 45.4685 2.49979 46.2541 2.49979C47.0356 2.49979 47.4809 3.07957 47.4809 4.07109C47.4809 5.0668 47.0356 5.64659 46.2541 5.64659Z" fill="black"/>
<path d="M49.6051 6.36081H50.5084V3.68456C50.5084 2.97034 50.9327 2.525 51.6007 2.525C52.2687 2.525 52.588 2.89051 52.588 3.62575V6.36081H53.4913V3.39887C53.4913 2.31073 52.9283 1.69734 51.9074 1.69734C51.2184 1.69734 50.7647 2.00403 50.542 2.51239H50.4748V1.78556H49.6051V6.36081Z" fill="black"/>
<path d="M57.6515 0.647005V1.80657H56.9246V2.56701H57.6515V5.15083C57.6515 6.03311 58.0506 6.38602 59.0547 6.38602C59.2312 6.38602 59.3992 6.36501 59.5463 6.3398V5.58777C59.4202 5.60037 59.3404 5.60877 59.2018 5.60877C58.7522 5.60877 58.5548 5.39871 58.5548 4.91976V2.56701H59.5463V1.80657H58.5548V0.647005H57.6515Z" fill="black"/>
<path d="M60.7588 6.36081H61.6621V3.68877C61.6621 2.99555 62.0738 2.5292 62.8132 2.5292C63.4518 2.5292 63.7921 2.89892 63.7921 3.62995V6.36081H64.6954V3.40728C64.6954 2.31913 64.0946 1.70154 63.1199 1.70154C62.4309 1.70154 61.9477 2.00823 61.7251 2.5208H61.6537V0H60.7588V6.36081Z" fill="black"/>
<path d="M67.954 2.46618C68.622 2.46618 69.0589 2.93253 69.0799 3.65095H66.7692C66.8196 2.93673 67.2859 2.46618 67.954 2.46618ZM69.0757 5.12562C68.9077 5.48273 68.5337 5.6802 67.9876 5.6802C67.2649 5.6802 66.7986 5.17184 66.7692 4.36938V4.31897H70V4.00387C70 2.56701 69.2312 1.69734 67.9582 1.69734C66.6684 1.69734 65.8491 2.62583 65.8491 4.08789C65.8491 5.54995 66.6515 6.44904 67.9624 6.44904C69.0085 6.44904 69.7395 5.94488 69.9454 5.12562H69.0757Z" fill="black"/>
</svg>
