<svg width="76" height="16" viewBox="0 0 76 16" fill="none" xmlns="http://www.w3.org/2000/svg">
<path d="M47.6527 1.44449V3.76369H46.1989V5.28461H47.6527V10.4524C47.6527 12.217 48.4509 12.9229 50.4592 12.9229C50.8121 12.9229 51.1483 12.8808 51.4424 12.8304V11.3263C51.1903 11.3515 51.0306 11.3683 50.7533 11.3683C49.8542 11.3683 49.4593 10.9482 49.4593 9.99024V5.28461H51.4424V3.76369H49.4593V1.44449H47.6527Z" fill="black"/>
<path d="M56.5584 13.0489C59.2305 13.0489 60.8691 11.2591 60.8691 8.29285C60.8691 5.34343 59.2221 3.54521 56.5584 3.54521C53.8863 3.54521 52.2393 5.34343 52.2393 8.29285C52.2393 11.2591 53.8779 13.0489 56.5584 13.0489ZM56.5584 11.4439C54.987 11.4439 54.1047 10.2927 54.1047 8.29285C54.1047 6.30977 54.987 5.15017 56.5584 5.15017C58.1213 5.15017 59.012 6.30977 59.012 8.29285C59.012 10.2843 58.1213 11.4439 56.5584 11.4439Z" fill="black"/>
<path d="M62.271 12.8724H64.0776V7.46937C64.0776 6.18372 65.044 5.31823 66.4136 5.31823C66.7329 5.31823 67.2707 5.37705 67.422 5.42746V3.64605C67.2287 3.59563 66.8842 3.57042 66.6153 3.57042C65.4221 3.57042 64.4053 4.22585 64.1449 5.12496H64.0104V3.72167H62.271V12.8724Z" fill="black"/>
<path d="M71.9078 5.08294C73.2438 5.08294 74.1178 6.01567 74.1598 7.45256H69.5382C69.639 6.02407 70.5717 5.08294 71.9078 5.08294ZM74.1514 10.402C73.8152 11.1162 73.0674 11.5112 71.975 11.5112C70.5297 11.5112 69.597 10.4944 69.5382 8.88946V8.78862H76V8.15841C76 5.28461 74.4623 3.54521 71.9162 3.54521C69.3365 3.54521 67.6979 5.40225 67.6979 8.32646C67.6979 11.2507 69.3029 13.0489 71.9246 13.0489C74.0169 13.0489 75.479 12.0405 75.8908 10.402H74.1514Z" fill="black"/>
<path d="M35.8051 9.4932C35.9444 11.7402 37.8169 13.1773 40.6039 13.1773C43.5825 13.1773 45.4463 11.6705 45.4463 9.26676C45.4463 7.37683 44.3838 6.3317 41.8058 5.73076L40.421 5.39109C38.7837 5.00788 38.1218 4.49403 38.1218 3.59697C38.1218 2.46475 39.1495 1.72445 40.691 1.72445C42.1542 1.72445 43.1645 2.44733 43.3474 3.60567H45.246C45.1328 1.4893 43.269 0 40.7172 0C37.9737 0 36.1448 1.4893 36.1448 3.72761C36.1448 5.57399 37.1812 6.67137 39.4543 7.20264L41.0742 7.59456C42.7377 7.98648 43.4693 8.5613 43.4693 9.51933C43.4693 10.6341 42.3197 11.4441 40.752 11.4441C39.0711 11.4441 37.904 10.6864 37.7386 9.4932H35.8051Z" fill="black"/>
<path d="M17.0903 3.57042C15.8467 3.57042 14.7711 4.19224 14.2165 5.2342H14.0821V3.72167H12.3427V15.9143H14.1493V11.486H14.2921C14.7711 12.4523 15.8047 13.0237 17.1071 13.0237C19.4179 13.0237 20.8884 11.2003 20.8884 8.29285C20.8884 5.38545 19.4179 3.57042 17.0903 3.57042ZM16.5777 11.4019C15.0652 11.4019 14.1157 10.2087 14.1157 8.30126C14.1157 6.38539 15.0652 5.19218 16.5861 5.19218C18.1155 5.19218 19.0314 6.36019 19.0314 8.29285C19.0314 10.2339 18.1155 11.4019 16.5777 11.4019Z" fill="black"/>
<path d="M27.2101 3.57042C25.9665 3.57042 24.8909 4.19224 24.3363 5.2342H24.2019V3.72167H22.4625V15.9143H24.2691V11.486H24.4119C24.8909 12.4523 25.9244 13.0237 27.2269 13.0237C29.5377 13.0237 31.0082 11.2003 31.0082 8.29285C31.0082 5.38545 29.5377 3.57042 27.2101 3.57042ZM26.6975 11.4019C25.185 11.4019 24.2355 10.2087 24.2355 8.30126C24.2355 6.38539 25.185 5.19218 26.7059 5.19218C28.2352 5.19218 29.1512 6.36019 29.1512 8.29285C29.1512 10.2339 28.2352 11.4019 26.6975 11.4019Z" fill="black"/>
<path d="M9.10128 12.8724H11.1741L6.63653 0.304828H4.53758L0 12.8724H2.00315L3.1615 9.53675H7.95164L9.10128 12.8724ZM5.4869 2.58668H5.63496L7.45521 7.89939H3.65793L5.4869 2.58668Z" fill="black"/>
</svg>
