<svg width="37" height="70" viewBox="0 0 37 70" fill="none" xmlns="http://www.w3.org/2000/svg">
<path d="M28.3354 57.2816L34.4638 53.745C34.4638 53.745 38.1084 38.5995 36.6596 24.9478C34.6168 5.78872 22 -1.41956 17.2035 0.227273C12.407 1.87411 11.0211 7.42656 18.9583 18.8734C23.6379 25.6228 29.3883 39.6884 28.3354 57.2816Z" fill="#2E8B8B"/>
<g opacity="0.15">
<path d="M28.3354 57.2816L34.4638 53.745C34.4638 53.745 38.1084 38.5995 36.6596 24.9478C34.6168 5.78872 22 -1.41956 17.2035 0.227273C12.407 1.87411 11.0211 7.42656 18.9583 18.8734C23.6379 25.6228 29.3883 39.6884 28.3354 57.2816Z" fill="black"/>
</g>
<path d="M30.8731 49.8395H30.8191C30.764 49.8297 30.7114 49.8091 30.6643 49.7789C30.6172 49.7487 30.5766 49.7094 30.5448 49.6634C30.513 49.6174 30.4906 49.5655 30.479 49.5107C30.4674 49.456 30.4668 49.3995 30.4771 49.3445C33.7978 31.6613 27.6604 11.7912 20.0202 3.53902C19.9802 3.49966 19.9484 3.45275 19.9267 3.40099C19.905 3.34923 19.8939 3.29367 19.8939 3.23756C19.8939 3.18144 19.905 3.12588 19.9267 3.07412C19.9484 3.02237 19.9802 2.97545 20.0202 2.93609C20.1008 2.85749 20.209 2.8135 20.3216 2.8135C20.4343 2.8135 20.5425 2.85749 20.6231 2.93609C28.3984 11.3773 34.6977 31.5893 31.3141 49.4975C31.2984 49.6002 31.244 49.6929 31.1619 49.7565C31.0798 49.8202 30.9764 49.8499 30.8731 49.8395Z" fill="white"/>
<path d="M11.417 69.2326C10.4451 69.7275 7.87137 67.5228 7.16044 66.9918C5.92506 66.0567 4.95434 64.8161 4.34371 63.3922C3.65983 61.7885 3.487 60.0131 3.84876 58.3077C4.04771 57.4066 4.30625 56.5197 4.62269 55.6529C4.91966 54.798 5.21663 53.9431 5.5226 53.0792C5.87306 52.2541 6.0507 51.3659 6.04455 50.4694C5.90056 48.6696 4.37971 47.3468 2.99385 46.1949C1.464 44.926 -0.110847 43.2702 0.00614099 41.1284C0.206898 39.4686 0.950346 37.9215 2.12093 36.7278C3.21882 35.4769 4.4967 34.388 5.4866 33.0652C6.25723 32.1447 6.69198 30.9896 6.71948 29.7895C6.66011 29.0494 6.44873 28.3294 6.09854 27.6747C5.29889 26.2994 4.60689 24.8642 4.02874 23.3821C3.57879 21.8523 3.74977 19.9895 4.92865 18.9726C5.47301 18.6084 6.0841 18.3557 6.72665 18.2291C7.3692 18.1024 8.03047 18.1043 8.67229 18.2346C9.88347 18.4495 11.0343 18.9221 12.047 19.6205C15.3586 21.6903 17.0955 25.8209 20.6411 27.4587C22.0522 27.9815 23.4949 28.4143 24.9607 28.7546C25.696 28.9282 26.3868 29.2541 26.9882 29.7114C27.5897 30.1687 28.0885 30.7471 28.4523 31.4093C29.6402 34.109 27.0125 37.2677 27.8044 40.1295C28.5063 42.6672 30.8821 43.7291 32.124 46.0509C32.6338 47.0687 32.798 48.225 32.5919 49.3446C32.3778 51.2299 31.8196 53.0601 30.9451 54.744C29.9593 56.4876 28.8653 58.1678 27.6694 59.7745C27.6694 59.7745 11.561 69.1606 11.417 69.2326Z" fill="#2E8B8B"/>
<path d="M20.7942 64.3463C20.7385 64.3417 20.6844 64.3262 20.6348 64.3007C20.5852 64.2751 20.5411 64.24 20.5051 64.1974C20.4692 64.1547 20.442 64.1053 20.4252 64.0521C20.4084 63.9989 20.4023 63.9429 20.4072 63.8873C21.955 47.077 14.9537 28.0708 9.45528 22.3834C9.37667 22.3027 9.33268 22.1946 9.33268 22.0819C9.33268 21.9693 9.37667 21.8611 9.45528 21.7805C9.49464 21.7405 9.54156 21.7087 9.59332 21.687C9.64508 21.6653 9.70063 21.6542 9.75674 21.6542C9.81286 21.6542 9.86842 21.6653 9.92017 21.687C9.97193 21.7087 10.0189 21.7405 10.0582 21.7805C15.6647 27.6029 22.81 46.888 21.1991 63.9863C21.1861 64.085 21.1381 64.1756 21.0637 64.2417C20.9893 64.3078 20.8936 64.345 20.7942 64.3463Z" fill="white"/>
<path d="M19.1204 43.6212C19.0788 43.6297 19.0359 43.6297 18.9944 43.6212C15.0603 42.3199 10.9954 41.4538 6.87257 41.0384C6.7604 41.0249 6.65771 40.9688 6.58571 40.8817C6.5137 40.7946 6.47787 40.6832 6.48561 40.5705C6.48893 40.5144 6.50362 40.4596 6.52879 40.4094C6.55395 40.3592 6.58907 40.3147 6.63201 40.2785C6.67494 40.2423 6.72479 40.2152 6.77852 40.1989C6.83226 40.1825 6.88875 40.1773 6.94456 40.1835C11.1431 40.615 15.2828 41.4991 19.2913 42.8203C19.3822 42.8599 19.4567 42.9295 19.5023 43.0175C19.5479 43.1055 19.5618 43.2065 19.5418 43.3036C19.5217 43.4007 19.4689 43.4879 19.3922 43.5506C19.3154 43.6134 19.2195 43.6478 19.1204 43.6482V43.6212Z" fill="white"/>
</svg>
