<svg width="32" height="32" viewBox="0 0 32 32" fill="none" xmlns="http://www.w3.org/2000/svg">
<path d="M22.6667 9.33325L9.33334 9.33325" stroke="#2E8B8B" stroke-width="1.5" stroke-linecap="round" stroke-linejoin="round"/>
<path d="M22.6667 14.6667L9.33334 14.6667" stroke="#2E8B8B" stroke-width="1.5" stroke-linecap="round" stroke-linejoin="round"/>
<path d="M16 20L9.33333 20" stroke="#2E8B8B" stroke-width="1.5" stroke-linecap="round" stroke-linejoin="round"/>
<path d="M26 2.66675H6C4.89543 2.66675 4 3.56218 4 4.66675V26.4878C4 27.873 5.37412 28.8387 6.67744 28.3695L9.90587 27.2073C10.3939 27.0316 10.9311 27.0524 11.404 27.2652L15.1793 28.9641C15.7012 29.199 16.2988 29.199 16.8207 28.9641L20.596 27.2652C21.0689 27.0524 21.6061 27.0316 22.0941 27.2073L25.3226 28.3695C26.6259 28.8387 28 27.873 28 26.4878V4.66675C28 3.56218 27.1046 2.66675 26 2.66675Z" stroke="#2E8B8B" stroke-width="1.5" stroke-linecap="round"/>
</svg>
