<svg width="28" height="19" viewBox="0 0 28 19" fill="none" xmlns="http://www.w3.org/2000/svg">
<path fill-rule="evenodd" clip-rule="evenodd" d="M10.3333 17.0601L8.29465 18.2667L3.21118 13.1657C2.9751 12.9323 2.67648 12.7793 2.38172 12.7983C1.64493 12.8438 0.885441 12.9824 0.136838 13.2687L-1.92895e-05 13.0375L3.28407 11.0937C3.73732 10.8254 4.28284 10.9716 4.57826 11.3414L7.9356 15.2042L6.96476 8.9152L8.94674 7.74211L10.3333 17.0601ZM14.5238 14.5798L12.5985 15.7193L9.73985 7.2726L11.6652 6.13305L14.5238 14.5798ZM15.3871 6.73882C15.2044 6.30089 15.4074 5.86846 15.804 5.63373C16.3929 5.2068 17.1405 4.9211 17.8777 4.87405L17.2608 3.05626C16.5574 3.16037 15.8654 3.41313 15.2999 3.74787C13.4312 4.85389 12.687 6.69872 13.5413 8.14214C14.1913 9.24021 15.4957 9.24671 16.3811 9.19165C17.3217 9.10264 17.7418 9.1662 17.8901 9.54608C18.1976 10.0656 17.7679 10.6321 17.2023 10.9669C16.5225 11.3693 15.7401 11.5985 14.9466 11.6775L15.5641 13.4963C16.4146 13.3822 17.2189 13.063 17.8988 12.6606C20.0278 11.4775 20.715 9.66776 19.7919 8.10823C18.6295 6.1443 15.8995 7.60467 15.3871 6.73882ZM28 6.60358L22.0272 1.74173e-05L20.3852 0.971902C20.0452 1.1731 19.8421 1.60553 19.9338 2.01894L21.2051 10.6252L23.1871 9.45216L22.9334 8.12094L25.3686 6.67958L26.2446 7.64253L28 6.60358ZM21.8652 2.82619L24.1057 5.32123L22.5203 6.25958L21.8652 2.82619Z" fill="#172B85"/>
</svg>
