<svg width="138" height="48" viewBox="0 0 138 48" fill="none" xmlns="http://www.w3.org/2000/svg">
<path d="M7.93961 34.281C8.52278 35.8316 9.33017 37.1575 10.3619 38.2585C11.3937 39.3597 12.616 40.2023 14.0289 40.7867C15.442 41.371 16.9783 41.663 18.638 41.663C20.2529 41.663 21.7668 41.3596 23.1798 40.7528C24.5929 40.146 25.8264 39.2921 26.8805 38.1911C27.9345 37.0899 28.7532 35.7754 29.3364 34.2473C29.9196 32.7192 30.2111 31.0114 30.2111 29.1237V0H37.276V47.191H30.2784V42.809C28.7084 44.4718 26.858 45.7527 24.7273 46.6518C22.5965 47.5505 20.2978 48 17.8306 48C15.3185 48 12.9748 47.5617 10.7992 46.6853C8.62373 45.809 6.73962 44.5619 5.14732 42.9438C3.55502 41.3258 2.2989 39.3822 1.3794 37.1124C0.459749 34.8428 0 32.3148 0 29.5281V0H7.06492V29.1237C7.06492 31.0114 7.35644 32.7303 7.93961 34.281ZM49.454 0V17.191C51.024 15.618 52.8408 14.3709 54.9042 13.4495C56.9675 12.528 59.2104 12.0674 61.6326 12.0674C64.1447 12.0674 66.4994 12.5392 68.6975 13.483C70.8955 14.4268 72.8018 15.7078 74.4167 17.3258C76.0316 18.9439 77.3101 20.8539 78.2521 23.0561C79.1941 25.2585 79.665 27.5956 79.665 30.0675C79.665 32.5393 79.1941 34.8651 78.2521 37.0448C77.3101 39.2247 76.0316 41.1236 74.4167 42.7414C72.8018 44.3595 70.8955 45.6404 68.6975 46.5842C66.4994 47.528 64.1446 47.9998 61.6326 47.9998C59.2103 47.9998 56.9564 47.5392 54.8705 46.6178C52.7847 45.6965 50.9567 44.4493 49.3867 42.8762V47.1909H42.6583V0H49.454ZM50.2278 34.7191C50.8333 36.1574 51.6745 37.4158 52.751 38.4945C53.8276 39.5731 55.0836 40.4272 56.519 41.0564C57.9545 41.6856 59.502 42.0002 61.1617 42.0002C62.7766 42.0002 64.3016 41.6856 65.737 41.0564C67.1724 40.4272 68.417 39.5733 69.4714 38.4945C70.5255 37.416 71.3666 36.1574 71.9946 34.7191C72.6225 33.2809 72.9365 31.7304 72.9365 30.0675C72.9365 28.4045 72.6225 26.8427 71.9946 25.382C71.3666 23.9213 70.5255 22.6517 69.4714 21.5731C68.4172 20.4945 67.1725 19.6517 65.737 19.045C64.3015 18.4384 62.7765 18.1348 61.1617 18.1348C59.5469 18.1348 58.0218 18.4382 56.5864 19.045C55.151 19.6519 53.895 20.4945 52.8183 21.5731C51.7419 22.6517 50.8896 23.9213 50.2616 25.382C49.6336 26.8427 49.3196 28.4045 49.3196 30.0675C49.3194 31.7304 49.6223 33.2809 50.2278 34.7191ZM83.4996 23.1237C84.3966 20.9664 85.6304 19.0676 87.2002 17.4271C88.77 15.7867 90.6318 14.4946 92.785 13.5507C94.9381 12.6069 97.2706 12.1351 99.7826 12.1351C102.25 12.1351 104.537 12.5846 106.646 13.4833C108.754 14.3822 110.571 15.6295 112.096 17.225C113.621 18.8204 114.81 20.7082 115.662 22.8878C116.514 25.0677 116.94 27.4385 116.94 30.0004V32.2251H89.017C89.2414 33.6184 89.69 34.9105 90.3628 36.1013C91.0357 37.2923 91.8766 38.3261 92.8859 39.2024C93.8952 40.079 95.039 40.7644 96.3175 41.2586C97.5959 41.753 98.9527 42.0003 100.388 42.0003C104.47 42.0003 107.767 40.3148 110.279 36.944L115.191 40.5844C113.486 42.8765 111.378 44.6744 108.866 45.9777C106.354 47.281 103.528 47.9327 100.388 47.9327C97.8315 47.9327 95.443 47.4831 93.2225 46.5844C91.0021 45.6856 89.0733 44.427 87.4361 42.809C85.7988 41.1909 84.5092 39.2921 83.5672 37.1124C82.6252 34.9327 82.1541 32.5618 82.1541 30.0001C82.1538 27.5732 82.6026 25.281 83.4996 23.1237ZM92.9532 20.4607C91.0468 22.0562 89.7796 24.1798 89.1516 26.8315H110.077C109.494 24.1798 108.249 22.0562 106.343 20.4607C104.437 18.8653 102.205 18.0675 99.6481 18.0675C97.0912 18.0675 94.8596 18.8653 92.9532 20.4607ZM129.657 21.2359C128.221 22.8089 127.504 24.9437 127.504 27.6405V47.1912H120.708V12.8091H127.436V17.0563C128.289 15.663 129.399 14.5618 130.767 13.7529C132.135 12.9438 133.761 12.5392 135.645 12.5392H138V18.8763H135.174C132.931 18.8765 131.092 19.6629 129.657 21.2359Z" fill="black"/>
</svg>
