<svg width="6" height="5" viewBox="0 0 6 5" fill="none" xmlns="http://www.w3.org/2000/svg">
<mask id="mask0_0_8565" style="mask-type:alpha" maskUnits="userSpaceOnUse" x="0" y="0" width="6" height="5">
<path d="M5.68443 0.0690126L5.69862 2.24915L5.68725 4.42919L3.06252 4.43089L0.287028 4.43269L0.28561 2.2526L0.2842 0.0725148L3.0597 0.0706761L5.68443 0.0690126Z" fill="#132F38"/>
</mask>
<g mask="url(#mask0_0_8565)">
<g clip-path="url(#clip0_0_8565)">
<path d="M-1.12041 0.00460028L7.11805 -0.000742958L7.12106 4.63339L-1.1174 4.63873L-1.12041 0.00460028Z" fill="#003399"/>
<path d="M3.00015 2.11243L2.90876 2.34134L3.06134 2.36412L3.00015 2.11243Z" fill="#FFCC00"/>
<path d="M3.0004 2.11227L3.09209 2.34106L2.93954 2.36404L3.0004 2.11227Z" fill="#FFCC00"/>
<path d="M3.28602 2.27651L2.97072 2.26672L3.00017 2.39189L3.28602 2.27651Z" fill="#FFCC00"/>
<path d="M3.28414 2.27433L3.03787 2.40734L2.95226 2.2945L3.28414 2.27433Z" fill="#FFCC00"/>
<path d="M3.18317 2.52795L3.06789 2.3012L2.93248 2.34536L3.18317 2.52795Z" fill="#FFCC00"/>
<path d="M3.18183 2.52879L2.92631 2.37769L3.02464 2.29576L3.18183 2.52879Z" fill="#FFCC00"/>
<path d="M2.71489 2.27752L3.03018 2.26732L3.0009 2.39252L2.71489 2.27752Z" fill="#FFCC00"/>
<path d="M2.717 2.2749L2.96345 2.4076L3.04891 2.29464L2.717 2.2749Z" fill="#FFCC00"/>
<path d="M2.81757 2.5282L2.93255 2.30131L3.06801 2.34528L2.81757 2.5282Z" fill="#FFCC00"/>
<path d="M2.81894 2.52902L3.07426 2.37759L2.97583 2.29578L2.81894 2.52902Z" fill="#FFCC00"/>
<path d="M3.00015 2.11243L2.90876 2.34134L3.06134 2.36412L3.00015 2.11243Z" fill="#FFCC00"/>
<path d="M3.0004 2.11227L3.09209 2.34106L2.93954 2.36404L3.0004 2.11227Z" fill="#FFCC00"/>
<path d="M3.28602 2.27651L2.97072 2.26672L3.00017 2.39189L3.28602 2.27651Z" fill="#FFCC00"/>
<path d="M3.28414 2.27433L3.03787 2.40734L2.95226 2.2945L3.28414 2.27433Z" fill="#FFCC00"/>
<path d="M3.18317 2.52795L3.06789 2.3012L2.93248 2.34536L3.18317 2.52795Z" fill="#FFCC00"/>
<path d="M3.18183 2.52879L2.92631 2.37769L3.02464 2.29576L3.18183 2.52879Z" fill="#FFCC00"/>
<path d="M2.71489 2.27752L3.03018 2.26732L3.0009 2.39252L2.71489 2.27752Z" fill="#FFCC00"/>
<path d="M2.717 2.2749L2.96345 2.4076L3.04891 2.29464L2.717 2.2749Z" fill="#FFCC00"/>
<path d="M2.81757 2.5282L2.93255 2.30131L3.06801 2.34528L2.81757 2.5282Z" fill="#FFCC00"/>
<path d="M2.81894 2.52902L3.07426 2.37759L2.97583 2.29578L2.81894 2.52902Z" fill="#FFCC00"/>
<path d="M3.00015 2.11229L2.90876 2.3412L3.06134 2.36398L3.00015 2.11229Z" fill="#FFCC00"/>
<path d="M3.0004 2.11207L3.09209 2.34085L2.93954 2.36384L3.0004 2.11207Z" fill="#FFCC00"/>
<path d="M3.28643 2.27645L2.97113 2.26666L3.00058 2.39182L3.28643 2.27645Z" fill="#FFCC00"/>
<path d="M3.28441 2.27419L3.03814 2.40721L2.95254 2.29436L3.28441 2.27419Z" fill="#FFCC00"/>
<path d="M3.18399 2.52788L3.06872 2.30114L2.93331 2.34529L3.18399 2.52788Z" fill="#FFCC00"/>
<path d="M3.18266 2.52865L2.92714 2.37756L3.02547 2.29562L3.18266 2.52865Z" fill="#FFCC00"/>
<path d="M2.71476 2.2769L3.03005 2.2667L3.00076 2.3919L2.71476 2.2769Z" fill="#FFCC00"/>
<path d="M2.71714 2.27449L2.96358 2.40718L3.04904 2.29423L2.71714 2.27449Z" fill="#FFCC00"/>
<path d="M2.8177 2.528L2.93269 2.3011L3.06815 2.34508L2.8177 2.528Z" fill="#FFCC00"/>
<path d="M2.81908 2.52888L3.0744 2.37745L2.97597 2.29565L2.81908 2.52888Z" fill="#FFCC00"/>
<path d="M1.92432 1.35084L2.17973 1.19913L2.08161 1.11749L1.92432 1.35084Z" fill="#FFCC00"/>
<path d="M1.92316 1.34987L2.03857 1.12292L2.17377 1.16669L1.92316 1.34987Z" fill="#FFCC00"/>
<path d="M1.8192 1.09427L2.07392 1.22837L2.1544 1.1204L1.8192 1.09427Z" fill="#FFCC00"/>
<path d="M1.81776 1.09553L2.13475 1.09222L2.11145 1.21327L1.81776 1.09553Z" fill="#FFCC00"/>
<path d="M2.11147 0.935898L2.01608 1.16327L2.15454 1.18064L2.11147 0.935898Z" fill="#FFCC00"/>
<path d="M2.11392 0.93669L2.18608 1.15798L2.0453 1.18548L2.11392 0.93669Z" fill="#FFCC00"/>
<path d="M2.28397 1.34533L2.03247 1.20686L2.14494 1.11731L2.28397 1.34533Z" fill="#FFCC00"/>
<path d="M2.2828 1.34631L2.1871 1.12214L2.0399 1.17542L2.2828 1.34631Z" fill="#FFCC00"/>
<path d="M2.39961 1.09025L2.13134 1.22766L2.059 1.13027L2.39961 1.09025Z" fill="#FFCC00"/>
<path d="M2.39923 1.08946L2.07944 1.10105L2.09297 1.21334L2.39923 1.08946Z" fill="#FFCC00"/>
<path d="M1.61183 1.85949L1.49612 1.63269L1.36097 1.67664L1.61183 1.85949Z" fill="#FFCC00"/>
<path d="M1.61029 1.86028L1.35468 1.70891L1.4527 1.62714L1.61029 1.86028Z" fill="#FFCC00"/>
<path d="M1.25132 1.85559L1.50264 1.71679L1.39005 1.62739L1.25132 1.85559Z" fill="#FFCC00"/>
<path d="M1.25247 1.85622L1.34788 1.63193L1.49514 1.68502L1.25247 1.85622Z" fill="#FFCC00"/>
<path d="M1.13524 1.60044L1.40369 1.7375L1.4759 1.64001L1.13524 1.60044Z" fill="#FFCC00"/>
<path d="M1.13606 1.59964L1.45587 1.61082L1.44248 1.72313L1.13606 1.59964Z" fill="#FFCC00"/>
<path d="M1.71619 1.60268L1.46165 1.73711L1.38103 1.62924L1.71619 1.60268Z" fill="#FFCC00"/>
<path d="M1.71754 1.60399L1.40054 1.60109L1.42401 1.72211L1.71754 1.60399Z" fill="#FFCC00"/>
<path d="M1.42292 1.44581L1.5186 1.67306L1.38016 1.69061L1.42292 1.44581Z" fill="#FFCC00"/>
<path d="M1.42061 1.44666L1.34873 1.66805L1.48955 1.69536L1.42061 1.44666Z" fill="#FFCC00"/>
<path d="M1.71447 2.98616L1.40055 2.97058L1.43492 3.09923L1.71447 2.98616Z" fill="#FFCC00"/>
<path d="M1.71143 2.98336L1.47196 3.11518L1.38226 2.99816L1.71143 2.98336Z" fill="#FFCC00"/>
<path d="M1.62115 3.23772L1.48789 3.00918L1.36332 3.04701L1.62115 3.23772Z" fill="#FFCC00"/>
<path d="M1.61745 3.23975L1.35824 3.07991L1.44357 3.00326L1.61745 3.23975Z" fill="#FFCC00"/>
<path d="M1.25653 3.23056L1.50573 3.09392L1.38565 3.00322L1.25653 3.23056Z" fill="#FFCC00"/>
<path d="M1.25934 3.2318L1.34438 3.00795L1.49789 3.0626L1.25934 3.2318Z" fill="#FFCC00"/>
<path d="M1.41879 2.82338L1.51963 3.04933L1.39941 3.0623L1.41879 2.82338Z" fill="#FFCC00"/>
<path d="M1.41292 2.82521L1.36625 3.04027L1.49189 3.0714L1.41292 2.82521Z" fill="#FFCC00"/>
<path d="M1.13639 2.97688L1.45764 2.9857L1.44934 3.09943L1.13639 2.97688Z" fill="#FFCC00"/>
<path d="M1.13464 2.97705L1.41013 3.11362L1.4781 3.01443L1.13464 2.97705Z" fill="#FFCC00"/>
<path d="M2.37595 3.4466L2.06203 3.43102L2.0964 3.55967L2.37595 3.4466Z" fill="#FFCC00"/>
<path d="M2.37305 3.44373L2.13358 3.57555L2.04387 3.45853L2.37305 3.44373Z" fill="#FFCC00"/>
<path d="M2.28221 3.69802L2.14895 3.46949L2.02439 3.50731L2.28221 3.69802Z" fill="#FFCC00"/>
<path d="M2.27824 3.70005L2.01903 3.54021L2.10436 3.46356L2.27824 3.70005Z" fill="#FFCC00"/>
<path d="M1.91801 3.69086L2.16721 3.55422L2.04712 3.46352L1.91801 3.69086Z" fill="#FFCC00"/>
<path d="M1.92041 3.69224L2.00545 3.46839L2.15896 3.52304L1.92041 3.69224Z" fill="#FFCC00"/>
<path d="M2.07999 3.28375L2.18084 3.5097L2.06061 3.52267L2.07999 3.28375Z" fill="#FFCC00"/>
<path d="M2.07413 3.28558L2.02745 3.50064L2.15309 3.53177L2.07413 3.28558Z" fill="#FFCC00"/>
<path d="M1.79828 3.43718L2.11953 3.446L2.11124 3.55973L1.79828 3.43718Z" fill="#FFCC00"/>
<path d="M1.79653 3.43742L2.07202 3.57399L2.13999 3.4748L1.79653 3.43742Z" fill="#FFCC00"/>
<path d="M3.00095 2.11207L3.09263 2.34085L2.94009 2.36384L3.00095 2.11207Z" fill="#FFCC00"/>
<path d="M3.00056 2.11209L2.90917 2.34099L3.06175 2.36378L3.00056 2.11209Z" fill="#FFCC00"/>
<path d="M2.71462 2.27663L3.02991 2.26643L3.00062 2.39163L2.71462 2.27663Z" fill="#FFCC00"/>
<path d="M2.717 2.27449L2.96345 2.40718L3.04891 2.29423L2.717 2.27449Z" fill="#FFCC00"/>
<path d="M2.81757 2.528L2.93255 2.3011L3.06801 2.34508L2.81757 2.528Z" fill="#FFCC00"/>
<path d="M2.81894 2.52888L3.07426 2.37745L2.97583 2.29565L2.81894 2.52888Z" fill="#FFCC00"/>
<path d="M3.28643 2.27638L2.97113 2.26659L3.00058 2.39175L3.28643 2.27638Z" fill="#FFCC00"/>
<path d="M3.28441 2.27412L3.03814 2.40714L2.95254 2.2943L3.28441 2.27412Z" fill="#FFCC00"/>
<path d="M3.18413 2.52788L3.06885 2.30114L2.93345 2.34529L3.18413 2.52788Z" fill="#FFCC00"/>
<path d="M3.18279 2.52858L2.92728 2.37749L3.02561 2.29555L3.18279 2.52858Z" fill="#FFCC00"/>
<path d="M4.07494 1.34951L3.81933 1.19814L3.91735 1.11637L4.07494 1.34951Z" fill="#FFCC00"/>
<path d="M4.07621 1.34866L3.9605 1.12185L3.82535 1.1658L4.07621 1.34866Z" fill="#FFCC00"/>
<path d="M4.1803 1.09287L3.92575 1.2273L3.84514 1.11944L4.1803 1.09287Z" fill="#FFCC00"/>
<path d="M4.1815 1.09405L3.86451 1.09115L3.88797 1.21216L4.1815 1.09405Z" fill="#FFCC00"/>
<path d="M3.88812 0.934771L3.9838 1.16202L3.84536 1.17957L3.88812 0.934771Z" fill="#FFCC00"/>
<path d="M3.88567 0.93562L3.8138 1.15701L3.95462 1.18432L3.88567 0.93562Z" fill="#FFCC00"/>
<path d="M3.71652 1.34468L3.96784 1.20588L3.85525 1.11648L3.71652 1.34468Z" fill="#FFCC00"/>
<path d="M3.71726 1.34545L3.81267 1.12116L3.95993 1.17425L3.71726 1.34545Z" fill="#FFCC00"/>
<path d="M3.59975 1.08967L3.8682 1.22673L3.94042 1.12924L3.59975 1.08967Z" fill="#FFCC00"/>
<path d="M3.60085 1.0888L3.92066 1.09998L3.90727 1.21229L3.60085 1.0888Z" fill="#FFCC00"/>
<path d="M4.38849 1.85741L4.5039 1.63046L4.63911 1.67423L4.38849 1.85741Z" fill="#FFCC00"/>
<path d="M4.39007 1.85824L4.64548 1.70654L4.54736 1.6249L4.39007 1.85824Z" fill="#FFCC00"/>
<path d="M4.7489 1.85294L4.4974 1.71447L4.60987 1.62492L4.7489 1.85294Z" fill="#FFCC00"/>
<path d="M4.74718 1.85378L4.65147 1.62961L4.50428 1.6829L4.74718 1.85378Z" fill="#FFCC00"/>
<path d="M4.86482 1.59779L4.59654 1.7352L4.5242 1.63781L4.86482 1.59779Z" fill="#FFCC00"/>
<path d="M4.86429 1.597L4.5445 1.60859L4.55803 1.72088L4.86429 1.597Z" fill="#FFCC00"/>
<path d="M4.28413 1.60202L4.53885 1.73612L4.61932 1.62815L4.28413 1.60202Z" fill="#FFCC00"/>
<path d="M4.28296 1.60321L4.59995 1.5999L4.57665 1.72094L4.28296 1.60321Z" fill="#FFCC00"/>
<path d="M4.57749 1.44365L4.4821 1.67102L4.62057 1.68838L4.57749 1.44365Z" fill="#FFCC00"/>
<path d="M4.58022 1.44444L4.65238 1.66573L4.5116 1.69323L4.58022 1.44444Z" fill="#FFCC00"/>
<path d="M4.29016 2.98422L4.60405 2.96823L4.56985 3.09692L4.29016 2.98422Z" fill="#FFCC00"/>
<path d="M4.29314 2.98152L4.53278 3.11304L4.62233 2.9959L4.29314 2.98152Z" fill="#FFCC00"/>
<path d="M4.38412 3.23565L4.51708 3.00694L4.6417 3.0446L4.38412 3.23565Z" fill="#FFCC00"/>
<path d="M4.38813 3.23764L4.64714 3.07746L4.56171 3.00091L4.38813 3.23764Z" fill="#FFCC00"/>
<path d="M4.74849 3.22791L4.49912 3.09159L4.61908 3.00074L4.74849 3.22791Z" fill="#FFCC00"/>
<path d="M4.74621 3.22923L4.66088 3.00549L4.50744 3.06033L4.74621 3.22923Z" fill="#FFCC00"/>
<path d="M4.58615 2.82109L4.48559 3.04717L4.60584 3.05998L4.58615 2.82109Z" fill="#FFCC00"/>
<path d="M4.59175 2.82304L4.63871 3.03804L4.51311 3.06933L4.59175 2.82304Z" fill="#FFCC00"/>
<path d="M4.8685 2.97411L4.54726 2.98334L4.5557 3.09706L4.8685 2.97411Z" fill="#FFCC00"/>
<path d="M4.87036 2.97454L4.59505 3.11146L4.52695 3.01236L4.87036 2.97454Z" fill="#FFCC00"/>
<path d="M3.62593 3.44623L3.93983 3.43025L3.90563 3.55894L3.62593 3.44623Z" fill="#FFCC00"/>
<path d="M3.62891 3.44313L3.86856 3.57464L3.95811 3.4575L3.62891 3.44313Z" fill="#FFCC00"/>
<path d="M3.72003 3.69732L3.85299 3.46861L3.97761 3.50628L3.72003 3.69732Z" fill="#FFCC00"/>
<path d="M3.72336 3.69931L3.98236 3.53914L3.89694 3.46259L3.72336 3.69931Z" fill="#FFCC00"/>
<path d="M4.0844 3.68959L3.83503 3.55327L3.955 3.46242L4.0844 3.68959Z" fill="#FFCC00"/>
<path d="M4.08171 3.69097L3.99638 3.46724L3.84294 3.52208L4.08171 3.69097Z" fill="#FFCC00"/>
<path d="M3.92123 3.28276L3.82068 3.50884L3.94093 3.52166L3.92123 3.28276Z" fill="#FFCC00"/>
<path d="M3.92739 3.28472L3.97435 3.49971L3.84874 3.531L3.92739 3.28472Z" fill="#FFCC00"/>
<path d="M4.20317 3.43592L3.88194 3.44516L3.89038 3.55887L4.20317 3.43592Z" fill="#FFCC00"/>
<path d="M4.20517 3.43607L3.92986 3.573L3.86176 3.4739L4.20517 3.43607Z" fill="#FFCC00"/>
</g>
</g>
<defs>
<clipPath id="clip0_0_8565">
<rect width="7.32347" height="4.11945" fill="white" transform="translate(-1.12068 0.00460028) scale(1.12494) rotate(-0.0371605)"/>
</clipPath>
</defs>
</svg>
