<svg width="7" height="7" viewBox="0 0 7 7" fill="none" xmlns="http://www.w3.org/2000/svg">
<path d="M3.35599 4.66718C3.29846 4.66755 3.24143 4.65656 3.18816 4.63484C3.13489 4.61312 3.08643 4.5811 3.04556 4.54062L1.29596 2.79329C1.25518 2.75256 1.22282 2.7042 1.20073 2.65096C1.17863 2.59772 1.16724 2.54066 1.16721 2.48302C1.16717 2.42538 1.17849 2.3683 1.20051 2.31504C1.22253 2.26177 1.25483 2.21337 1.29556 2.17259C1.33629 2.1318 1.38465 2.09944 1.43789 2.07735C1.49112 2.05526 1.54819 2.04387 1.60583 2.04383C1.66346 2.04379 1.72055 2.05511 1.77381 2.07713C1.82707 2.09915 1.87548 2.13145 1.91626 2.17218L3.35531 3.6181L4.79689 2.22714C4.83707 2.1824 4.88605 2.14643 4.94077 2.12149C4.99549 2.09654 5.05476 2.08316 5.11489 2.08217C5.17501 2.08117 5.2347 2.0926 5.29021 2.11573C5.34572 2.13885 5.39586 2.17319 5.43749 2.21657C5.47913 2.25996 5.51136 2.31148 5.53218 2.36789C5.553 2.42431 5.56195 2.48441 5.55848 2.54445C5.55501 2.60448 5.53919 2.66315 5.51201 2.71679C5.48483 2.77044 5.44688 2.81789 5.40052 2.85619L3.65315 4.5446C3.57326 4.62172 3.46702 4.66555 3.35599 4.66718Z" fill="#0C2527"/>
</svg>
