<svg width="146" height="143" viewBox="0 0 146 143" fill="none" xmlns="http://www.w3.org/2000/svg">
<g filter="url(#filter0_d_0_9331)">
<rect width="146" height="143" rx="12" fill="white"/>
<path d="M69.3645 98.6251H12.9823C12.5403 98.6243 12.1167 98.449 11.8041 98.1376C11.4916 97.8263 11.3157 97.4042 11.3149 96.9638V17.9917C11.3196 17.5539 11.4972 17.1355 11.8093 16.8272C12.1214 16.519 12.5428 16.3457 12.9823 16.345H69.3645C69.8062 16.3457 70.2296 16.5211 70.5416 16.8326C70.8537 17.1441 71.0289 17.5662 71.0289 18.0063V96.9638C71.0289 97.4039 70.8537 97.826 70.5416 98.1375C70.2296 98.4489 69.8062 98.6243 69.3645 98.6251ZM12.9823 16.4032C12.5597 16.4039 12.1546 16.5715 11.8558 16.8693C11.5569 17.167 11.3887 17.5707 11.3879 17.9917V96.9638C11.3887 97.3849 11.5569 97.7885 11.8558 98.0862C12.1546 98.384 12.5597 98.5516 12.9823 98.5524H69.3645C69.7869 98.5516 70.1916 98.3839 70.49 98.086C70.7884 97.7882 70.9559 97.3846 70.9559 96.9638V17.9917C70.9559 17.5709 70.7884 17.1673 70.49 16.8695C70.1916 16.5716 69.7869 16.4039 69.3645 16.4032H12.9823Z" fill="#1E4243"/>
<path d="M132.524 98.6251H76.139C75.6973 98.6243 75.2739 98.4489 74.9619 98.1375C74.6498 97.826 74.4745 97.4039 74.4745 96.9638V17.9917C74.4784 17.5542 74.6554 17.1358 74.967 16.8274C75.2786 16.5191 75.6998 16.3457 76.139 16.345H132.524C132.963 16.3457 133.384 16.5191 133.696 16.8274C134.008 17.1358 134.185 17.5542 134.189 17.9917V96.9638C134.189 97.4039 134.013 97.826 133.701 98.1375C133.389 98.4489 132.966 98.6243 132.524 98.6251ZM76.139 16.4032C75.7166 16.4039 75.3118 16.5716 75.0135 16.8695C74.7151 17.1673 74.5475 17.5709 74.5475 17.9917V96.9638C74.5475 97.3846 74.7151 97.7882 75.0135 98.086C75.3118 98.3839 75.7166 98.5516 76.139 98.5524H132.524C132.947 98.5516 133.352 98.3841 133.652 98.0864C133.951 97.7887 134.12 97.3851 134.121 96.9638V17.9917C134.12 17.5704 133.951 17.1668 133.652 16.8691C133.352 16.5714 132.947 16.4039 132.524 16.4032H76.139Z" fill="#1E4243"/>
<path d="M60.4147 56.7083L60.0147 90.9063C58.6014 102.285 38.357 111.319 38.357 111.319C38.357 111.319 18.1098 102.294 16.6877 90.9063L16.276 56.7083L37.9132 49.6121L60.4147 56.7083Z" fill="#F5F5F5"/>
<path d="M57.5911 58.873L57.2436 89.5797C56.0114 99.5039 38.3541 107.383 38.3541 107.383C38.3541 107.383 20.6969 99.5039 19.4676 89.5797L19.0967 58.873L37.9687 52.6846L57.5911 58.873Z" fill="#2E8B8B"/>
<path d="M56.353 60.8108L56.026 89.0008C54.858 98.3111 38.3162 105.69 38.3162 105.69C38.3162 105.69 21.7627 98.3024 20.6093 89.0008L20.2618 60.8108L37.9541 55.0093L56.353 60.8108Z" stroke="white" stroke-width="2.57143" stroke-linecap="round" stroke-linejoin="round"/>
<path d="M128.325 45.1665H89.3782V113.26H128.325V45.1665Z" fill="#F5F5F5"/>
<path d="M125.502 47.843H92.2573V113.26H125.502V47.843Z" fill="#1E4243"/>
<path d="M93.1917 113.551C93.1334 113.551 93.0758 113.539 93.0224 113.516C92.9696 113.495 92.9219 113.463 92.8822 113.423C92.8398 113.383 92.8068 113.334 92.7858 113.28C92.7648 113.227 92.7539 113.171 92.7537 113.114C92.7538 113.05 92.7682 112.986 92.7959 112.928C92.8235 112.87 92.8638 112.819 92.9137 112.778C92.9637 112.737 93.0221 112.707 93.0848 112.692C93.1475 112.676 93.213 112.674 93.2764 112.687L93.3582 112.71L93.4341 112.751C93.4577 112.768 93.4802 112.786 93.5012 112.806C93.522 112.826 93.5397 112.848 93.5538 112.873C93.5708 112.896 93.5846 112.922 93.5947 112.949C93.6065 112.975 93.6153 113.002 93.621 113.03C93.624 113.058 93.624 113.086 93.621 113.114C93.6212 113.172 93.6092 113.228 93.5859 113.28C93.565 113.334 93.5332 113.382 93.4925 113.423C93.4122 113.502 93.3047 113.548 93.1917 113.551Z" fill="white"/>
<path d="M92.7479 102.396C92.7483 102.338 92.7601 102.281 92.7826 102.228C92.8051 102.175 92.838 102.127 92.8793 102.087C92.9205 102.047 92.9694 102.015 93.023 101.994C93.0766 101.972 93.1339 101.961 93.1917 101.962C93.3079 101.962 93.4193 102.008 93.5014 102.09C93.5836 102.172 93.6297 102.283 93.6297 102.399C93.6297 102.514 93.5836 102.625 93.5014 102.707C93.4193 102.789 93.3079 102.835 93.1917 102.835C93.1335 102.836 93.0756 102.825 93.0216 102.803C92.9676 102.782 92.9185 102.749 92.8772 102.708C92.8358 102.667 92.8031 102.619 92.7809 102.565C92.7587 102.511 92.7475 102.454 92.7479 102.396ZM92.7479 91.6802C92.7479 91.5644 92.794 91.4534 92.8762 91.3716C92.9583 91.2897 93.0697 91.2437 93.1859 91.2437C93.302 91.2437 93.4134 91.2897 93.4956 91.3716C93.5777 91.4534 93.6239 91.5644 93.6239 91.6802C93.6239 91.7959 93.5777 91.9069 93.4956 91.9888C93.4134 92.0706 93.302 92.1166 93.1859 92.1166C93.0697 92.1166 92.9583 92.0706 92.8762 91.9888C92.794 91.9069 92.7479 91.7959 92.7479 91.6802ZM92.7479 80.9616C92.7479 80.8459 92.794 80.7349 92.8762 80.653C92.9583 80.5712 93.0697 80.5252 93.1859 80.5252C93.302 80.5252 93.4134 80.5712 93.4956 80.653C93.5777 80.7349 93.6239 80.8459 93.6239 80.9616C93.6239 81.0774 93.5777 81.1884 93.4956 81.2702C93.4134 81.3521 93.302 81.3981 93.1859 81.3981C93.1284 81.3981 93.0714 81.3868 93.0183 81.3648C92.9651 81.3429 92.9168 81.3108 92.8762 81.2702C92.8355 81.2297 92.8032 81.1816 92.7812 81.1286C92.7592 81.0757 92.7479 81.0189 92.7479 80.9616ZM92.7479 70.2431C92.7479 70.1274 92.794 70.0164 92.8762 69.9345C92.9583 69.8527 93.0697 69.8067 93.1859 69.8067C93.302 69.8067 93.4134 69.8527 93.4956 69.9345C93.5777 70.0164 93.6239 70.1274 93.6239 70.2431C93.6239 70.3589 93.5777 70.4699 93.4956 70.5517C93.4134 70.6335 93.302 70.6795 93.1859 70.6795C93.0707 70.6795 92.9602 70.6344 92.8782 70.5538C92.7962 70.4732 92.7494 70.3637 92.7479 70.2489V70.2431ZM92.7479 59.5275C92.7479 59.4117 92.794 59.3007 92.8762 59.2189C92.9583 59.137 93.0697 59.0911 93.1859 59.0911C93.302 59.0911 93.4134 59.137 93.4956 59.2189C93.5777 59.3007 93.6239 59.4117 93.6239 59.5275C93.6239 59.6432 93.5777 59.7542 93.4956 59.8361C93.4134 59.9179 93.302 59.9639 93.1859 59.9639C93.1284 59.9639 93.0714 59.9526 93.0183 59.9307C92.9651 59.9088 92.9168 59.8766 92.8762 59.8361C92.8355 59.7956 92.8032 59.7475 92.7812 59.6945C92.7592 59.6416 92.7479 59.5848 92.7479 59.5275Z" fill="white"/>
<path d="M93.1918 49.2454C93.1342 49.2456 93.0772 49.2345 93.024 49.2125C92.9709 49.1905 92.9227 49.1582 92.8822 49.1174C92.8607 49.0978 92.842 49.0752 92.8268 49.0504C92.8114 49.0272 92.7977 49.0029 92.7859 48.9777C92.7739 48.9509 92.766 48.9225 92.7625 48.8933C92.7595 48.8653 92.7595 48.837 92.7625 48.809C92.7633 48.6934 92.8094 48.5827 92.891 48.5005C92.9104 48.4799 92.9319 48.4614 92.9552 48.4453C92.979 48.4298 93.0045 48.4171 93.0312 48.4074C93.0575 48.3961 93.0849 48.3873 93.1129 48.3813C93.1698 48.3697 93.2284 48.3697 93.2852 48.3813C93.3132 48.3873 93.3406 48.3961 93.367 48.4074C93.3936 48.4171 93.4191 48.4298 93.4429 48.4453C93.4665 48.4621 93.489 48.4806 93.51 48.5005C93.5917 48.5827 93.6378 48.6934 93.6385 48.809C93.6415 48.837 93.6415 48.8653 93.6385 48.8933C93.6324 48.9222 93.6236 48.9505 93.6122 48.9777C93.6015 49.0035 93.5878 49.0279 93.5714 49.0504C93.5572 49.0752 93.5395 49.0977 93.5188 49.1174C93.4759 49.1598 93.4248 49.193 93.3685 49.215C93.3123 49.237 93.2521 49.2473 93.1918 49.2454Z" fill="white"/>
<path d="M113.597 48.809C113.597 48.6932 113.643 48.5822 113.725 48.5004C113.807 48.4185 113.919 48.3726 114.035 48.3726C114.151 48.3726 114.262 48.4185 114.344 48.5004C114.427 48.5822 114.473 48.6932 114.473 48.809C114.473 48.9247 114.427 49.0357 114.344 49.1176C114.262 49.1994 114.151 49.2454 114.035 49.2454C113.919 49.2454 113.807 49.1994 113.725 49.1176C113.643 49.0357 113.597 48.9247 113.597 48.809ZM103.172 48.809C103.172 48.6932 103.218 48.5822 103.301 48.5004C103.383 48.4185 103.494 48.3726 103.61 48.3726C103.726 48.3726 103.838 48.4185 103.92 48.5004C104.002 48.5822 104.048 48.6932 104.048 48.809C104.048 48.9247 104.002 49.0357 103.92 49.1176C103.838 49.1994 103.726 49.2454 103.61 49.2454C103.494 49.2454 103.383 49.1994 103.301 49.1176C103.218 49.0357 103.172 48.9247 103.172 48.809Z" fill="white"/>
<path d="M124.459 49.2454C124.431 49.2483 124.403 49.2483 124.374 49.2454L124.293 49.2222L124.217 49.1814C124.193 49.1646 124.171 49.1461 124.15 49.1261C124.067 49.0444 124.021 48.9334 124.021 48.8177C124.022 48.7022 124.068 48.5915 124.15 48.5093C124.17 48.4894 124.192 48.4719 124.217 48.457C124.24 48.4395 124.265 48.4257 124.293 48.4162C124.319 48.4045 124.346 48.3957 124.374 48.39C124.431 48.3784 124.49 48.3784 124.547 48.39L124.628 48.4162C124.655 48.4258 124.68 48.4396 124.701 48.457C124.726 48.4711 124.749 48.4887 124.769 48.5093C124.85 48.5915 124.896 48.7022 124.897 48.8177C124.897 48.9334 124.851 49.0444 124.769 49.1261C124.748 49.1468 124.726 49.1654 124.701 49.1814C124.678 49.1967 124.654 49.2103 124.628 49.2222L124.547 49.2454C124.518 49.2483 124.488 49.2483 124.459 49.2454Z" fill="white"/>
<path d="M124.021 102.396C124.021 102.28 124.067 102.169 124.149 102.087C124.232 102.005 124.343 101.959 124.459 101.959C124.575 101.959 124.687 102.005 124.769 102.087C124.851 102.169 124.897 102.28 124.897 102.396C124.897 102.512 124.851 102.623 124.769 102.704C124.687 102.786 124.575 102.832 124.459 102.832C124.343 102.832 124.232 102.786 124.149 102.704C124.067 102.623 124.021 102.512 124.021 102.396ZM124.021 91.6802C124.021 91.5644 124.067 91.4534 124.149 91.3716C124.232 91.2897 124.343 91.2437 124.459 91.2437C124.575 91.2437 124.687 91.2897 124.769 91.3716C124.851 91.4534 124.897 91.5644 124.897 91.6802C124.897 91.7959 124.851 91.9069 124.769 91.9888C124.687 92.0706 124.575 92.1166 124.459 92.1166C124.343 92.1166 124.232 92.0706 124.149 91.9888C124.067 91.9069 124.021 91.7959 124.021 91.6802ZM124.021 80.9616C124.021 80.8459 124.067 80.7349 124.149 80.653C124.232 80.5712 124.343 80.5252 124.459 80.5252C124.575 80.5252 124.687 80.5712 124.769 80.653C124.851 80.7349 124.897 80.8459 124.897 80.9616C124.897 81.0774 124.851 81.1884 124.769 81.2702C124.687 81.3521 124.575 81.3981 124.459 81.3981C124.402 81.3981 124.345 81.3868 124.292 81.3648C124.238 81.3429 124.19 81.3108 124.149 81.2702C124.109 81.2297 124.076 81.1816 124.054 81.1286C124.032 81.0757 124.021 81.019 124.021 80.9616ZM124.021 70.2431C124.021 70.1274 124.067 70.0164 124.149 69.9345C124.232 69.8527 124.343 69.8067 124.459 69.8067C124.575 69.8067 124.687 69.8527 124.769 69.9345C124.851 70.0164 124.897 70.1274 124.897 70.2431C124.897 70.3589 124.851 70.4699 124.769 70.5517C124.687 70.6336 124.575 70.6795 124.459 70.6795C124.344 70.6795 124.233 70.6344 124.151 70.5538C124.069 70.4732 124.023 70.3637 124.021 70.2489V70.2431ZM124.021 59.5275C124.021 59.4117 124.067 59.3007 124.149 59.2189C124.232 59.137 124.343 59.0911 124.459 59.0911C124.575 59.0911 124.687 59.137 124.769 59.2189C124.851 59.3007 124.897 59.4117 124.897 59.5275C124.897 59.6432 124.851 59.7542 124.769 59.8361C124.687 59.9179 124.575 59.9639 124.459 59.9639C124.402 59.9639 124.345 59.9526 124.292 59.9307C124.238 59.9088 124.19 59.8766 124.149 59.8361C124.109 59.7956 124.076 59.7475 124.054 59.6945C124.032 59.6416 124.021 59.5848 124.021 59.5275Z" fill="white"/>
<path d="M124.459 113.551C124.373 113.551 124.288 113.525 124.216 113.477C124.144 113.429 124.088 113.361 124.055 113.281C124.022 113.202 124.013 113.114 124.03 113.029C124.047 112.945 124.088 112.867 124.15 112.806C124.171 112.786 124.193 112.768 124.217 112.751L124.293 112.71L124.374 112.687C124.431 112.675 124.49 112.675 124.547 112.687L124.628 112.71C124.654 112.722 124.678 112.735 124.701 112.751C124.726 112.767 124.748 112.785 124.769 112.806C124.851 112.888 124.897 112.999 124.897 113.114C124.898 113.172 124.887 113.229 124.865 113.282C124.842 113.335 124.81 113.383 124.769 113.423C124.687 113.505 124.575 113.551 124.459 113.551Z" fill="white"/>
<path d="M27.4918 113.37H15.4584V113.443H27.4918V113.37Z" fill="#E0E0E0"/>
<path d="M52.0197 112.789H39.9514V112.861H52.0197V112.789Z" fill="#E0E0E0"/>
<path d="M67.7235 112.789H64.8035V112.861H67.7235V112.789Z" fill="#E0E0E0"/>
<path d="M38.5381 115.273H25.0331V115.346H38.5381V115.273Z" fill="#E0E0E0"/>
<path d="M85.2493 113.333H78.9421V113.405H85.2493V113.333Z" fill="#E0E0E0"/>
<path d="M96.0037 113.333H87.8481V113.405H96.0037V113.333Z" fill="#E0E0E0"/>
<path d="M135.336 114.563H117.104V114.636H135.336V114.563Z" fill="#E0E0E0"/>
<path d="M67.9075 24.7594H54.455L55.1909 16.4062H68.6404L67.9075 24.7594Z" fill="#1E4243"/>
<path d="M68.179 15.2715L67.8111 19.6328L67.4432 24.8757H54.5076L55.2434 15.2715H68.179Z" fill="#FAFAFA"/>
<path d="M66.9438 16.4063L67.6768 24.7594H54.2272L53.4914 16.4063H54.636L55.0332 15.7778H58.6569L59.1766 16.4063H66.9438Z" fill="#2E8B8B"/>
<path d="M88.7563 26.6243H74.4424V40.8865H88.7563V26.6243Z" fill="#1E4243"/>
<path d="M89.1212 26.6243H88.7562V40.8865H89.1212V26.6243Z" fill="#E0E0E0"/>
<path d="M87.4306 27.9451H75.7623V39.5714H87.4306V27.9451Z" fill="#F5F5F5"/>
<path d="M75.8732 27.9451H75.7652V39.5714H75.8732V27.9451Z" fill="#E0E0E0"/>
<path d="M81.7074 35.4372C82.9636 35.4372 83.982 34.145 83.982 32.551C83.982 30.957 82.9636 29.6648 81.7074 29.6648C80.4511 29.6648 79.4327 30.957 79.4327 32.551C79.4327 34.145 80.4511 35.4372 81.7074 35.4372Z" fill="#2E8B8B"/>
<path d="M80.5189 36.8977H82.9163V34.509H80.5189V36.8977Z" fill="#2E8B8B"/>
<path d="M86.029 39.5715H77.2456V38.7569C77.2456 38.013 77.5422 37.2996 78.0701 36.7736C78.598 36.2476 79.3139 35.9521 80.0605 35.9521H83.2258C83.9723 35.9521 84.6883 36.2476 85.2162 36.7736C85.7441 37.2996 86.0406 38.013 86.0406 38.7569V39.5715H86.029Z" fill="#2E8B8B"/>
<path d="M77.0266 34.7185C77.0266 35.1928 77.9026 35.5914 77.9026 35.5914C77.9026 35.5914 78.7786 35.2044 78.7786 34.7185C78.7786 34.4916 78.4633 34.3636 78.2559 34.4276C78.1765 34.4552 78.1033 34.4982 78.0407 34.5541C77.978 34.61 77.9271 34.6778 77.8909 34.7534C77.7792 34.6034 77.6316 34.4834 77.4617 34.4043C77.4119 34.3869 77.3585 34.3818 77.3063 34.3894C77.254 34.397 77.2044 34.4171 77.1616 34.448C77.1189 34.4789 77.0843 34.5196 77.0608 34.5667C77.0373 34.6138 77.0255 34.6659 77.0266 34.7185Z" fill="#2E8B8B"/>
<path d="M84.7996 32.5973C84.7996 33.2229 85.9355 33.7291 85.9355 33.7291C85.9355 33.7291 87.0714 33.2229 87.0714 32.5973C87.0714 32.3064 86.6509 32.1347 86.3852 32.2104C86.1848 32.2901 86.0235 32.4446 85.9355 32.641C85.7874 32.4449 85.5941 32.2873 85.372 32.1813C85.3062 32.1581 85.2357 32.1512 85.1667 32.1612C85.0976 32.1713 85.0321 32.1979 84.9757 32.2389C84.9193 32.2799 84.8738 32.334 84.8431 32.3964C84.8125 32.4589 84.7975 32.5278 84.7996 32.5973Z" fill="#2E8B8B"/>
<path d="M59.8191 103.801C59.9534 104.642 60.5637 105.366 60.6104 106.216C60.6483 106.882 60.3359 107.508 60.1811 108.157C60.0264 108.805 60.1023 109.611 60.6717 109.955C60.8789 110.06 61.1104 110.108 61.3423 110.094C61.5743 110.08 61.7984 110.005 61.9915 109.876C62.3729 109.613 62.6878 109.266 62.9114 108.861C63.807 107.418 64.2962 105.762 64.3275 104.066C64.3275 103.353 64.2546 102.597 63.8341 102.029C62.5318 100.217 59.4862 101.706 59.8191 103.801Z" fill="#F5F5F5"/>
<path d="M58.7357 101.575C58.8613 101.712 59.025 101.808 59.2059 101.852C59.3152 101.887 59.4319 101.894 59.5448 101.872C59.6577 101.851 59.7631 101.8 59.8512 101.727C59.9182 101.641 59.966 101.541 59.9912 101.436C60.0164 101.33 60.0184 101.219 59.9972 101.113C59.9793 100.845 59.8873 100.587 59.7315 100.368C59.6531 100.26 59.5492 100.173 59.429 100.114C59.3088 100.056 59.176 100.028 59.0423 100.033C58.9089 100.044 58.7834 100.1 58.6866 100.193C58.5899 100.285 58.5278 100.407 58.5109 100.54C58.4784 100.9 58.5568 101.261 58.7357 101.575Z" fill="#F5F5F5"/>
<path d="M61.1623 99.8268C61.1026 99.7347 61.0171 99.6622 60.9164 99.6182C60.8156 99.5743 60.7042 99.5608 60.5958 99.5795C60.4886 99.6034 60.3912 99.6589 60.3162 99.7388C60.2411 99.8188 60.1921 99.9194 60.1753 100.028C60.1706 100.098 60.1706 100.169 60.1753 100.24C60.1764 100.354 60.1891 100.468 60.2133 100.58C60.2377 100.688 60.2889 100.788 60.3622 100.871C60.4624 100.968 60.5896 101.033 60.7272 101.057C60.8124 101.078 60.9012 101.077 60.9861 101.056C61.071 101.035 61.1495 100.993 61.2149 100.935C61.273 100.865 61.3163 100.783 61.3424 100.696C61.3685 100.609 61.3767 100.517 61.3667 100.426C61.36 100.211 61.2888 100.002 61.1623 99.8268Z" fill="#F5F5F5"/>
<path d="M62.5142 99.7542C62.4664 99.6664 62.3884 99.5986 62.2946 99.5634C62.2008 99.5281 62.0974 99.5277 62.0032 99.5622C61.9114 99.6002 61.8303 99.6602 61.7672 99.7368C61.7041 99.8134 61.6608 99.9043 61.6412 100.001C61.6412 100.065 61.6236 100.13 61.6207 100.194C61.619 100.299 61.6307 100.405 61.6558 100.508C61.6767 100.609 61.73 100.701 61.8076 100.77C61.8904 100.839 61.9922 100.881 62.0996 100.892C62.1696 100.9 62.2406 100.894 62.3076 100.872C62.3747 100.85 62.4362 100.814 62.488 100.767C62.6015 100.638 62.6638 100.472 62.6632 100.301C62.676 100.107 62.6236 99.9149 62.5142 99.7542Z" fill="#F5F5F5"/>
<path d="M63.7202 100.033C63.5771 99.821 63.4282 99.8064 63.2647 99.8966C63.1193 100.003 63.016 100.156 62.9727 100.33C62.9563 100.386 62.9445 100.444 62.9376 100.502C62.9218 100.598 62.9218 100.696 62.9376 100.793C62.9567 100.886 63.011 100.968 63.0895 101.023C63.1618 101.068 63.2469 101.088 63.3318 101.081C63.4423 101.071 63.5457 101.023 63.6238 100.944C63.7313 100.829 63.7997 100.684 63.8195 100.528C63.8491 100.357 63.8137 100.18 63.7202 100.033Z" fill="#F5F5F5"/>
<path d="M63.9567 101.212C63.9407 101.281 63.9407 101.352 63.9567 101.421C63.9626 101.457 63.9771 101.49 63.999 101.518C64.0209 101.547 64.0495 101.569 64.0822 101.584C64.1419 101.598 64.2043 101.593 64.2614 101.572C64.3186 101.55 64.368 101.512 64.4034 101.462C64.4898 101.374 64.553 101.266 64.5874 101.148C64.6044 101.089 64.6093 101.027 64.6018 100.966C64.5943 100.905 64.5745 100.846 64.5436 100.793C64.2837 100.371 63.9917 101.002 63.9567 101.212Z" fill="#F5F5F5"/>
<path d="M64.1932 123.234C64.3889 122.547 64.5027 121.793 64.2429 121.127C63.4399 119.053 60.1227 119.713 59.9037 121.825L64.1932 123.234Z" fill="#F5F5F5"/>
<path d="M59.4424 119.399C59.5291 119.563 59.6633 119.698 59.8278 119.786C59.9241 119.848 60.0347 119.884 60.1492 119.892C60.2636 119.9 60.3781 119.878 60.4819 119.829C60.5672 119.763 60.6373 119.679 60.6877 119.583C60.738 119.487 60.7674 119.382 60.7739 119.274C60.8254 119.011 60.8032 118.739 60.7096 118.488C60.6612 118.363 60.5826 118.252 60.4808 118.164C60.3789 118.076 60.257 118.015 60.1256 117.985C59.9943 117.962 59.859 117.984 59.7421 118.048C59.6252 118.112 59.5339 118.214 59.4832 118.337C59.3624 118.679 59.3481 119.049 59.4424 119.399Z" fill="#F5F5F5"/>
<path d="M62.2397 118.325C62.2051 118.221 62.1408 118.13 62.0547 118.061C61.9686 117.993 61.8645 117.951 61.755 117.941C61.6452 117.938 61.5369 117.967 61.4437 118.025C61.3506 118.083 61.277 118.167 61.2323 118.267C61.2066 118.334 61.1852 118.402 61.1681 118.471C61.1386 118.581 61.1209 118.694 61.1155 118.808C61.1082 118.922 61.1314 119.035 61.1827 119.137C61.2519 119.253 61.3533 119.347 61.4747 119.408C61.5516 119.448 61.6373 119.47 61.7243 119.47C61.8114 119.47 61.8971 119.448 61.974 119.408C62.0506 119.356 62.1159 119.289 62.1661 119.212C62.2162 119.134 62.2502 119.047 62.266 118.957C62.3184 118.748 62.3093 118.529 62.2397 118.325Z" fill="#F5F5F5"/>
<path d="M63.5538 118.602C63.5299 118.506 63.4729 118.422 63.3928 118.363C63.3127 118.305 63.2146 118.277 63.1158 118.285C63.017 118.299 62.9231 118.336 62.8422 118.395C62.7613 118.453 62.6959 118.53 62.6515 118.619C62.6251 118.677 62.6017 118.736 62.5814 118.797C62.5485 118.895 62.5289 118.998 62.523 119.102C62.5172 119.205 62.5437 119.306 62.5989 119.393C62.6636 119.484 62.7556 119.552 62.8617 119.588C62.9273 119.614 62.9981 119.626 63.0687 119.622C63.1394 119.618 63.2083 119.598 63.2705 119.565C63.4139 119.471 63.5178 119.328 63.5625 119.163C63.6218 118.98 63.6187 118.783 63.5538 118.602Z" fill="#F5F5F5"/>
<path d="M64.6458 119.181C64.5641 118.936 64.4093 118.89 64.2429 118.931C64.0728 118.994 63.9302 119.114 63.8399 119.271C63.8107 119.322 63.7844 119.374 63.7611 119.428C63.7253 119.515 63.7036 119.608 63.6968 119.702C63.6912 119.795 63.7215 119.888 63.7815 119.961C63.8393 120.023 63.9163 120.065 64.0005 120.08C64.1098 120.101 64.2231 120.081 64.3188 120.025C64.4505 119.94 64.5525 119.817 64.6108 119.672C64.6821 119.518 64.6945 119.343 64.6458 119.181Z" fill="#F5F5F5"/>
<path d="M64.5757 120.379C64.54 120.441 64.519 120.509 64.5144 120.58C64.5115 120.616 64.5172 120.651 64.5309 120.684C64.5446 120.717 64.566 120.746 64.5932 120.769C64.6473 120.798 64.7086 120.81 64.7694 120.803C64.8302 120.797 64.8878 120.773 64.9349 120.734C65.0406 120.671 65.1296 120.583 65.1948 120.478C65.2263 120.425 65.247 120.367 65.2555 120.306C65.264 120.245 65.2602 120.183 65.2444 120.123C65.0926 119.649 64.6692 120.19 64.5757 120.379Z" fill="#F5F5F5"/>
<path d="M52.6826 110.883C52.7906 111.73 52.3906 112.594 52.595 113.423C52.7439 114.072 53.2198 114.587 53.5469 115.169C53.8739 115.75 54.0287 116.542 53.5732 117.031C53.404 117.189 53.1955 117.3 52.9691 117.351C52.7426 117.402 52.5066 117.392 52.2854 117.322C51.846 117.171 51.4466 116.924 51.1174 116.597C49.8563 115.458 48.9263 114.002 48.4252 112.381C48.215 111.698 48.0865 110.95 48.3318 110.278C49.0997 108.186 52.4227 108.779 52.6826 110.883Z" fill="#F5F5F5"/>
<path d="M53.0943 108.451C53.0122 108.616 52.882 108.753 52.7205 108.843C52.6257 108.908 52.5157 108.948 52.4012 108.958C52.2866 108.968 52.1713 108.949 52.0665 108.902C51.9775 108.838 51.9035 108.756 51.8496 108.661C51.7957 108.566 51.763 108.46 51.754 108.352C51.6977 108.089 51.7138 107.817 51.8007 107.563C51.848 107.436 51.926 107.323 52.028 107.234C52.1299 107.144 52.2525 107.082 52.3847 107.051C52.5157 107.025 52.6517 107.044 52.7702 107.105C52.8887 107.167 52.9825 107.267 53.0359 107.389C53.1177 107.659 53.2199 108.186 53.0943 108.451Z" fill="#F5F5F5"/>
<path d="M50.2882 107.435C50.3203 107.33 50.3825 107.237 50.467 107.167C50.5515 107.096 50.6548 107.052 50.7641 107.04C50.8739 107.034 50.9829 107.061 51.077 107.118C51.1712 107.174 51.2463 107.257 51.2927 107.357C51.3209 107.422 51.3443 107.489 51.3627 107.557C51.3942 107.667 51.4138 107.779 51.4211 107.892C51.4317 108.006 51.4105 108.121 51.3598 108.224C51.2949 108.348 51.1929 108.45 51.0678 108.515C50.9926 108.559 50.9078 108.583 50.8207 108.587C50.7336 108.59 50.647 108.573 50.5685 108.535C50.4922 108.484 50.4271 108.417 50.377 108.34C50.3268 108.263 50.2926 108.177 50.2765 108.087C50.2131 107.874 50.2172 107.646 50.2882 107.435Z" fill="#F5F5F5"/>
<path d="M48.9684 107.738C48.9899 107.64 49.046 107.553 49.1264 107.493C49.2068 107.433 49.3062 107.405 49.4064 107.412C49.5051 107.424 49.5994 107.459 49.6812 107.516C49.7631 107.572 49.8301 107.647 49.8765 107.735C49.9045 107.792 49.9289 107.852 49.9495 107.912C49.9852 108.011 50.0078 108.113 50.0166 108.218C50.0225 108.32 49.9971 108.421 49.9436 108.509C49.8814 108.601 49.7914 108.671 49.6867 108.709C49.6217 108.737 49.5513 108.751 49.4806 108.748C49.4099 108.746 49.3406 108.727 49.2779 108.695C49.1351 108.603 49.0312 108.462 48.9859 108.299C48.9181 108.119 48.9119 107.922 48.9684 107.738Z" fill="#F5F5F5"/>
<path d="M47.888 108.34C47.9668 108.096 48.1186 108.049 48.288 108.081C48.4594 108.141 48.604 108.26 48.6968 108.416C48.7274 108.465 48.7547 108.517 48.7786 108.57C48.8178 108.655 48.8416 108.747 48.8486 108.84C48.8578 108.935 48.8295 109.029 48.7698 109.102C48.7133 109.166 48.6373 109.209 48.5537 109.224C48.4445 109.248 48.3303 109.232 48.2325 109.178C48.097 109.097 47.9899 108.976 47.9259 108.832C47.8539 108.678 47.8404 108.503 47.888 108.34Z" fill="#F5F5F5"/>
<path d="M47.9872 109.527C48.0234 109.589 48.0463 109.657 48.0544 109.728C48.0576 109.763 48.0524 109.799 48.0393 109.833C48.0261 109.866 48.0053 109.896 47.9785 109.92C47.9243 109.949 47.863 109.961 47.8019 109.956C47.7407 109.951 47.6824 109.928 47.6339 109.891C47.527 109.83 47.4367 109.744 47.3711 109.64C47.3379 109.588 47.3159 109.53 47.3064 109.469C47.2968 109.408 47.3 109.345 47.3156 109.285C47.4529 108.817 47.8879 109.35 47.9872 109.527Z" fill="#F5F5F5"/>
<path d="M45.5169 41.0349C44.8449 41.1291 44.16 41.0225 43.5488 40.7288C42.9376 40.4351 42.4275 39.9673 42.0831 39.3847C41.7386 38.8021 41.5753 38.1309 41.6138 37.4558C41.6523 36.7807 41.8908 36.1322 42.2992 35.5922C42.7076 35.0522 43.2675 34.645 43.9082 34.4221C44.5489 34.1992 45.2415 34.1706 45.8985 34.3399C46.5555 34.5092 47.1473 34.8689 47.5991 35.3733C48.051 35.8778 48.3425 36.5045 48.4369 37.1741C48.5619 38.0716 48.3247 38.9819 47.7774 39.7056C47.2301 40.4292 46.4173 40.9073 45.5169 41.0349ZM44.822 36.0597C44.5067 36.103 44.2113 36.2386 43.9733 36.4492C43.7353 36.6597 43.5654 36.9359 43.485 37.2428C43.4045 37.5496 43.4173 37.8734 43.5215 38.173C43.6258 38.4726 43.8169 38.7347 44.0707 38.9261C44.3245 39.1175 44.6296 39.2296 44.9473 39.2482C45.2651 39.2668 45.5812 39.1911 45.8557 39.0306C46.1303 38.8702 46.3509 38.6322 46.4896 38.3467C46.6284 38.0613 46.6791 37.7413 46.6353 37.4272C46.5759 37.0067 46.3517 36.6268 46.0119 36.3705C45.6721 36.1142 45.2442 36.0025 44.822 36.0597Z" fill="#2E8B8B"/>
<path d="M44.2307 27.4514L42.9409 27.6309L44.0996 35.8979L45.3894 35.7185L44.2307 27.4514Z" fill="#2E8B8B"/>
<path d="M45.3218 26.3009L42.9022 26.6418L43.0845 27.9265L45.5041 27.5856L45.3218 26.3009Z" fill="#2E8B8B"/>
<path d="M45.5207 28.0484L43.2447 28.3647L43.4246 29.6499L45.7006 29.3336L45.5207 28.0484Z" fill="#2E8B8B"/>
<path d="M45.8524 30.3784L43.8656 30.6545L44.0455 31.9397L46.0323 31.6636L45.8524 30.3784Z" fill="#2E8B8B"/>
<path d="M72.7517 128.028C104.02 128.028 129.368 126.554 129.368 124.735C129.368 122.916 104.02 121.441 72.7517 121.441C41.4836 121.441 16.1358 122.916 16.1358 124.735C16.1358 126.554 41.4836 128.028 72.7517 128.028Z" fill="#2E8B8B"/>
<path d="M42.813 70.0383C45.505 67.2363 45.1999 62.5922 42.1315 59.6654C39.063 56.7386 34.3932 56.6374 31.7012 59.4394C29.0091 62.2414 29.3142 66.8856 32.3827 69.8124C35.4511 72.7392 40.1209 72.8404 42.813 70.0383Z" fill="#2E8B8B"/>
<g opacity="0.8">
<path d="M42.813 70.0383C45.505 67.2363 45.1999 62.5922 42.1315 59.6654C39.063 56.7386 34.3932 56.6374 31.7012 59.4394C29.0091 62.2414 29.3142 66.8856 32.3827 69.8124C35.4511 72.7392 40.1209 72.8404 42.813 70.0383Z" fill="white"/>
</g>
<path d="M33.8251 60.1356C33.7639 60.1356 33.7041 60.1164 33.6544 60.0807C33.6047 60.045 33.5675 59.9946 33.5481 59.9367C33.5287 59.8788 33.5282 59.8162 33.5464 59.7579C33.5647 59.6996 33.6009 59.6486 33.6499 59.6119C34.6332 58.9088 35.8183 58.5413 37.0284 58.5645C37.1058 58.5645 37.1801 58.5952 37.2349 58.6497C37.2896 58.7043 37.3204 58.7783 37.3204 58.8555C37.3204 58.9326 37.2896 59.0066 37.2349 59.0612C37.1801 59.1158 37.1058 59.1464 37.0284 59.1464C35.9446 59.1226 34.8822 59.4493 34.0003 60.0774C33.9498 60.1152 33.8883 60.1356 33.8251 60.1356Z" fill="#2E8B8B"/>
<path d="M35.2063 70.1443C35.1584 70.144 35.1112 70.132 35.0691 70.1093C34.1742 69.6326 33.3977 68.9623 32.7965 68.1478C32.1952 67.3333 31.7845 66.395 31.5943 65.4018C31.4087 64.5427 31.4173 63.6532 31.6193 62.7977C31.8213 61.9423 32.2117 61.1423 32.7623 60.4557C32.8118 60.3963 32.883 60.3589 32.9603 60.3518C33.0375 60.3447 33.1144 60.3685 33.174 60.4179C33.2336 60.4673 33.2711 60.5382 33.2782 60.6152C33.2854 60.6921 33.2615 60.7687 33.2119 60.8281C32.7146 61.4496 32.3625 62.1736 32.1812 62.9477C31.9998 63.7217 31.9939 64.5263 32.1637 65.3029C32.3386 66.2108 32.7145 67.0685 33.2641 67.8134C33.8137 68.5583 34.5231 69.1717 35.3406 69.6089C35.3977 69.6396 35.4429 69.6884 35.4691 69.7475C35.4953 69.8067 35.501 69.8728 35.4852 69.9355C35.4695 69.9982 35.4332 70.0539 35.3822 70.0938C35.3312 70.1337 35.2683 70.1556 35.2034 70.1559L35.2063 70.1443Z" fill="#2E8B8B"/>
<path d="M38.1293 70.9037C37.4757 70.9009 36.8265 70.7969 36.205 70.5953C36.1684 70.5835 36.1344 70.5646 36.1052 70.5397C36.0759 70.5148 36.0518 70.4844 36.0343 70.4502C36.0168 70.416 36.0063 70.3787 36.0032 70.3405C36.0002 70.3022 36.0048 70.2638 36.0166 70.2273C36.0285 70.1908 36.0475 70.157 36.0725 70.1278C36.0975 70.0986 36.128 70.0747 36.1623 70.0572C36.1966 70.0398 36.234 70.0293 36.2724 70.0263C36.3108 70.0232 36.3494 70.0278 36.386 70.0396C38.1818 70.6215 39.9747 70.2957 41.3033 69.1668C41.9773 68.574 42.4867 67.8182 42.7823 66.9723C43.0779 66.1263 43.1498 65.2187 42.9911 64.337C42.9787 64.2599 42.9976 64.181 43.0436 64.1177C43.0895 64.0544 43.1589 64.0119 43.2363 63.9996C43.3138 63.9872 43.393 64.006 43.4565 64.0518C43.52 64.0977 43.5627 64.1668 43.5751 64.2439C43.7521 65.2237 43.6717 66.2324 43.3416 67.172C43.0116 68.1116 42.4432 68.9502 41.6917 69.6061C40.7015 70.4549 39.4354 70.9161 38.1293 70.9037Z" fill="#2E8B8B"/>
<path d="M43.0406 63.5921C42.9787 63.5919 42.9184 63.572 42.8686 63.5354C42.8187 63.4988 42.7818 63.4474 42.7632 63.3885C42.4947 62.5623 42.0549 61.8015 41.4724 61.1554C40.8899 60.5094 40.1777 59.9924 39.3819 59.6382C39.3106 59.6073 39.2546 59.5495 39.2261 59.4775C39.1977 59.4054 39.1991 59.3251 39.23 59.2541C39.261 59.1831 39.319 59.1273 39.3913 59.0989C39.4636 59.0706 39.5442 59.072 39.6155 59.1028C40.487 59.491 41.2669 60.0573 41.9047 60.765C42.5426 61.4727 43.0241 62.3061 43.318 63.211C43.342 63.2843 43.3358 63.3641 43.3007 63.4328C43.2657 63.5016 43.2047 63.5536 43.1312 63.5776C43.1018 63.5864 43.0713 63.5913 43.0406 63.5921Z" fill="#2E8B8B"/>
<path d="M38.4388 59.3093C38.4165 59.3124 38.3939 59.3124 38.3716 59.3093C37.9322 59.2074 37.4825 59.1556 37.0313 59.1551C36.9539 59.1551 36.8796 59.1245 36.8248 59.0699C36.7701 59.0154 36.7393 58.9414 36.7393 58.8642C36.7393 58.787 36.7701 58.713 36.8248 58.6585C36.8796 58.6039 36.9539 58.5732 37.0313 58.5732C37.523 58.5747 38.0128 58.6323 38.4913 58.7449C38.5688 58.7538 38.6395 58.7929 38.688 58.8538C38.7364 58.9146 38.7586 58.9921 38.7497 59.0693C38.7408 59.1465 38.7015 59.217 38.6405 59.2652C38.5794 59.3135 38.5016 59.3357 38.4242 59.3268L38.4388 59.3093Z" fill="#2E8B8B"/>
<path d="M33.2879 66.2601C33.2282 66.2603 33.1699 66.2422 33.1208 66.2084C33.0718 66.1746 33.0343 66.1266 33.0134 66.0709C32.7397 65.3669 32.6434 64.6068 32.733 63.8571C32.8226 63.1074 33.0953 62.391 33.5273 61.7707C33.9356 61.1831 34.4826 60.7044 35.12 60.3767C35.7574 60.049 36.4659 59.8823 37.1832 59.8912C37.2606 59.8912 37.3349 59.9219 37.3896 59.9764C37.4444 60.031 37.4752 60.105 37.4752 60.1822C37.4752 60.2593 37.4444 60.3333 37.3896 60.3879C37.3349 60.4425 37.2606 60.4731 37.1832 60.4731C36.56 60.4658 35.9444 60.6104 35.3902 60.8944C34.836 61.1784 34.3598 61.5931 34.0033 62.1024C33.6245 62.6487 33.3861 63.2793 33.3093 63.9388C33.2324 64.5983 33.3193 65.2665 33.5624 65.8847C33.5888 65.9569 33.5855 66.0366 33.5533 66.1063C33.521 66.1761 33.4623 66.2303 33.3901 66.2572C33.3564 66.2637 33.3219 66.2647 33.2879 66.2601Z" fill="#2E8B8B"/>
<path d="M37.919 69.5829C37.0438 69.5537 36.1885 69.3145 35.426 68.8854C34.6634 68.4564 34.0161 67.8502 33.539 67.1185C33.5036 67.0543 33.4938 66.979 33.5117 66.9079C33.5295 66.8367 33.5737 66.7749 33.6353 66.7348C33.697 66.6947 33.7715 66.6793 33.8441 66.6917C33.9167 66.704 33.9819 66.7432 34.0266 66.8014C34.4507 67.4523 35.0257 67.992 35.7032 68.3749C36.3807 68.7577 37.1407 68.9725 37.919 69.001C37.9965 69.001 38.0707 69.0316 38.1255 69.0862C38.1802 69.1408 38.211 69.2148 38.211 69.2919C38.211 69.3691 38.1802 69.4431 38.1255 69.4977C38.0707 69.5522 37.9965 69.5829 37.919 69.5829Z" fill="#2E8B8B"/>
<path d="M39.0111 69.4577C38.9444 69.4597 38.879 69.4388 38.8259 69.3985C38.7727 69.3583 38.7351 69.3012 38.7191 69.2366C38.7005 69.1618 38.7126 69.0827 38.7525 69.0166C38.7925 68.9506 38.8571 68.9031 38.9322 68.8846C41.3003 68.3027 41.9135 66.234 41.7179 64.6455C41.4639 62.5739 39.8228 60.4762 37.1744 60.4733C37.0969 60.4733 37.0227 60.4426 36.9679 60.388C36.9131 60.3335 36.8824 60.2595 36.8824 60.1823C36.8824 60.1051 36.9131 60.0311 36.9679 59.9766C37.0227 59.922 37.0969 59.8914 37.1744 59.8914C40.1615 59.8914 42.0128 62.248 42.299 64.5756C42.591 66.9759 41.3266 68.8904 39.0724 69.449C39.0523 69.4541 39.0318 69.457 39.0111 69.4577Z" fill="#2E8B8B"/>
<path d="M35.9889 62.0793C35.9335 62.0789 35.8794 62.0628 35.8329 62.0329C35.7864 62.0031 35.7493 61.9606 35.7261 61.9106C35.6932 61.8407 35.6895 61.7607 35.7158 61.6882C35.742 61.6156 35.7962 61.5564 35.8663 61.5236C36.3139 61.3263 36.7988 61.2271 37.2883 61.2326C37.3657 61.2326 37.44 61.2633 37.4948 61.3179C37.5495 61.3724 37.5803 61.4464 37.5803 61.5236C37.5803 61.6008 37.5495 61.6748 37.4948 61.7293C37.44 61.7839 37.3657 61.8145 37.2883 61.8145C36.8853 61.8148 36.487 61.9011 36.1203 62.0677C36.078 62.0815 36.033 62.0855 35.9889 62.0793Z" fill="#2E8B8B"/>
<path d="M37.8665 68.227C37.1269 68.2152 36.4063 67.9924 35.7899 67.5851C35.1736 67.1777 34.6873 66.6028 34.3887 65.9286C33.7843 64.6164 33.9624 63.246 34.8647 62.2568C34.9171 62.2002 34.9898 62.1666 35.0669 62.1633C35.1441 62.1601 35.2194 62.1874 35.2764 62.2393C35.3332 62.2915 35.3669 62.364 35.3702 62.4409C35.3735 62.5177 35.3461 62.5928 35.2939 62.6496C34.9311 63.0585 34.7012 63.5673 34.6345 64.1091C34.5677 64.6508 34.6674 65.2 34.9202 65.6842C35.1782 66.2719 35.6039 66.771 36.1444 67.1197C36.6848 67.4683 37.3161 67.651 37.9599 67.6452C38.4469 67.6416 38.9225 67.4977 39.3293 67.2308C39.736 66.9639 40.0565 66.5854 40.2521 66.141C40.472 65.6167 40.5383 65.041 40.4432 64.4807C40.3481 63.9204 40.0955 63.3985 39.7148 62.9754C39.6899 62.9464 39.671 62.9128 39.6591 62.8764C39.6472 62.8401 39.6426 62.8018 39.6456 62.7637C39.6486 62.7256 39.6591 62.6885 39.6765 62.6544C39.6938 62.6203 39.7178 62.59 39.7469 62.5652C39.7761 62.5404 39.8099 62.5215 39.8463 62.5097C39.8828 62.4978 39.9212 62.4933 39.9595 62.4962C39.9977 62.4992 40.035 62.5097 40.0691 62.527C40.1033 62.5443 40.1337 62.5682 40.1587 62.5972C40.6119 63.1038 40.9115 63.7281 41.0227 64.3977C41.1338 65.0673 41.0519 65.7545 40.7865 66.3795C40.5469 66.9248 40.1543 67.3895 39.656 67.7178C39.1577 68.046 38.5748 68.2239 37.9774 68.23L37.8665 68.227Z" fill="#2E8B8B"/>
<path d="M39.0958 62.3353C39.0407 62.3356 38.9867 62.3193 38.941 62.2887C38.4479 61.9725 37.8746 61.803 37.2883 61.7999C37.2108 61.7999 37.1366 61.7693 37.0818 61.7147C37.027 61.6601 36.9963 61.5861 36.9963 61.509C36.9963 61.4318 37.027 61.3578 37.0818 61.3032C37.1366 61.2487 37.2108 61.218 37.2883 61.218C37.9857 61.2206 38.6678 61.4226 39.2534 61.7999C39.3063 61.834 39.3468 61.8841 39.3687 61.9429C39.3906 62.0017 39.3929 62.066 39.3752 62.1262C39.3575 62.1864 39.3207 62.2393 39.2703 62.277C39.22 62.3147 39.1587 62.3351 39.0958 62.3353Z" fill="#2E8B8B"/>
<path d="M37.7117 66.9149C37.3705 66.9126 37.0339 66.8359 36.7257 66.6901C36.4175 66.5443 36.145 66.3331 35.9275 66.0711C35.6469 65.7511 35.4646 65.3573 35.4025 64.9369C35.3404 64.5164 35.401 64.087 35.5771 63.6999C35.7344 63.3486 35.9917 63.051 36.3172 62.8441C36.6427 62.6372 37.022 62.5301 37.408 62.5361C37.4854 62.5361 37.5597 62.5668 37.6145 62.6213C37.6692 62.6759 37.7 62.7499 37.7 62.8271C37.7 62.9042 37.6692 62.9782 37.6145 63.0328C37.5597 63.0874 37.4854 63.118 37.408 63.118C37.1349 63.113 36.8664 63.1878 36.6355 63.3331C36.4046 63.4783 36.2214 63.6878 36.1086 63.9356C35.9802 64.2213 35.937 64.5378 35.9841 64.8473C36.0312 65.1568 36.1667 65.4463 36.3743 65.6813C36.581 65.9337 36.8554 66.1224 37.1656 66.2254C37.4758 66.3284 37.8089 66.3415 38.1263 66.2632C38.3845 66.2053 38.6206 66.0747 38.8064 65.8869C38.9923 65.6992 39.1201 65.4622 39.1746 65.2041C39.1913 65.1289 39.2373 65.0635 39.3025 65.022C39.3676 64.9806 39.4466 64.9665 39.5221 64.983C39.5597 64.9909 39.5954 65.0062 39.627 65.0279C39.6587 65.0497 39.6858 65.0774 39.7067 65.1096C39.7276 65.1417 39.7419 65.1777 39.7488 65.2154C39.7557 65.2531 39.755 65.2918 39.7469 65.3292C39.6696 65.6933 39.4894 66.0278 39.2276 66.2933C38.9659 66.5588 38.6334 66.7442 38.2694 66.8276C38.0876 66.8787 37.9004 66.908 37.7117 66.9149Z" fill="#2E8B8B"/>
<path d="M39.4111 64.6104C39.3467 64.6133 39.2832 64.595 39.2303 64.5581C39.1775 64.5213 39.1384 64.4681 39.1191 64.4067C39.0026 64.0422 38.7748 63.723 38.4676 63.4935C38.1604 63.264 37.789 63.1358 37.4051 63.1266C37.3277 63.1266 37.2534 63.0959 37.1986 63.0414C37.1439 62.9868 37.1131 62.9128 37.1131 62.8356C37.1131 62.7585 37.1439 62.6845 37.1986 62.6299C37.2534 62.5753 37.3277 62.5447 37.4051 62.5447C37.9128 62.5559 38.4043 62.7245 38.8115 63.0269C39.2186 63.3293 39.5211 63.7506 39.6769 64.2322C39.6887 64.2687 39.6931 64.3071 39.6899 64.3453C39.6868 64.3835 39.6761 64.4207 39.6584 64.4548C39.6408 64.4888 39.6166 64.5191 39.5872 64.5438C39.5578 64.5685 39.5237 64.5872 39.4871 64.5988C39.4624 64.606 39.4369 64.6099 39.4111 64.6104Z" fill="#2E8B8B"/>
<path d="M37.7905 65.7045C37.7131 65.7045 37.6388 65.6738 37.5841 65.6193C37.5293 65.5647 37.4985 65.4907 37.4985 65.4136C37.4985 65.3364 37.5293 65.2624 37.5841 65.2078C37.6388 65.1533 37.7131 65.1226 37.7905 65.1226C37.8304 65.1227 37.8699 65.1146 37.9065 65.0989C37.9431 65.0832 37.9761 65.0602 38.0035 65.0313C38.0308 65.0024 38.0519 64.9682 38.0655 64.9309C38.0791 64.8936 38.0849 64.8539 38.0825 64.8142C38.0841 64.7575 38.0743 64.7012 38.0538 64.6483C38.0333 64.5954 38.0025 64.5472 37.9631 64.5063C37.9237 64.4654 37.8765 64.4327 37.8243 64.4102C37.7722 64.3876 37.716 64.3756 37.6591 64.3749C37.6163 64.376 37.5741 64.3856 37.535 64.4031C37.4959 64.4205 37.4607 64.4456 37.4314 64.4767C37.4014 64.5119 37.3788 64.5526 37.3648 64.5966C37.3508 64.6405 37.3456 64.6868 37.3496 64.7327C37.3519 64.7709 37.3466 64.8092 37.3341 64.8454C37.3215 64.8816 37.302 64.9149 37.2765 64.9436C37.251 64.9722 37.2201 64.9956 37.1855 65.0123C37.151 65.029 37.1135 65.0388 37.0751 65.0411C37.0368 65.0434 36.9984 65.0382 36.9621 65.0257C36.9257 65.0132 36.8923 64.9937 36.8635 64.9683C36.8348 64.9429 36.8113 64.9121 36.7945 64.8777C36.7777 64.8432 36.7679 64.8059 36.7656 64.7676C36.7552 64.6456 36.77 64.5226 36.809 64.4064C36.848 64.2902 36.9105 64.1832 36.9925 64.0919C37.0746 64.0007 37.1745 63.9271 37.2861 63.8757C37.3977 63.8242 37.5187 63.7961 37.6416 63.793C37.7753 63.7933 37.9075 63.8201 38.0307 63.8718C38.1539 63.9235 38.2656 63.999 38.3593 64.094C38.453 64.189 38.5269 64.3015 38.5766 64.4252C38.6263 64.5488 38.6509 64.681 38.649 64.8142C38.6513 64.9303 38.6304 65.0457 38.5874 65.1536C38.5445 65.2615 38.4803 65.3598 38.3987 65.4427C38.3171 65.5256 38.2198 65.5915 38.1123 65.6364C38.0049 65.6814 37.8895 65.7045 37.773 65.7045H37.7905Z" fill="#2E8B8B"/>
<path d="M45.3036 64.7356C45.6599 68.7885 42.6494 72.0733 38.5876 72.0733H38.2723C42.1442 71.8755 44.9562 68.6692 44.6116 64.7444C44.4126 62.8232 43.5382 61.034 42.1429 59.6933C40.7477 58.3526 38.9215 57.5468 36.9875 57.4183C37.0897 57.4183 37.1948 57.4183 37.2999 57.4183C41.3733 57.4008 44.9591 60.6856 45.3036 64.7356Z" fill="#2E8B8B"/>
<g opacity="0.4">
<path d="M45.3036 64.7356C45.6599 68.7885 42.6494 72.0733 38.5876 72.0733H38.2723C42.1442 71.8755 44.9562 68.6692 44.6116 64.7444C44.4126 62.8232 43.5382 61.034 42.1429 59.6933C40.7477 58.3526 38.9215 57.5468 36.9875 57.4183C37.0897 57.4183 37.1948 57.4183 37.2999 57.4183C41.3733 57.4008 44.9591 60.6856 45.3036 64.7356Z" fill="white"/>
</g>
<path d="M51.2664 28.9752C51.2735 29.0621 51.2852 29.1485 51.3014 29.2342C51.4116 29.7948 51.7004 30.305 52.1248 30.6889C52.6058 31.1376 53.2384 31.39 53.8973 31.3959H78.5684C78.8563 31.4017 79.1426 31.3504 79.4105 31.2449C79.6784 31.1395 79.9225 30.982 80.1288 30.7816C80.335 30.5813 80.4992 30.3421 80.6118 30.0779C80.7244 29.8137 80.7832 29.5299 80.7847 29.2429C80.789 29.1566 80.789 29.0702 80.7847 28.984C80.7159 28.3325 80.411 27.7285 79.9272 27.285C79.4434 26.8415 78.8139 26.589 78.1567 26.5749H53.4797C53.1704 26.5687 52.8632 26.6281 52.5787 26.7492C52.2942 26.8703 52.0388 27.0504 51.8294 27.2774C51.6201 27.5044 51.4616 27.7732 51.3645 28.0659C51.2675 28.3587 51.234 28.6686 51.2664 28.9752Z" fill="#2E8B8B"/>
<path opacity="0.8" d="M51.2664 28.9752C51.2735 29.0621 51.2852 29.1485 51.3014 29.2342C51.4116 29.7948 51.7004 30.305 52.1248 30.6889C52.6058 31.1376 53.2384 31.39 53.8973 31.3959H78.5684C78.8563 31.4017 79.1426 31.3504 79.4105 31.2449C79.6784 31.1395 79.9225 30.982 80.1288 30.7816C80.335 30.5813 80.4992 30.3421 80.6118 30.0779C80.7244 29.8137 80.7832 29.5299 80.7847 29.2429C80.789 29.1566 80.789 29.0702 80.7847 28.984C80.7159 28.3325 80.411 27.7285 79.9272 27.285C79.4434 26.8415 78.8139 26.589 78.1567 26.5749H53.4797C53.1704 26.5687 52.8632 26.6281 52.5787 26.7492C52.2942 26.8703 52.0388 27.0504 51.8294 27.2774C51.6201 27.5044 51.4616 27.7732 51.3645 28.0659C51.2675 28.3587 51.234 28.6686 51.2664 28.9752Z" fill="white"/>
<path d="M80.7846 29.2257C80.7847 29.3036 80.7789 29.3814 80.7671 29.4584C80.6801 28.8217 80.3673 28.2371 79.8853 27.8102C79.4033 27.3833 78.7839 27.1423 78.1391 27.1308L51.9088 27.189C52.1167 26.9875 52.3625 26.8288 52.632 26.7219C52.9016 26.6151 53.1896 26.5622 53.4797 26.5664H78.1508C78.808 26.5805 79.4376 26.833 79.9214 27.2764C80.4051 27.7199 80.71 28.324 80.7788 28.9754C80.7848 29.0587 80.7867 29.1422 80.7846 29.2257Z" fill="#2E8B8B"/>
<path opacity="0.5" d="M80.7846 29.2257C80.7847 29.3036 80.7789 29.3814 80.7671 29.4584C80.6801 28.8217 80.3673 28.2371 79.8853 27.8102C79.4033 27.3833 78.7839 27.1423 78.1391 27.1308L51.9088 27.189C52.1167 26.9875 52.3625 26.8288 52.632 26.7219C52.9016 26.6151 53.1896 26.5622 53.4797 26.5664H78.1508C78.808 26.5805 79.4376 26.833 79.9214 27.2764C80.4051 27.7199 80.71 28.324 80.7788 28.9754C80.7848 29.0587 80.7867 29.1422 80.7846 29.2257Z" fill="white"/>
<path d="M76.5477 27.7301L76.6528 28.8939L77.7508 28.4866L78.0106 29.0685L76.8894 29.4409L77.6953 30.4272L77.1901 30.7967L76.4046 29.7726L75.8206 30.7967L75.2688 30.4272L75.8907 29.4409L74.7227 29.0685L74.8804 28.4866L76.063 28.8794L75.9579 27.7156L76.5477 27.7301Z" fill="#2E8B8B"/>
<path d="M69.7879 27.7302L69.8931 28.894L70.991 28.4867L71.2538 29.0685L70.1237 29.4497L70.9297 30.436L70.4274 30.8055L69.6419 29.7814L69.0579 30.8055L68.5031 30.436L69.128 29.4497L67.96 29.0773L68.1177 28.4954L69.3003 28.8882L69.1981 27.7244L69.7879 27.7302Z" fill="#2E8B8B"/>
<path d="M63.0427 27.7302L63.1449 28.894L64.2428 28.4867L64.5056 29.0685L63.3814 29.441L64.1873 30.4273L63.6997 30.8055L62.9142 29.7814L62.3302 30.8055L61.7783 30.436L62.4003 29.4497L61.2323 29.0773L61.3929 28.4954L62.5609 28.8882L62.4587 27.7244L63.0427 27.7302Z" fill="#2E8B8B"/>
<path d="M56.2946 27.7301L56.3968 28.8939L57.4976 28.4866L57.7575 29.0685L56.6333 29.4409L57.4422 30.4272L56.937 30.7967L56.1515 29.7726L55.5675 30.7967L55.0156 30.4272L55.6376 29.4409L54.4696 29.0685L54.6273 28.4866L55.7953 28.8794L55.6931 27.7156L56.2946 27.7301Z" fill="#2E8B8B"/>
<path d="M72.6495 25.4258H71.499V25.7167H72.6495V25.4258Z" fill="#2E8B8B"/>
<path d="M77.5931 25.4258H73.8409V25.7167H77.5931V25.4258Z" fill="#2E8B8B"/>
<path opacity="0.8" d="M115.906 36.2779L114.712 49.8826C114.666 50.3169 114.463 50.7195 114.14 51.0151C113.818 51.3107 113.398 51.4791 112.96 51.4887H103.479C103.274 51.4898 103.07 51.4478 102.883 51.3654C102.695 51.283 102.527 51.1621 102.389 51.0106C102.251 50.859 102.147 50.6803 102.083 50.4859C102.019 50.2916 101.997 50.086 102.019 49.8826L103.213 36.275C103.257 35.8401 103.46 35.4364 103.783 35.1404C104.106 34.8444 104.526 34.6767 104.965 34.669H114.446C114.652 34.6678 114.855 34.7099 115.043 34.7924C115.231 34.875 115.4 34.9962 115.537 35.148C115.675 35.2999 115.779 35.479 115.843 35.6737C115.906 35.8684 115.928 36.0743 115.906 36.2779Z" fill="#2E8B8B"/>
<path opacity="0.8" d="M115.906 36.2779L114.712 49.8826C114.666 50.3169 114.463 50.7195 114.14 51.0151C113.818 51.3107 113.398 51.4791 112.96 51.4887H103.479C103.274 51.4898 103.07 51.4478 102.883 51.3654C102.695 51.283 102.527 51.1621 102.389 51.0106C102.251 50.859 102.147 50.6803 102.083 50.4859C102.019 50.2916 101.997 50.086 102.019 49.8826L103.213 36.275C103.257 35.8401 103.46 35.4364 103.783 35.1404C104.106 34.8444 104.526 34.6767 104.965 34.669H114.446C114.652 34.6678 114.855 34.7099 115.043 34.7924C115.231 34.875 115.4 34.9962 115.537 35.148C115.675 35.2999 115.779 35.479 115.843 35.6737C115.906 35.8684 115.928 36.0743 115.906 36.2779Z" fill="white"/>
<path d="M104.077 38.4717H104.051C103.974 38.465 103.903 38.4282 103.853 38.3693C103.803 38.3104 103.779 38.2342 103.785 38.1575L103.896 36.9122C103.903 36.8397 103.937 36.7722 103.991 36.7232C104.045 36.6742 104.115 36.6472 104.188 36.6475H105.508C105.586 36.6475 105.66 36.6781 105.715 36.7327C105.769 36.7872 105.8 36.8612 105.8 36.9384C105.8 37.0156 105.769 37.0896 105.715 37.1441C105.66 37.1987 105.586 37.2294 105.508 37.2294H104.457L104.369 38.2069C104.363 38.2795 104.329 38.3469 104.275 38.3959C104.221 38.445 104.15 38.472 104.077 38.4717Z" fill="#2E8B8B"/>
<path d="M114.694 38.4717H114.668C114.591 38.465 114.52 38.4282 114.47 38.3693C114.42 38.3104 114.396 38.2342 114.402 38.1575L114.484 37.2294H113.486C113.408 37.2294 113.334 37.1987 113.279 37.1441C113.224 37.0896 113.194 37.0156 113.194 36.9384C113.194 36.8612 113.224 36.7872 113.279 36.7327C113.334 36.6781 113.408 36.6475 113.486 36.6475H114.8C114.84 36.6473 114.881 36.6556 114.918 36.6718C114.955 36.6881 114.988 36.7119 115.016 36.7417C115.043 36.7716 115.064 36.8068 115.077 36.8452C115.09 36.8836 115.095 36.9242 115.092 36.9646L114.981 38.2069C114.974 38.2785 114.941 38.3451 114.889 38.394C114.836 38.4429 114.767 38.4706 114.694 38.4717Z" fill="#2E8B8B"/>
<path d="M104.58 47.8604H103.26C103.22 47.8603 103.18 47.852 103.143 47.836C103.107 47.82 103.074 47.7966 103.047 47.7673C103.019 47.7377 102.998 47.7028 102.985 47.6647C102.972 47.6267 102.967 47.5863 102.971 47.5462L103.079 46.301C103.085 46.2238 103.122 46.1524 103.182 46.1025C103.241 46.0525 103.318 46.0282 103.396 46.0347C103.473 46.0413 103.545 46.0782 103.595 46.1374C103.645 46.1966 103.669 46.2733 103.663 46.3504L103.581 47.2785H104.58C104.657 47.2785 104.731 47.3092 104.786 47.3638C104.841 47.4183 104.872 47.4923 104.872 47.5695C104.872 47.6467 104.841 47.7207 104.786 47.7752C104.731 47.8298 104.657 47.8604 104.58 47.8604Z" fill="#2E8B8B"/>
<path d="M113.868 47.8607H112.551C112.474 47.8607 112.399 47.83 112.345 47.7755C112.29 47.7209 112.259 47.6469 112.259 47.5697C112.259 47.4926 112.29 47.4186 112.345 47.364C112.399 47.3094 112.474 47.2788 112.551 47.2788H113.602L113.687 46.3012C113.694 46.2244 113.731 46.1535 113.79 46.1039C113.849 46.0542 113.925 46.03 114.002 46.0364C114.079 46.0431 114.151 46.0799 114.2 46.1388C114.25 46.1977 114.275 46.2739 114.268 46.3506L114.16 47.5959C114.153 47.6684 114.12 47.7359 114.066 47.7849C114.012 47.8339 113.941 47.861 113.868 47.8607Z" fill="#2E8B8B"/>
<path d="M112.863 43.1696C113.522 40.6225 112.391 38.1296 110.336 37.6016C108.281 37.0735 106.08 38.7103 105.421 41.2574C104.762 43.8045 105.893 46.2974 107.949 46.8255C110.004 47.3535 112.204 45.7167 112.863 43.1696Z" fill="#2E8B8B"/>
<path d="M110.288 49.455H106.507L106.837 45.6873H110.618L110.288 49.455Z" fill="#2E8B8B"/>
<path d="M114.712 49.8826C114.666 50.3168 114.463 50.7194 114.14 51.015C113.818 51.3106 113.398 51.479 112.96 51.4886H103.479C103.274 51.4897 103.07 51.4477 102.883 51.3653C102.695 51.2829 102.527 51.162 102.389 51.0105C102.251 50.8589 102.147 50.6802 102.083 50.4858C102.019 50.2915 101.997 50.0859 102.019 49.8826C102.019 49.8826 106.375 48.5093 106.913 48.5093H110.279L114.712 49.8826Z" fill="#2E8B8B"/>
<path d="M116.457 40.2538L116.015 45.5979L116.306 45.6218L116.748 40.2777L116.457 40.2538Z" fill="#2E8B8B"/>
<path d="M116.764 37.8085L116.677 38.8582L116.968 38.882L117.055 37.8324L116.764 37.8085Z" fill="#2E8B8B"/>
<path d="M106.589 70.2693H105.438V70.5602H106.589V70.2693Z" fill="#2E8B8B"/>
<path d="M111.532 70.2693H107.78V70.5602H111.532V70.2693Z" fill="#2E8B8B"/>
<path d="M118.4 65.3029L117.673 73.5949C117.635 73.9614 117.464 74.3014 117.192 74.5506C116.92 74.7999 116.565 74.9412 116.195 74.9478C116.021 74.9509 115.849 74.917 115.689 74.8485C115.529 74.78 115.386 74.6784 115.268 74.5504C115.151 74.4225 115.062 74.2711 115.008 74.1063C114.954 73.9416 114.936 73.7673 114.954 73.5949L115.676 65.3029C115.743 64.6844 115.677 64.0588 115.483 63.4676C115.289 62.8763 114.971 62.3329 114.55 61.8734C114.13 61.4139 113.616 61.0489 113.042 60.8024C112.469 60.556 111.85 60.4338 111.226 60.4441H108.259C106.932 60.4691 105.66 60.977 104.683 61.8721C103.706 62.7672 103.092 63.9875 102.956 65.3029L102.664 68.6895H99.9485L100.241 65.3029C100.606 61.1307 104.311 57.7382 108.495 57.7382H111.474C112.446 57.7223 113.41 57.9124 114.302 58.2961C115.194 58.6798 115.995 59.2482 116.65 59.9636C117.305 60.679 117.8 61.5251 118.101 62.4456C118.403 63.3662 118.505 64.3401 118.4 65.3029Z" fill="#2E8B8B"/>
<g opacity="0.5">
<path d="M118.4 65.3029L117.673 73.5949C117.635 73.9614 117.464 74.3014 117.192 74.5506C116.92 74.7999 116.565 74.9412 116.195 74.9478C116.021 74.9509 115.849 74.917 115.689 74.8485C115.529 74.78 115.386 74.6784 115.268 74.5504C115.151 74.4225 115.062 74.2711 115.008 74.1063C114.954 73.9416 114.936 73.7673 114.954 73.5949L115.676 65.3029C115.743 64.6844 115.677 64.0588 115.483 63.4676C115.289 62.8763 114.971 62.3329 114.55 61.8734C114.13 61.4139 113.616 61.0489 113.042 60.8024C112.469 60.556 111.85 60.4338 111.226 60.4441H108.259C106.932 60.4691 105.66 60.977 104.683 61.8721C103.706 62.7672 103.092 63.9875 102.956 65.3029L102.664 68.6895H99.9485L100.241 65.3029C100.606 61.1307 104.311 57.7382 108.495 57.7382H111.474C112.446 57.7223 113.41 57.9124 114.302 58.2961C115.194 58.6798 115.995 59.2482 116.65 59.9636C117.305 60.679 117.8 61.5251 118.101 62.4456C118.403 63.3662 118.505 64.3401 118.4 65.3029Z" fill="white"/>
</g>
<path d="M118.596 73.2923L117.179 89.4515C117.128 89.9526 116.894 90.4174 116.521 90.7579C116.149 91.0984 115.664 91.291 115.159 91.2991H98.9411C98.7036 91.3034 98.4679 91.2572 98.2496 91.1636C98.0314 91.0701 97.8357 90.9313 97.6754 90.7565C97.5152 90.5818 97.3942 90.375 97.3204 90.15C97.2466 89.9249 97.2218 89.6869 97.2475 89.4515L98.6666 73.2923C98.6993 72.9701 98.8078 72.6602 98.9834 72.3876C99.1589 72.1151 99.3966 71.8878 99.677 71.7241C99.9814 71.5384 100.33 71.4379 100.687 71.4331H116.902C117.233 71.4313 117.558 71.5231 117.839 71.6979C118.102 71.8674 118.311 72.1063 118.445 72.388C118.579 72.6696 118.631 72.9828 118.596 73.2923Z" fill="#2E8B8B"/>
<path d="M101.733 80.3507L105.946 86.8126L119.843 72.9664C119.864 72.9407 119.876 72.9082 119.875 72.8748C119.874 72.8414 119.862 72.8093 119.84 72.7843C119.817 72.7593 119.787 72.7431 119.754 72.7386C119.72 72.7341 119.687 72.7416 119.659 72.7598L106.416 83.103L103.914 79.085L101.733 80.3507Z" fill="white"/>
<path d="M35.3757 49.1001H24.8111C24.3223 49.0913 23.8537 48.9044 23.4938 48.5747C23.1338 48.245 22.9075 47.7954 22.8577 47.3108L21.9437 36.7901C21.9183 36.5623 21.942 36.3317 22.0132 36.1137C22.0843 35.8958 22.2013 35.6954 22.3564 35.5261C22.5114 35.3567 22.7009 35.2223 22.9122 35.1317C23.1235 35.0411 23.3518 34.9965 23.5818 35.0008H34.1347C34.6217 35.0118 35.0878 35.1998 35.4455 35.5293C35.8031 35.8588 36.0275 36.3072 36.0765 36.7901L36.9992 47.305C37.0253 47.532 37.0027 47.762 36.9328 47.9796C36.8629 48.1973 36.7473 48.3976 36.5938 48.5674C36.4403 48.7371 36.2523 48.8724 36.0422 48.9643C35.8322 49.0561 35.605 49.1024 35.3757 49.1001Z" fill="#2E8B8B"/>
<path opacity="0.8" d="M35.3757 49.1001H24.8111C24.3223 49.0913 23.8537 48.9044 23.4938 48.5747C23.1338 48.245 22.9075 47.7954 22.8577 47.3108L21.9437 36.7901C21.9183 36.5623 21.942 36.3317 22.0132 36.1137C22.0843 35.8958 22.2013 35.6954 22.3564 35.5261C22.5114 35.3567 22.7009 35.2223 22.9122 35.1317C23.1235 35.0411 23.3518 34.9965 23.5818 35.0008H34.1347C34.6217 35.0118 35.0878 35.1998 35.4455 35.5293C35.8031 35.8588 36.0275 36.3072 36.0765 36.7901L36.9992 47.305C37.0253 47.532 37.0027 47.762 36.9328 47.9796C36.8629 48.1973 36.7473 48.3976 36.5938 48.5674C36.4403 48.7371 36.2523 48.8724 36.0422 48.9643C35.8322 49.0561 35.605 49.1024 35.3757 49.1001Z" fill="#1E4243"/>
<path d="M22.8635 43.1123C22.8635 43.1123 26.6157 37.9073 29.378 38.0411C32.1403 38.1749 36.7305 42.9872 36.7305 42.9872C36.7305 42.9872 29.9649 46.5281 22.8635 43.1123Z" fill="white"/>
<path d="M22.9832 43.1909L22.7467 43.0222C22.8985 42.8098 26.4755 37.887 29.2729 37.887H29.3868C32.1783 38.0208 36.6459 42.6818 36.8357 42.8796L36.6255 43.0804C36.5787 43.0338 32.0469 38.3059 29.3722 38.1779H29.2729C26.6157 38.1837 23.0183 43.1473 22.9832 43.1909Z" fill="#263238"/>
<path d="M22.4751 43.2956C21.9087 43.2956 21.1728 43.0861 20.9129 42.2889C20.901 42.2522 20.9041 42.2124 20.9216 42.178C20.9391 42.1436 20.9696 42.1176 21.0064 42.1056C21.0246 42.0993 21.0439 42.0967 21.0631 42.098C21.0823 42.0993 21.1011 42.1044 21.1183 42.1131C21.1354 42.1218 21.1507 42.1339 21.1631 42.1486C21.1754 42.1633 21.1847 42.1803 21.1903 42.1987C21.5261 43.2287 22.7817 42.9814 22.8343 42.9697C22.8722 42.9628 22.9113 42.9707 22.9434 42.9919C22.9755 43.013 22.9981 43.0457 23.0066 43.0832C23.0104 43.1019 23.0105 43.1212 23.0069 43.14C23.0032 43.1587 22.9959 43.1766 22.9853 43.1925C22.9747 43.2085 22.9611 43.2222 22.9452 43.2329C22.9293 43.2436 22.9115 43.251 22.8927 43.2548C22.7552 43.282 22.6153 43.2956 22.4751 43.2956Z" fill="#263238"/>
<path d="M24.7031 41.0612C24.6705 41.0618 24.6386 41.0516 24.6126 41.0321C24.5688 40.9972 23.5322 40.1999 23.2694 39.3882C23.2574 39.3516 23.2605 39.3117 23.278 39.2773C23.2956 39.2429 23.326 39.2169 23.3628 39.2049C23.3996 39.1938 23.4393 39.1972 23.4736 39.2146C23.5079 39.2319 23.5341 39.2618 23.5468 39.298C23.7833 40.0225 24.779 40.7935 24.7907 40.7993C24.8212 40.8229 24.8411 40.8576 24.8461 40.8957C24.851 40.9339 24.8405 40.9725 24.817 41.003C24.8037 41.0206 24.7865 41.0351 24.7668 41.0452C24.747 41.0552 24.7253 41.0607 24.7031 41.0612Z" fill="#263238"/>
<path d="M26.8464 39.0798C26.8082 39.0776 26.7722 39.0611 26.7456 39.0336C26.7191 39.0061 26.704 38.9696 26.7033 38.9315C26.5328 38.2977 26.3211 37.6757 26.0697 37.0694C25.9967 36.8774 25.9441 36.7377 25.9324 36.7028C25.9266 36.6843 25.9246 36.6648 25.9265 36.6454C25.9283 36.6261 25.934 36.6074 25.9433 36.5903C25.9526 36.5732 25.9651 36.5581 25.9803 36.546C25.9955 36.5338 26.013 36.5248 26.0317 36.5195C26.0501 36.5141 26.0694 36.5125 26.0885 36.5145C26.1075 36.5166 26.126 36.5224 26.1428 36.5316C26.1596 36.5408 26.1744 36.5532 26.1864 36.5681C26.1984 36.583 26.2074 36.6001 26.2128 36.6184C26.2128 36.6533 26.2741 36.7813 26.3412 36.9646C26.75 38.0324 27.0012 38.7336 26.9953 38.9373C26.9953 38.9565 26.9914 38.9755 26.9839 38.9932C26.9763 39.0109 26.9653 39.0269 26.9514 39.0402C26.9375 39.0535 26.921 39.0639 26.9029 39.0707C26.8849 39.0775 26.8657 39.0806 26.8464 39.0798Z" fill="#263238"/>
<path d="M29.378 38.1867C29.3416 38.1856 29.3069 38.1714 29.2801 38.1469C29.2533 38.1223 29.2362 38.0889 29.232 38.0529L29.0276 35.7253C29.0241 35.6867 29.0362 35.6484 29.0611 35.6186C29.086 35.5889 29.1218 35.5702 29.1605 35.5668C29.1992 35.5633 29.2377 35.5753 29.2676 35.6001C29.2974 35.6249 29.3161 35.6606 29.3196 35.6991L29.524 38.0442C29.5265 38.0822 29.5143 38.1196 29.4898 38.1489C29.4654 38.1781 29.4306 38.1969 29.3926 38.2013L29.378 38.1867Z" fill="#263238"/>
<path d="M37.1686 43.1356C37.0257 43.1363 36.8831 43.1247 36.7423 43.1007C36.7235 43.0969 36.7056 43.0894 36.6897 43.0788C36.6738 43.0681 36.6602 43.0544 36.6496 43.0384C36.6391 43.0225 36.6317 43.0046 36.6281 42.9858C36.6244 42.9671 36.6245 42.9478 36.6284 42.9291C36.6315 42.9103 36.6384 42.8923 36.6488 42.8763C36.6591 42.8603 36.6726 42.8465 36.6885 42.8359C36.7043 42.8253 36.7222 42.818 36.741 42.8145C36.7598 42.811 36.7791 42.8114 36.7977 42.8156C36.7977 42.8156 37.5131 42.9523 37.9511 42.6439C38.0448 42.576 38.123 42.489 38.1804 42.3887C38.2378 42.2883 38.2731 42.177 38.284 42.062C38.2869 42.0429 38.2935 42.0246 38.3035 42.008C38.3135 41.9915 38.3267 41.9771 38.3423 41.9656C38.3579 41.9541 38.3756 41.9458 38.3944 41.9411C38.4132 41.9365 38.4327 41.9355 38.4519 41.9384C38.4711 41.9413 38.4895 41.9479 38.5061 41.9578C38.5227 41.9678 38.5372 41.9809 38.5487 41.9964C38.5603 42.012 38.5686 42.0296 38.5733 42.0484C38.578 42.0671 38.5789 42.0866 38.576 42.1057C38.5584 42.2588 38.5087 42.4065 38.4303 42.5393C38.3518 42.6721 38.2463 42.787 38.1205 42.8767C37.8368 43.0569 37.5049 43.1472 37.1686 43.1356Z" fill="#263238"/>
<path d="M34.5464 40.9071C34.5259 40.9072 34.5056 40.9029 34.4869 40.8943C34.4682 40.8858 34.4517 40.8732 34.4384 40.8576C34.4247 40.8441 34.4138 40.828 34.4064 40.8103C34.399 40.7925 34.3952 40.7735 34.3952 40.7543C34.3952 40.7351 34.399 40.7161 34.4064 40.6984C34.4138 40.6806 34.4247 40.6646 34.4384 40.651C34.4384 40.651 35.3144 39.8829 35.4078 39.1672C35.4143 39.1293 35.4353 39.0954 35.4663 39.0726C35.4973 39.0498 35.536 39.0399 35.5743 39.045C35.5933 39.0478 35.6115 39.0544 35.628 39.0643C35.6444 39.0741 35.6587 39.0872 35.6701 39.1026C35.6815 39.118 35.6897 39.1355 35.6943 39.154C35.6989 39.1726 35.6998 39.1919 35.6969 39.2108C35.5743 40.0313 34.6691 40.8343 34.6311 40.8692C34.6083 40.8915 34.5783 40.9049 34.5464 40.9071Z" fill="#263238"/>
<path d="M32.079 39.2165H32.0527C32.0147 39.2094 31.9809 39.1878 31.9585 39.1563C31.9362 39.1248 31.927 39.0858 31.933 39.0477C31.933 39.0303 32.2542 37.1595 32.3126 36.7754C32.3155 36.7563 32.3221 36.738 32.3321 36.7214C32.3421 36.7049 32.3553 36.6904 32.3708 36.679C32.3864 36.6675 32.4041 36.6592 32.423 36.6545C32.4418 36.6498 32.4613 36.6489 32.4805 36.6518C32.4997 36.6546 32.5181 36.6612 32.5347 36.6712C32.5513 36.6812 32.5658 36.6943 32.5773 36.7098C32.5888 36.7253 32.5972 36.743 32.6019 36.7617C32.6065 36.7805 32.6075 36.8 32.6046 36.8191C32.5462 37.206 32.2279 39.0797 32.225 39.0972C32.2188 39.1311 32.2007 39.1617 32.174 39.1835C32.1472 39.2054 32.1136 39.217 32.079 39.2165Z" fill="#263238"/>
<path d="M32.1648 43.7219C33.3737 42.4636 33.2355 40.3771 31.8562 39.0615C30.4769 37.7459 28.3788 37.6994 27.17 38.9576C25.9611 40.2158 26.0993 42.3024 27.4786 43.618C28.8578 44.9336 30.9559 44.9801 32.1648 43.7219Z" fill="#2E8B8B"/>
<path opacity="0.3" d="M31.0366 41.3377C31.041 41.264 31.041 41.1902 31.0366 41.1166C30.9974 40.7372 30.82 40.3854 30.5381 40.1275C30.2562 39.8696 29.8892 39.7236 29.5065 39.7171C29.3267 39.714 29.1482 39.749 28.983 39.82C28.8178 39.8909 28.6697 39.996 28.5484 40.1284C28.4271 40.2608 28.3356 40.4174 28.2797 40.5877C28.2239 40.7581 28.2051 40.9384 28.2246 41.1166C28.2295 41.1916 28.2432 41.2658 28.2655 41.3377H26.3617C26.3151 40.9181 26.3589 40.4935 26.4899 40.0922C26.621 39.6908 26.8364 39.3219 27.1219 39.0099C27.4073 38.698 27.7561 38.4503 28.1451 38.2833C28.5342 38.1162 28.9545 38.0337 29.378 38.0412C30.2786 38.0578 31.142 38.4022 31.8053 39.0095C32.4686 39.6168 32.8858 40.4449 32.9784 41.3377H31.0366Z" fill="black"/>
<path opacity="0.7" d="M31.0337 41.1164C31.038 41.1901 31.038 41.2639 31.0337 41.3376C31.0127 41.6614 30.867 41.9647 30.6271 42.1843C30.3872 42.4038 30.0716 42.5226 29.7459 42.5159C29.4027 42.5095 29.0711 42.3906 28.8024 42.1777C28.5338 41.9647 28.343 41.6694 28.2597 41.3376C28.2373 41.2657 28.2236 41.1915 28.2188 41.1164C28.1993 40.9383 28.2181 40.758 28.2739 40.5876C28.3297 40.4173 28.4213 40.2607 28.5425 40.1283C28.6638 39.9959 28.812 39.8908 28.9772 39.8198C29.1424 39.7489 29.3208 39.7139 29.5007 39.717C29.8838 39.7228 30.2515 39.8685 30.5341 40.1264C30.8166 40.3844 30.9944 40.7366 31.0337 41.1164Z" fill="black"/>
<path opacity="0.7" d="M31.7958 39.7433C31.8116 39.8885 31.7961 40.0354 31.7505 40.1743C31.705 40.3131 31.6302 40.4407 31.5314 40.5485C31.4325 40.6564 31.3117 40.7421 31.1771 40.7999C31.0425 40.8577 30.897 40.8863 30.7504 40.8838C30.4391 40.8776 30.1409 40.7583 29.9118 40.5482C29.6826 40.3381 29.5385 40.0519 29.5065 39.7433C29.4903 39.5979 29.5054 39.4508 29.5508 39.3118C29.5962 39.1727 29.6709 39.045 29.7698 38.937C29.8688 38.829 29.9898 38.7433 30.1246 38.6857C30.2595 38.6281 30.4052 38.5998 30.5519 38.6028C30.8634 38.6083 31.162 38.7274 31.3912 38.9376C31.6205 39.1478 31.7644 39.4344 31.7958 39.7433Z" fill="white"/>
<path d="M27.2756 33.7002H26.1251V33.9911H27.2756V33.7002Z" fill="#2E8B8B"/>
<path d="M32.2192 33.7002H28.467V33.9911H32.2192V33.7002Z" fill="#2E8B8B"/>
<path d="M80.3436 55.018L80.4429 55.1373L80.5772 55.2915C80.6736 55.3933 80.767 55.501 80.8692 55.5999C81.0707 55.8094 81.2897 56.0131 81.5116 56.2196C81.955 56.6271 82.42 57.0107 82.9044 57.3689C83.3979 57.7355 83.9177 58.0701 84.4374 58.4017C84.7294 58.5589 84.9689 58.7247 85.2434 58.876L85.877 59.2251C85.9691 59.2656 86.0727 59.2718 86.169 59.2426C86.3734 59.1815 87.5472 58.0235 87.921 57.5929C88.7503 56.6473 90.0059 55.4021 90.6833 54.343L91.4396 55.3817C90.9616 56.6792 90.3272 57.9141 89.5504 59.0593C89.1326 59.6784 88.6316 60.2374 88.0612 60.7206C87.7188 61.008 87.3323 61.2389 86.9165 61.4043C86.3895 61.6139 85.8107 61.6576 85.258 61.5294C85.1151 61.4947 84.9754 61.448 84.8404 61.3898L84.5776 61.2763L84.1046 61.061C83.7863 60.9214 83.4797 60.7526 83.1702 60.5984C82.5513 60.2694 81.9509 59.9071 81.3714 59.5132C80.7874 59.1129 80.2268 58.6797 79.6924 58.2155C79.415 57.974 79.1668 57.7297 78.9128 57.4649C78.7872 57.334 78.6588 57.1972 78.5361 57.0547L78.3551 56.8335C78.2879 56.7521 78.2383 56.691 78.1478 56.5659L80.3436 55.018Z" fill="#FFB573"/>
<path d="M90.5637 54.5031L91.9185 51.6169L93.2121 53.9271C93.2121 53.9271 92.3624 55.3818 91.4397 55.3818L90.5637 54.5031Z" fill="#FFB573"/>
<path d="M93.4544 50.4182L94.821 52.1697L93.2237 53.9241L91.9302 51.6169L93.4544 50.4182Z" fill="#FFB573"/>
<path d="M92.9785 54.7212H95.1305C95.1912 54.7207 95.2496 54.6979 95.2944 54.657C95.3391 54.6162 95.3671 54.5603 95.3729 54.5001L95.8197 49.359C95.8229 49.3254 95.8191 49.2915 95.8084 49.2594C95.7977 49.2274 95.7803 49.1979 95.7575 49.173C95.7347 49.148 95.7068 49.1281 95.6758 49.1146C95.6447 49.101 95.6112 49.0941 95.5773 49.0942H93.4282C93.367 49.0948 93.3083 49.118 93.2634 49.1595C93.2186 49.2009 93.1909 49.2575 93.1858 49.3183L92.7332 54.4564C92.7304 54.4902 92.7346 54.5242 92.7457 54.5562C92.7567 54.5883 92.7743 54.6177 92.7974 54.6426C92.8205 54.6674 92.8485 54.6873 92.8797 54.7008C92.9108 54.7144 92.9445 54.7213 92.9785 54.7212Z" fill="#2E8B8B"/>
<path opacity="0.3" d="M93.0018 54.2064H95.1568L95.5597 49.6123H93.4048L93.0018 54.2064Z" fill="white"/>
<path d="M92.8617 53.5546L93.2442 53.3596C93.4389 53.261 93.6188 53.1356 93.7785 52.9872L93.8486 52.7341C93.8078 52.6667 93.7463 52.6142 93.6732 52.5843C93.6001 52.5544 93.5193 52.5488 93.4427 52.5682L93.1244 52.6555L91.5447 52.7748L91.5068 53.4382L91.9681 54.1481H92.1258C92.2997 54.1542 92.4699 54.0975 92.6052 53.9885C92.7404 53.8794 92.8315 53.7253 92.8617 53.5546Z" fill="#FFB573"/>
<path d="M77.5872 52.2104C78.6822 52.0125 86.4056 58.684 86.4056 58.684L84.1163 62.0299C84.1163 62.0299 75.6717 56.1702 75.9403 54.7562C76.2002 53.2694 75.9929 52.5013 77.5872 52.2104Z" fill="#1E4243"/>
<path opacity="0.2" d="M78.5625 54.343L78.4778 57.8344C79.3538 58.5123 82.5191 60.9301 82.5191 60.9301L78.5625 54.343Z" fill="black"/>
<path d="M72.4392 121.546L75.0292 121.799L75.8527 115.815L73.2597 115.562L72.4392 121.546Z" fill="#FFB573"/>
<path d="M46.9388 86.4287L46.276 88.9425L51.8795 91.3486L53.0416 88.797L46.9388 86.4287Z" fill="#FFB573"/>
<path d="M76.8834 122.329C77.1063 122.356 77.3319 122.307 77.5229 122.189C77.5642 122.153 77.5963 122.108 77.6166 122.058C77.6369 122.007 77.6448 121.953 77.6397 121.898C77.6397 121.864 77.6304 121.831 77.6129 121.802C77.5955 121.773 77.5704 121.749 77.5404 121.732C77.228 121.546 76.171 122.047 76.0512 122.102C76.0398 122.107 76.0303 122.116 76.024 122.127C76.0177 122.138 76.015 122.151 76.0162 122.163C76.0178 122.176 76.0235 122.188 76.0325 122.197C76.0414 122.207 76.0531 122.213 76.0658 122.215C76.3343 122.278 76.608 122.316 76.8834 122.329ZM77.3536 121.808C77.3943 121.805 77.4349 121.814 77.4704 121.834C77.4827 121.841 77.493 121.85 77.5002 121.862C77.5074 121.874 77.5112 121.887 77.5112 121.901C77.5144 121.938 77.5089 121.974 77.4952 122.008C77.4815 122.042 77.46 122.072 77.4324 122.096C77.2718 122.233 76.8484 122.245 76.2644 122.134C76.6088 121.963 76.9802 121.851 77.3623 121.805L77.3536 121.808Z" fill="#2E8B8B"/>
<path d="M76.0775 122.204H76.1009C76.4162 122.073 77.0499 121.532 77.009 121.235C76.9976 121.183 76.9687 121.137 76.9273 121.104C76.8858 121.072 76.8342 121.054 76.7812 121.055C76.7204 121.043 76.6579 121.045 76.5979 121.06C76.5379 121.075 76.4819 121.103 76.4338 121.142C76.098 121.401 76.0191 122.102 76.0133 122.128C76.0105 122.139 76.0104 122.15 76.0129 122.161C76.0155 122.171 76.0206 122.181 76.0279 122.189C76.0347 122.195 76.0426 122.199 76.0512 122.202C76.0597 122.204 76.0687 122.205 76.0775 122.204ZM76.7228 121.165H76.7579C76.8718 121.183 76.8776 121.226 76.8776 121.241C76.9039 121.418 76.4717 121.849 76.1476 122.021C76.1786 121.726 76.3035 121.448 76.5038 121.229C76.5688 121.182 76.6494 121.163 76.7287 121.174L76.7228 121.165Z" fill="#2E8B8B"/>
<path d="M74.9007 120.758L72.5647 120.857C72.5144 120.857 72.466 120.876 72.4288 120.91C72.3916 120.944 72.3683 120.99 72.3633 121.04L71.8026 124.29C71.7995 124.345 71.8073 124.4 71.8258 124.453C71.8442 124.505 71.8729 124.553 71.9101 124.594C71.9473 124.635 71.9923 124.669 72.0425 124.692C72.0927 124.716 72.1472 124.729 72.2027 124.732H72.2494C73.2685 124.68 73.759 124.604 75.0497 124.56C75.841 124.534 78.2617 124.819 79.3421 124.575C80.4225 124.331 80.2181 123.263 79.7538 123.272C78.2529 123.301 76.5213 122.326 75.6658 121.185C75.5169 121.089 75.0643 120.749 74.9007 120.758Z" fill="#1E4243"/>
<path d="M47.4674 89.2714L48.6587 87.2551C48.6857 87.2125 48.6956 87.1612 48.6864 87.1116C48.6772 87.062 48.6496 87.0177 48.6091 86.9875L46.1796 84.7559C46.0893 84.6924 45.9777 84.6666 45.8686 84.684C45.7595 84.7014 45.6615 84.7606 45.5956 84.849L45.5694 84.8897C45.0613 85.7626 44.8598 86.2223 44.197 87.325C43.7882 88.0029 42.2289 89.8853 41.861 90.9124C41.493 91.9394 42.4917 92.3671 42.737 91.9656C43.5283 90.6912 45.289 89.7718 46.7198 89.6613C46.8571 89.6089 47.3856 89.414 47.4674 89.2714Z" fill="#1E4243"/>
<path opacity="0.2" d="M75.8527 115.815L75.4293 118.902L72.8363 118.649L73.2568 115.564L75.8527 115.815Z" fill="black"/>
<path opacity="0.2" d="M54.7644 89.4198L53.5673 92.1111L49.9581 90.5225L50.8779 87.9592L54.7644 89.4198Z" fill="black"/>
<path d="M79.2428 55.2799C80.7232 57.7879 78.9128 59.9031 77.4002 67.3979L67.6416 67.4241C67.7993 63.3857 67.7818 60.1213 66.0531 52.1755C66.0082 51.9797 66.0083 51.7763 66.0534 51.5806C66.0985 51.3849 66.1874 51.2018 66.3135 51.0451C66.4396 50.8884 66.5996 50.7622 66.7815 50.6758C66.9635 50.5894 67.1627 50.5451 67.3642 50.5462C68.1701 50.5462 69.1834 50.5723 70.2141 50.6771C71.8399 50.8096 73.4546 51.0536 75.0467 51.4074C75.9102 51.6149 76.7588 51.8793 77.5871 52.1987C78.0894 52.3675 78.6938 53.7291 79.2428 55.2799Z" fill="#1E4243"/>
<path d="M77.7624 67.9041C77.7624 67.9041 83.2432 83.6939 83.1118 91.2876C83.0359 95.6373 82.7059 103.743 81.389 109.443C80.3145 114.098 75.9345 117.066 75.9345 117.066L72.4305 116.859C72.4305 116.859 70.5325 109.76 70.8624 106.935C71.5194 101.311 73.4671 97.0862 73.2305 91.9219C72.8568 83.4669 70.3456 67.7732 70.3456 67.7732L77.7624 67.9041Z" fill="#2E8B8B"/>
<path d="M71.7267 117.77L76.6761 118.061L77.1258 116.58L71.5953 116.071L71.7267 117.77Z" fill="#1E4243"/>
<path opacity="0.2" d="M72.3516 99.8037C72.3516 99.8037 72.3516 99.7746 72.3808 99.7775C75.4906 100.068 77.6368 95.6083 77.1258 89.5013L75.476 73.9355L72.3516 99.8037Z" fill="black"/>
<path d="M75.3037 67.7733C75.3037 67.7733 79.6603 95.5385 70.6025 98.6633C65.8224 100.467 61.8016 98.512 57.0391 96.4114C54.2855 95.1981 50.8458 91.9133 50.8458 91.9133L52.1685 88.3259C54.5475 87.6849 57.0369 87.5599 59.4685 87.9593C64.1113 88.675 64.307 89.996 65.9568 88.998C69.4257 80.4558 63.4572 73.7029 67.5131 67.7588L75.3037 67.7733Z" fill="#2E8B8B"/>
<path d="M52.4285 87.645L50.6589 92.2973L51.9613 93.2894L54.0637 87.7527L52.4285 87.645Z" fill="#1E4243"/>
<path d="M51.6985 62.5565C51.2575 63.2053 49.0208 62.766 49.0208 62.766L48.5449 60.0049L51.2926 61.1018L51.6985 62.5565Z" fill="#FFB573"/>
<path d="M49.0996 59.8623L49.5259 62.7311L47.8761 62.9754C47.7867 62.9836 47.6975 62.9583 47.6257 62.9045C47.5539 62.8508 47.5048 62.7723 47.4878 62.6845L46.8541 60.6479C46.8433 60.6005 46.8513 60.5508 46.8763 60.5091C46.9013 60.4674 46.9415 60.4368 46.9884 60.4238L49.0996 59.8623Z" fill="#FFB573"/>
<path d="M48.3608 61.1629L49.3011 61.3287L50.1917 60.6625L49.8471 60.4181C49.6136 60.2524 49.4494 60.007 49.3858 59.7285C49.3195 59.4368 49.2795 59.1399 49.266 58.8411V58.7422C49.2548 58.6545 49.2151 58.5728 49.1528 58.5098C49.0906 58.4467 49.0093 58.4057 48.9215 58.3931L48.6879 58.5647C48.5419 58.8819 48.647 59.2514 48.6295 59.4987L48.5915 59.9787L48.2148 60.1417L48.3608 61.1629Z" fill="#FFB573"/>
<path d="M66.5233 51.6284L60.9986 59.1931L50.8516 61.189V62.8474C50.8516 62.8474 60.3883 63.5515 62.5316 62.3091C64.6749 61.0668 68.2694 53.5312 68.2694 53.5312L66.5233 51.6284Z" fill="#FFB573"/>
<path d="M66.459 37.0811C64.1405 36.3072 61.4512 37.7416 60.3913 39.9353C59.3313 42.1291 59.7021 44.8203 60.8964 46.9443C61.2556 47.5873 61.6848 48.1924 61.9797 48.8645C62.3075 49.5308 62.3792 50.2935 62.1812 51.0088C61.9418 51.7042 61.6965 52.1493 60.8322 52.0388C60.8322 52.0388 60.8322 51.5616 61.1621 51.6198C61.1621 51.6198 60.4613 52.0068 60.1869 51.7536C60.5051 52.2424 61.3549 52.0649 61.6264 51.5471C62.0323 50.776 61.2848 49.7315 60.4088 49.7403C59.5328 49.749 58.8203 50.6335 58.8495 51.5034C58.886 51.9385 59.0414 52.3554 59.2988 52.7087C59.5561 53.0621 59.9057 53.3385 60.3095 53.5081C60.0728 53.5469 59.8299 53.5066 59.6186 53.3935C59.4073 53.2803 59.2395 53.1006 59.1415 52.8825C59.5386 53.9183 60.8351 54.3751 61.9301 54.1714C63.0251 53.9678 63.9507 53.2695 64.8092 52.5625C65.9772 51.6082 67.1715 50.4007 67.1452 48.9082C67.1189 47.7938 66.4006 46.8366 65.7962 45.8968C65.1917 44.9571 64.6632 43.8107 65.0487 42.7662C65.3728 41.8789 66.2546 41.3435 67.0313 40.8023C67.592 40.4154 68.7308 39.5513 68.5965 38.7337C68.4592 37.954 67.116 37.2993 66.459 37.0811Z" fill="#263238"/>
<path d="M61.2352 62.9754L59.7051 58.94L60.0555 58.9691C60.339 58.9927 60.6233 58.9345 60.8745 58.8014C61.1256 58.6683 61.333 58.4659 61.4717 58.2184C62.6397 56.1469 65.656 50.8894 66.5058 50.6276C67.7176 50.2697 68.9644 51.2357 69.4258 52.6642C69.7732 53.7145 66.2138 58.2184 64.5727 60.7788C63.1156 63.0452 61.2352 62.9754 61.2352 62.9754Z" fill="#1E4243"/>
<path d="M46.311 90.5981V90.6301C46.3325 90.6861 46.3679 90.7357 46.4139 90.7744C46.4598 90.8131 46.5149 90.8395 46.5738 90.8513C46.6093 90.8623 46.6469 90.8641 46.6832 90.8565C46.7196 90.8489 46.7533 90.832 46.7812 90.8076C47.0264 90.5836 46.8688 89.6438 46.8542 89.5507C46.8526 89.5386 46.8472 89.5274 46.8388 89.5185C46.8304 89.5096 46.8194 89.5036 46.8074 89.5013C46.7961 89.4999 46.7846 89.5012 46.7739 89.5053C46.7632 89.5094 46.7537 89.516 46.7461 89.5245C46.5476 89.8038 46.2322 90.3014 46.311 90.5981ZM46.7607 89.7253C46.8133 90.0977 46.8366 90.5981 46.6994 90.7203C46.6851 90.7282 46.669 90.7324 46.6527 90.7324C46.6363 90.7324 46.6203 90.7282 46.606 90.7203C46.5667 90.713 46.53 90.6958 46.4993 90.6703C46.4687 90.6449 46.4451 90.612 46.4308 90.5749C46.3782 90.4177 46.4892 90.0977 46.7607 89.7195V89.7253Z" fill="#2E8B8B"/>
<path d="M46.7636 89.6729C46.8396 89.9872 47.1374 90.5225 47.4002 90.5865C47.4481 90.5961 47.4978 90.5893 47.5413 90.5671C47.5848 90.5449 47.6195 90.5087 47.6396 90.4643C47.6625 90.4228 47.6759 90.3768 47.679 90.3295C47.682 90.2823 47.6745 90.2349 47.6572 90.1908C47.5374 89.8301 46.8483 89.5333 46.8191 89.5187C46.8097 89.5137 46.7992 89.511 46.7885 89.511C46.7778 89.511 46.7672 89.5137 46.7578 89.5187C46.7492 89.5256 46.7426 89.5346 46.7385 89.5448C46.7344 89.555 46.733 89.566 46.7344 89.5769C46.7416 89.6097 46.7514 89.6418 46.7636 89.6729ZM47.5579 90.2548C47.5638 90.2805 47.5646 90.3071 47.5601 90.3331C47.5556 90.3591 47.5459 90.3839 47.5316 90.4061C47.4936 90.476 47.4557 90.476 47.4265 90.4701C47.2484 90.4352 46.9768 89.9959 46.8892 89.6904C47.114 89.8039 47.4732 90.0163 47.5491 90.2374C47.5471 90.243 47.5471 90.2492 47.5491 90.2548H47.5579Z" fill="#2E8B8B"/>
<path d="M67.6066 66.9324L67.3351 67.8779C67.3 67.9507 67.3847 68.0263 67.5073 68.0234H77.5813C77.6777 68.0234 77.7565 67.974 77.7624 67.9158L77.8558 66.9702C77.8558 66.9062 77.7799 66.848 77.6748 66.8509H67.776C67.743 66.8484 67.71 66.8545 67.6803 66.8689C67.6505 66.8832 67.6251 66.9051 67.6066 66.9324Z" fill="#2E8B8B"/>
<path opacity="0.5" d="M67.6066 66.9324L67.3351 67.8779C67.3 67.9507 67.3847 68.0263 67.5073 68.0234H77.5813C77.6777 68.0234 77.7565 67.974 77.7624 67.9158L77.8558 66.9702C77.8558 66.9062 77.7799 66.848 77.6748 66.8509H67.776C67.743 66.8484 67.71 66.8545 67.6803 66.8689C67.6505 66.8832 67.6251 66.9051 67.6066 66.9324Z" fill="white"/>
<path d="M69.5396 68.1107H69.2476C69.1921 68.1107 69.1454 68.0816 69.1513 68.0467L69.2827 66.816C69.2827 66.781 69.3381 66.752 69.3965 66.752H69.6885C69.744 66.752 69.7878 66.7811 69.7849 66.8189L69.6535 68.0467C69.636 68.0816 69.5834 68.1136 69.5396 68.1107Z" fill="#2E8B8B"/>
<path d="M76.8016 68.1107H76.5096C76.4571 68.1107 76.4104 68.0816 76.4162 68.0467L76.5476 66.8189C76.5476 66.7811 76.6002 66.752 76.6556 66.752H76.9476C77.0031 66.752 77.0499 66.781 77.044 66.816L76.9126 68.0438C76.9068 68.0816 76.86 68.1107 76.8016 68.1107Z" fill="#2E8B8B"/>
<path d="M73.47 68.1048H73.178C73.1225 68.1048 73.0758 68.0757 73.0816 68.0408L73.213 66.813C73.213 66.7752 73.2685 66.7461 73.324 66.7461H73.616C73.6715 66.7461 73.7152 66.7752 73.7123 66.8101L73.578 68.0379C73.578 68.0757 73.5284 68.1048 73.47 68.1048Z" fill="#2E8B8B"/>
<path d="M70.6697 45.3818C70.9792 46.9675 71.2829 49.8304 70.2025 50.6916C70.2025 50.6916 70.6346 52.318 73.5225 52.7516C76.7111 53.2287 75.038 51.419 75.038 51.419C73.3006 50.7353 73.3444 49.4842 73.6422 48.332L70.6697 45.3818Z" fill="#FFB573"/>
<path d="M70.2142 50.6771C71.7551 50.7745 73.2865 50.9865 74.7956 51.3114L76.9798 51.9602C77.3682 52.74 76.7316 54.3431 74.9037 54.6486C74.9037 54.6486 70.2988 55.2799 68.941 50.5549L70.2142 50.6771Z" fill="#FFB573"/>
<path opacity="0.2" d="M71.8756 46.5894L73.6276 48.335C73.5538 48.6053 73.5059 48.882 73.4845 49.1613C72.8188 48.9664 71.7501 48.2361 71.6771 47.5378C71.6779 47.2115 71.7454 46.8888 71.8756 46.5894Z" fill="black"/>
<path d="M68.7191 43.3801C69.5017 45.8415 69.7762 46.9005 71.3793 47.8694C73.7678 49.3241 76.6353 47.8345 76.6061 45.1927C76.5827 42.8127 75.3125 39.1875 72.5998 38.7918C72.0035 38.7028 71.3943 38.7672 70.8301 38.9791C70.2659 39.191 69.7655 39.5432 69.3765 40.0022C68.9875 40.4612 68.7229 41.0118 68.6078 41.6015C68.4928 42.1913 68.5311 42.8005 68.7191 43.3713V43.3801Z" fill="#FFB573"/>
<path d="M74.6146 42.9961C74.8908 43.4281 75.2259 43.8198 75.6103 44.1599C75.5204 44.2569 75.4104 44.3332 75.2878 44.3834C75.1653 44.4337 75.0332 44.4567 74.9008 44.4508L74.6146 42.9961Z" fill="#ED893E"/>
<path d="M74.3372 45.7659C74.436 45.755 74.5338 45.7355 74.6292 45.7077C74.6367 45.706 74.6437 45.7028 74.65 45.6984C74.6562 45.6939 74.6616 45.6883 74.6656 45.6818C74.6697 45.6753 74.6724 45.6681 74.6737 45.6606C74.675 45.653 74.6747 45.6453 74.673 45.6378C74.6689 45.6226 74.6589 45.6095 74.6453 45.6013C74.6317 45.5932 74.6155 45.5906 74.6 45.5942C74.3507 45.6627 74.0888 45.672 73.8353 45.6215C73.5818 45.571 73.3436 45.462 73.14 45.3033C73.128 45.2913 73.1117 45.2847 73.0947 45.2847C73.0778 45.2847 73.0615 45.2913 73.0495 45.3033C73.0436 45.3089 73.039 45.3157 73.0359 45.3232C73.0327 45.3307 73.0311 45.3388 73.0311 45.3469C73.0311 45.355 73.0327 45.3631 73.0359 45.3706C73.039 45.3781 73.0436 45.3848 73.0495 45.3905C73.2288 45.5343 73.4349 45.6415 73.6558 45.7059C73.8768 45.7703 74.1083 45.7907 74.3372 45.7659Z" fill="#263238"/>
<path d="M67.8694 38.4661C67.5476 38.6735 67.2804 38.9548 67.0904 39.2864C66.9004 39.618 66.793 39.9902 66.7773 40.3718C66.7641 40.5177 66.7871 40.6646 66.8445 40.7995C66.8733 40.8662 66.9192 40.9242 66.9776 40.9676C67.0361 41.0111 67.105 41.0384 67.1774 41.0468C67.3993 41.0468 67.5628 40.8489 67.6854 40.6627L68.2519 39.7899C68.4852 39.5063 68.6814 39.1945 68.8359 38.8618C69.0257 38.2886 68.2169 38.245 67.8694 38.4661Z" fill="#2E8B8B"/>
<path d="M68.1468 39.045C66.5963 40.8314 65.9013 45.7746 70.4448 47.1537C71.204 46.5543 69.9776 45.4633 69.4579 44.0842C69.1162 43.1822 70.8478 41.4976 71.5223 40.8052C72.1968 40.1127 72.8188 39.1148 73.7707 39.2748C74.0123 39.3553 74.2725 39.3624 74.5182 39.2952C75.2745 38.9548 74.9066 38.5038 74.5182 38.1896C73.9226 37.7503 73.2134 37.4899 72.4742 37.4389C71.6768 37.3453 70.8684 37.4422 70.1159 37.7214C69.3635 38.0007 68.6885 38.4544 68.1468 39.045Z" fill="#263238"/>
<path d="M73.1896 38.4456C75.0146 39.9615 72.6056 39.9993 71.3296 40.9594C70.1061 41.8817 70.9646 43.3917 68.8943 44.0929C67.2036 44.5846 66.8124 44.2879 66.3452 43.962C66.9241 43.8622 67.4537 43.5743 67.8514 43.1433C68.2491 42.7123 68.4926 42.1624 68.5439 41.5791C68.687 40.4735 71.1048 36.6883 73.1896 38.4456Z" fill="#263238"/>
<path d="M68.4446 45.4489C68.7306 45.8592 69.1668 46.1413 69.6594 46.2344C70.3134 46.3479 70.5646 45.7515 70.3397 45.1696C70.1266 44.6459 69.5338 43.9563 68.9002 44.1047C68.6823 44.1609 68.4957 44.3008 68.3813 44.4939C68.2668 44.687 68.234 44.9174 68.2899 45.1346C68.3196 45.2487 68.3723 45.3556 68.4446 45.4489Z" fill="#FFB573"/>
<path d="M72.8772 38.5999C73.2305 39.4961 74.2496 39.3768 75.003 40.3136C75.4672 40.8955 76.3783 39.1004 75.1373 38.3934C73.8963 37.6864 72.3224 37.1976 72.8772 38.5999Z" fill="#263238"/>
<path d="M71.8026 42.3821C71.8286 42.3848 71.8548 42.3793 71.8774 42.3662C71.9 42.3531 71.9178 42.3332 71.9282 42.3093C72.1676 41.7798 72.8859 41.646 72.8918 41.646C72.9239 41.639 72.952 41.62 72.9705 41.5929C72.9889 41.5659 72.9963 41.5328 72.9911 41.5005C72.9847 41.4689 72.9661 41.4412 72.9393 41.4232C72.9125 41.4052 72.8797 41.3985 72.848 41.4045C72.81 41.4045 71.9924 41.5761 71.7004 42.2162C71.6874 42.246 71.6866 42.2796 71.698 42.3101C71.7094 42.3405 71.7323 42.3652 71.7617 42.3792H71.8026V42.3821Z" fill="#263238"/>
<path d="M75.5986 41.3114C75.62 41.3129 75.6413 41.3086 75.6604 41.2989C75.6795 41.2891 75.6955 41.2743 75.7066 41.2561C75.7159 41.243 75.7225 41.2282 75.7259 41.2126C75.7294 41.1969 75.7296 41.1807 75.7266 41.165C75.7236 41.1492 75.7174 41.1342 75.7085 41.1209C75.6995 41.1076 75.688 41.0962 75.6745 41.0874C75.5128 40.9757 75.3265 40.9045 75.1313 40.8797C74.9362 40.8549 74.7379 40.8772 74.5532 40.9448C74.5379 40.9508 74.5239 40.9599 74.5122 40.9715C74.5006 40.9831 74.4914 40.997 74.4854 41.0123C74.4794 41.0276 74.4766 41.044 74.4772 41.0604C74.4778 41.0768 74.4818 41.0929 74.489 41.1077C74.5019 41.1374 74.526 41.1608 74.556 41.1728C74.5861 41.1848 74.6198 41.1844 74.6496 41.1718C74.7948 41.1212 74.9501 41.1059 75.1025 41.1271C75.2548 41.1484 75.3999 41.2056 75.5256 41.2939C75.5484 41.305 75.5733 41.3109 75.5986 41.3114Z" fill="#263238"/>
<path d="M87.6027 57.238L85.8916 58.2069L84.1133 62.0183C84.1133 62.0183 85.8303 63.1065 87.1852 62.2249C88.5401 61.3433 87.6027 57.238 87.6027 57.238Z" fill="#2E8B8B"/>
<path opacity="0.5" d="M87.6027 57.238L85.8916 58.2069L84.1133 62.0183C84.1133 62.0183 85.8303 63.1065 87.1852 62.2249C88.5401 61.3433 87.6027 57.238 87.6027 57.238Z" fill="white"/>
<path d="M57.6815 58.4163L59.7051 58.9982L61.6235 62.9521C61.6235 62.9521 60.0817 64.3749 58.4115 63.0161C57.1618 61.9862 57.6815 58.4163 57.6815 58.4163Z" fill="#2E8B8B"/>
<g opacity="0.5">
<path d="M57.6815 58.4163L59.7051 58.9982L61.6235 62.9521C61.6235 62.9521 60.0817 64.3749 58.4115 63.0161C57.1618 61.9862 57.6815 58.4163 57.6815 58.4163Z" fill="white"/>
</g>
<path d="M75.4819 42.2978C75.622 42.2716 75.7739 42.4287 75.806 42.644C75.8381 42.8593 75.7593 43.0572 75.6191 43.0804C75.4789 43.1037 75.3271 42.9495 75.295 42.7342C75.2629 42.5189 75.3417 42.3181 75.4819 42.2978Z" fill="#263238"/>
<path d="M75.914 42.0854L75.4205 42.3269C75.7184 42.5364 75.914 42.0854 75.914 42.0854Z" fill="#263238"/>
<path d="M73.0436 42.7983C73.1838 42.7721 73.3356 42.9292 73.3677 43.1445C73.3998 43.3598 73.321 43.5576 73.1808 43.5809C73.0407 43.6042 72.8888 43.45 72.8567 43.2347C72.8246 43.0194 72.8976 42.8244 73.0436 42.7983Z" fill="#263238"/>
<path d="M73.47 42.5859L72.9765 42.8274C73.2743 43.0369 73.47 42.5859 73.47 42.5859Z" fill="#263238"/>
<path d="M60.6804 53.9299C60.4054 53.9314 60.1328 53.88 59.8774 53.7786C58.9722 53.4091 58.5517 52.4722 58.7094 51.2037C58.7145 51.1655 58.7345 51.1309 58.7652 51.1074C58.7958 51.084 58.8346 51.0736 58.8729 51.0786C58.892 51.0807 58.9105 51.0867 58.9273 51.0961C58.9441 51.1055 58.9587 51.1182 58.9705 51.1334C58.9822 51.1486 58.9907 51.166 58.9955 51.1846C59.0003 51.2032 59.0013 51.2225 58.9985 51.2415C58.8466 52.3675 59.2029 53.1938 59.9767 53.508C60.4258 53.6612 60.912 53.6688 61.3657 53.5298C61.8194 53.3907 62.2173 53.1122 62.5025 52.7341C63.2354 51.7623 62.9959 50.3832 61.8542 48.9517C58.8641 45.213 59.0627 43.2259 59.4861 41.6548C60.0993 39.3737 61.8951 36.761 66.9759 37.2643C67.0146 37.2682 67.0502 37.2872 67.0749 37.3172C67.0995 37.3472 67.1112 37.3858 67.1073 37.4244C67.1034 37.4629 67.0843 37.4984 67.0542 37.523C67.0241 37.5475 66.9854 37.5592 66.9467 37.5553C62.0732 37.0723 60.3504 39.5628 59.7664 41.7333C59.3459 43.3044 59.1824 45.1403 62.082 48.7743C63.834 50.9651 63.1244 52.3995 62.7361 52.9115C62.4931 53.2252 62.1818 53.4798 61.8257 53.6562C61.4696 53.8326 61.078 53.9261 60.6804 53.9299Z" fill="#263238"/>
</g>
<defs>
<filter id="filter0_d_0_9331" x="-14" y="-2" width="174" height="171" filterUnits="userSpaceOnUse" color-interpolation-filters="sRGB">
<feFlood flood-opacity="0" result="BackgroundImageFix"/>
<feColorMatrix in="SourceAlpha" type="matrix" values="0 0 0 0 0 0 0 0 0 0 0 0 0 0 0 0 0 0 127 0" result="hardAlpha"/>
<feMorphology radius="10" operator="erode" in="SourceAlpha" result="effect1_dropShadow_0_9331"/>
<feOffset dy="12"/>
<feGaussianBlur stdDeviation="12"/>
<feComposite in2="hardAlpha" operator="out"/>
<feColorMatrix type="matrix" values="0 0 0 0 0.141176 0 0 0 0 0.145098 0 0 0 0 0.145098 0 0 0 0.05 0"/>
<feBlend mode="normal" in2="BackgroundImageFix" result="effect1_dropShadow_0_9331"/>
<feBlend mode="normal" in="SourceGraphic" in2="effect1_dropShadow_0_9331" result="shape"/>
</filter>
</defs>
</svg>
