<svg width="195" height="48" viewBox="0 0 195 48" fill="none" xmlns="http://www.w3.org/2000/svg">
<g clip-path="url(#clip0_0_8879)">
<path d="M51.2525 17.0101H70.98V20.6924H63.2125V41.45H58.955V20.6924H51.22L51.2525 17.0101ZM70.135 23.7555H73.775V27.1771H73.84C73.97 26.6883 74.1975 26.2321 74.5225 25.7759C74.8475 25.3197 75.2375 24.8961 75.725 24.5376C76.18 24.1466 76.7 23.8533 77.285 23.6252C77.8375 23.3971 78.4225 23.2667 79.0075 23.2667C79.4625 23.2667 79.7875 23.2993 79.95 23.2993C80.1125 23.3319 80.3075 23.3645 80.47 23.3645V27.112C80.21 27.0468 79.9175 27.0142 79.625 26.9816C79.3325 26.949 79.0725 26.9164 78.78 26.9164C78.13 26.9164 77.5125 27.0468 76.9275 27.3075C76.3425 27.5682 75.855 27.9592 75.4 28.448C74.9775 28.9694 74.62 29.5885 74.36 30.338C74.1 31.0875 73.97 31.9674 73.97 32.945V41.3523H70.07L70.135 23.7555ZM98.345 41.45H94.51V38.9735H94.445C93.9575 39.8859 93.2425 40.5702 92.3 41.1242C91.3575 41.6782 90.3825 41.9388 89.4075 41.9388C87.1 41.9388 85.41 41.3849 84.37 40.2118C83.33 39.0712 82.81 37.3116 82.81 34.9979V23.7555H86.71V34.6069C86.71 36.171 87.0025 37.279 87.62 37.8981C88.205 38.5498 89.05 38.8757 90.1225 38.8757C90.935 38.8757 91.6175 38.7454 92.17 38.4847C92.7225 38.224 93.1775 37.8981 93.5025 37.4745C93.86 37.0509 94.0875 36.5295 94.25 35.9429C94.4125 35.3564 94.4775 34.7046 94.4775 34.0203V23.7555H98.3775V41.45H98.345ZM104.975 35.78C105.105 36.9205 105.527 37.7026 106.275 38.1914C107.022 38.6476 107.932 38.8757 108.972 38.8757C109.33 38.8757 109.752 38.8431 110.207 38.7779C110.662 38.7128 111.117 38.615 111.507 38.4521C111.93 38.2892 112.255 38.061 112.515 37.7352C112.775 37.4093 112.905 37.0183 112.872 36.5295C112.84 36.0407 112.677 35.617 112.32 35.2912C111.962 34.9653 111.54 34.7372 111.02 34.5091C110.5 34.3136 109.882 34.1507 109.2 34.0203C108.517 33.89 107.835 33.727 107.12 33.5641C106.405 33.4012 105.69 33.2057 105.007 32.9775C104.325 32.7494 103.74 32.4562 103.187 32.0325C102.667 31.6415 102.212 31.1527 101.92 30.5336C101.595 29.9144 101.432 29.1975 101.432 28.2851C101.432 27.3075 101.66 26.5254 102.147 25.8737C102.602 25.2219 103.22 24.7006 103.935 24.3095C104.65 23.9185 105.462 23.6252 106.34 23.4623C107.217 23.2993 108.062 23.2342 108.842 23.2342C109.752 23.2342 110.63 23.3319 111.442 23.5274C112.255 23.723 113.035 24.0162 113.685 24.4725C114.367 24.8961 114.92 25.4826 115.342 26.1669C115.797 26.8513 116.057 27.6985 116.187 28.6761H112.125C111.93 27.7311 111.507 27.112 110.857 26.7861C110.175 26.4602 109.427 26.2973 108.55 26.2973C108.29 26.2973 107.932 26.3299 107.575 26.3625C107.185 26.4276 106.86 26.4928 106.502 26.6232C106.177 26.7535 105.885 26.949 105.657 27.1771C105.43 27.4052 105.3 27.7311 105.3 28.1221C105.3 28.6109 105.462 28.9694 105.787 29.2627C106.112 29.5559 106.535 29.7841 107.087 30.0122C107.607 30.2077 108.225 30.3706 108.907 30.501C109.59 30.6313 110.305 30.7942 111.02 30.9572C111.735 31.1201 112.417 31.3156 113.1 31.5437C113.782 31.7718 114.4 32.0651 114.92 32.4887C115.44 32.8798 115.895 33.3686 116.22 33.9551C116.545 34.5417 116.707 35.2912 116.707 36.1384C116.707 37.1812 116.48 38.061 115.992 38.8105C115.505 39.5274 114.887 40.1466 114.14 40.6028C113.392 41.059 112.515 41.3849 111.605 41.613C110.662 41.8085 109.752 41.9388 108.842 41.9388C107.737 41.9388 106.697 41.8085 105.755 41.5478C104.812 41.2871 103.967 40.8961 103.285 40.4073C102.602 39.8859 102.05 39.2667 101.66 38.4847C101.27 37.7352 101.042 36.8228 101.01 35.7474H104.942V35.78H104.975ZM117.812 23.7555H120.77V18.4113H124.67V23.723H128.18V26.6232H124.67V36.0733C124.67 36.4969 124.702 36.8228 124.735 37.1486C124.767 37.4419 124.865 37.7026 124.962 37.8981C125.092 38.0936 125.287 38.2566 125.515 38.3543C125.775 38.4521 126.1 38.5173 126.555 38.5173C126.815 38.5173 127.107 38.5173 127.367 38.4847C127.627 38.4521 127.92 38.4195 128.18 38.3543V41.3849C127.757 41.45 127.335 41.4826 126.912 41.5152C126.49 41.5804 126.1 41.5804 125.645 41.5804C124.605 41.5804 123.792 41.4826 123.175 41.2871C122.557 41.0916 122.07 40.7983 121.712 40.4399C121.355 40.0488 121.127 39.5926 120.997 39.0386C120.867 38.4847 120.802 37.8003 120.77 37.0834V26.6557H117.812V23.6904V23.7555ZM130.91 23.7555H134.582V26.1669H134.647C135.2 25.1242 135.947 24.4073 136.922 23.9511C137.897 23.4949 138.937 23.2667 140.107 23.2667C141.505 23.2667 142.707 23.4949 143.747 24.0162C144.787 24.505 145.632 25.1568 146.315 26.0366C146.997 26.8839 147.517 27.894 147.842 29.0346C148.167 30.1751 148.362 31.4134 148.362 32.6843C148.362 33.89 148.2 35.0305 147.907 36.1384C147.582 37.2464 147.127 38.2566 146.51 39.1038C145.892 39.9511 145.112 40.6354 144.137 41.1568C143.162 41.6781 142.057 41.9388 140.757 41.9388C140.205 41.9388 139.62 41.8737 139.067 41.7759C138.515 41.6782 137.962 41.5152 137.442 41.2871C136.922 41.059 136.435 40.7657 136.012 40.4073C135.557 40.0488 135.2 39.6252 134.907 39.169H134.842V47.9999H130.942V23.7555H130.91ZM144.527 32.6191C144.527 31.837 144.43 31.0549 144.202 30.3054C144.007 29.556 143.682 28.9042 143.26 28.3177C142.837 27.7311 142.317 27.2749 141.732 26.9164C141.115 26.558 140.4 26.3951 139.62 26.3951C137.995 26.3951 136.76 26.949 135.915 28.0896C135.102 29.2301 134.68 30.7617 134.68 32.6517C134.68 33.5641 134.777 34.3788 135.005 35.1283C135.232 35.8777 135.525 36.5295 135.98 37.0834C136.402 37.6374 136.922 38.061 137.54 38.3869C138.157 38.7128 138.84 38.8757 139.652 38.8757C140.562 38.8757 141.277 38.6802 141.895 38.3217C142.512 37.9633 143 37.4745 143.422 36.9205C143.812 36.334 144.105 35.6822 144.267 34.9327C144.43 34.1507 144.527 33.4012 144.527 32.6191ZM151.385 17.0101H155.285V20.6924H151.385V17.0101ZM151.385 23.7555H155.285V41.45H151.385V23.7555ZM158.762 17.0101H162.662V41.45H158.762V17.0101ZM174.557 41.9388C173.16 41.9388 171.892 41.7107 170.787 41.2219C169.682 40.7331 168.772 40.114 167.992 39.2993C167.245 38.4847 166.66 37.4745 166.27 36.334C165.88 35.1934 165.652 33.9226 165.652 32.5865C165.652 31.2505 165.847 30.0122 166.27 28.8716C166.66 27.7311 167.245 26.7535 167.992 25.9063C168.74 25.0916 169.682 24.4399 170.787 23.9837C171.892 23.5274 173.16 23.2667 174.557 23.2667C175.955 23.2667 177.222 23.4949 178.327 23.9837C179.432 24.4399 180.342 25.0916 181.122 25.9063C181.87 26.7209 182.455 27.7311 182.845 28.8716C183.235 30.0122 183.462 31.2505 183.462 32.5865C183.462 33.9551 183.267 35.1934 182.845 36.334C182.422 37.4745 181.87 38.4521 181.122 39.2993C180.375 40.114 179.432 40.7657 178.327 41.2219C177.222 41.6782 175.987 41.9388 174.557 41.9388ZM174.557 38.8431C175.402 38.8431 176.182 38.6476 176.8 38.2892C177.45 37.9307 177.937 37.4419 178.36 36.8553C178.782 36.2688 179.075 35.5845 179.27 34.8676C179.465 34.1181 179.562 33.3686 179.562 32.5865C179.562 31.837 179.465 31.0875 179.27 30.338C179.075 29.5885 178.782 28.9368 178.36 28.3502C177.937 27.7637 177.417 27.3075 176.8 26.949C176.15 26.5906 175.402 26.3951 174.557 26.3951C173.712 26.3951 172.932 26.5906 172.315 26.949C171.665 27.3075 171.177 27.7963 170.755 28.3502C170.332 28.9368 170.04 29.5885 169.845 30.338C169.65 31.0875 169.552 31.837 169.552 32.5865C169.552 33.3686 169.65 34.1181 169.845 34.8676C170.04 35.6171 170.332 36.2688 170.755 36.8553C171.177 37.4419 171.697 37.9307 172.315 38.2892C172.965 38.6802 173.712 38.8431 174.557 38.8431ZM184.632 23.7555H187.59V18.4113H191.49V23.723H195V26.6232H191.49V36.0733C191.49 36.4969 191.522 36.8228 191.555 37.1486C191.587 37.4419 191.685 37.7026 191.782 37.8981C191.912 38.0936 192.107 38.2566 192.335 38.3543C192.595 38.4521 192.92 38.5173 193.375 38.5173C193.635 38.5173 193.927 38.5173 194.187 38.4847C194.447 38.4521 194.74 38.4195 195 38.3543V41.3849C194.577 41.45 194.155 41.4826 193.732 41.5152C193.31 41.5804 192.92 41.5804 192.465 41.5804C191.425 41.5804 190.612 41.4826 189.995 41.2871C189.377 41.0916 188.89 40.7983 188.532 40.4399C188.175 40.0488 187.947 39.5926 187.817 39.0386C187.687 38.4847 187.622 37.8003 187.59 37.0834V26.6557H184.632V23.6904V23.7555Z" fill="black"/>
<path d="M46.7025 17.0102H28.86L23.3675 0L17.8425 17.0102L0 16.9776L14.43 27.5031L8.905 44.5132L23.335 33.9878L37.765 44.5132L32.2725 27.5031L46.7025 17.0102Z" fill="#00B67A"/>
<path d="M33.5076 31.3483L32.2726 27.5031L23.3676 33.9878L33.5076 31.3483Z" fill="#005128"/>
</g>
<defs>
<clipPath id="clip0_0_8879">
<rect width="195" height="48" fill="white"/>
</clipPath>
</defs>
</svg>
